<?xml version="1.0" encoding="UTF-8"?>
<svg id="_øl" data-name="øl" xmlns="http://www.w3.org/2000/svg" viewBox="0 0 370 370">
  <defs>
    <style>
      .cls-1 {
        fill: #375197;
      }

      .cls-1, .cls-2, .cls-3, .cls-4 {
        stroke-width: 0px;
      }

      .cls-2 {
        fill: #bf2328;
      }

      .cls-3 {
        fill: #fff;
      }

      .cls-4 {
        fill: #fefefe;
      }
    </style>
  </defs>
  <circle class="cls-3" cx="184.5" cy="183.5" r="174"/>
  <g>
    <path class="cls-4" d="m48.44,107.89c-4.31-2.44-8.65-4.85-12.93-7.36-.94-.55-1.35-.41-1.84.5-1.01,1.87-2.08,3.71-3.2,5.51-.48.78-.43,1.17.39,1.65,10.45,6.09,20.89,12.2,31.32,18.34.69.41,1.02.32,1.41-.37,1.15-2.03,2.32-4.04,3.57-6,.51-.8.2-1.12-.47-1.5-1.75-1.01-3.44-2.15-5.23-3.09-2.14-1.11-2.83-3.25-4.35-5.25,4.28.7,8.17,1.32,12.05,1.96,2.6.43,2.58.43,3.95-1.8,1.45-2.38,2.37-5.27,5.76-5.73,1.18-.16,1.41-.87.84-1.9-.53-.94-.35-1.55.68-2.15,2.4-1.4,4.24-3.43,5.79-5.72,3.34-4.95,3.15-9.21-.79-13.69-3.18-3.62-6.97-6.63-10.47-9.94-2.62-2.48-5.46-4.71-8.88-6.01-1.01-.38-1.53-.98-1.9-1.94-.9-2.35-.91-2.24-3.28-1.51-1.31.41-1.44.95-.83,2,.5.87.41,1.41-.65,1.96-2.65,1.38-4.71,3.47-6.41,5.93-3.53,5.11-2.94,10.65,1.6,14.91,3.11,2.91,6.22,5.81,9.36,8.68,2.85,2.6,5.83,5.07,9.58,6.28,1.5.48,2.17,1.38,2.29,2.9-.2,0-.36.02-.5,0-6.61-.97-13.21-2.01-19.84-2.88-1.42-.19-2.26-.76-3.02-1.9-2.88-4.35-5.83-8.65-8.77-12.96-.28-.4-.45-.92-1.1-1.18-1.24,2.12-2.45,4.27-3.75,6.36-.59.95-.54,1.64.13,2.56,3.17,4.39,6.38,8.75,9.71,13.02-.07.1-.15.2-.22.3Zm248.08,103.39c2.54.69,4.96,1.74,7.4,2.71,14.4,5.71,28.27,12.58,42.11,19.52,1.25.63,1.71.69,2.19-.88,3.89-12.75,6.09-25.8,6.86-39.09.41-7.14.38-14.28-.11-21.42-.06-.81-.37-1.24-1.07-1.62-15.97-8.83-32.44-16.54-49.63-22.69-2.69-.96-5.39-1.88-8.09-2.83,19.37,2.39,38.33,6.61,57.08,12.27,0-.35.03-.6,0-.83-3.93-24.43-12.62-47.01-26.26-67.68-.45-.69-.97-1.04-1.77-1.24-9.31-2.31-18.75-3.76-28.3-4.54-14.68-1.2-29.34-1.24-43.98.67-9.75,1.27-18.89,4.14-27.53,8.92-8.74,4.85-15.05,11.52-17.75,21.3-.29,1.05-1.14,1.35-1.98,1.69-2.53,1.02-5.09,1.97-7.6,3.05-6.62,2.83-13,6.12-18.98,10.14-2.3,1.54-4.75,3.18-5.4,5.94-.79,3.38-2.86,4.57-5.93,5.48-10.88,3.23-21.26,7.8-31.67,12.25-13.28,5.68-26.27,11.9-38.02,20.46-1.76,1.28-3.01,2.85-3.57,4.93-.97,3.6-1.2,7.28-.89,10.99.09,1.01.51,1.95,1.03,2.83.73,1.25,1.74,1.86,3.23,1.84,4.62-.05,8.48-1.65,11.43-5.29.54-.67.91-1.54,1.78-1.9,1.53,5.88-.18,10.44-5.29,13.65-2.27,1.43-4.5,2.94-6.82,4.26-1.46.83-2.13,1.96-2.41,3.58-.52,2.95-.25,5.86.08,8.78.54,4.79,1.45,9.48,3.51,13.91,1.27,2.74,3.29,4.51,5.96,5.76,6.23,2.9,12.77,3.32,19.47,2.65,4.45-.44,8.7-1.87,13.05-2.78,6.28-1.31,9.29,1.86,10.73,5.77,1.49,4.04.98,8.19-.79,12.13-.77,1.72-2.63,2.66-4.48,2.3-.89-.17-1.77-.43-2.63-.71-4.32-1.37-7.96-3.94-11.58-6.54-3.75-2.69-7.54-5.3-11.67-7.37-1.56-.78-3.19-1.28-4.96-1.2-2.09.1-3.97,1.82-4.13,3.9-.19,2.53-.16,5.06.17,7.58.89,6.76,2.93,13.23,4.89,19.71,1.15,3.82,2.43,7.63,4.69,10.99,2.74,4.06,5.99,5.14,10.63,3.59,3.88-1.3,7.29-3.5,10.67-5.73,3.43-2.27,7.05-4.17,10.72-6,3.17-1.58,4.65-.6,4.65,2.97,0,.1,0,.2,0,.3.26,5.86-1.01,11.58-1.56,17.37-.73,7.66-1.5,15.32-1.69,23.03-.26,10.97.67,21.86,2.16,32.72.14,1.04.57,1.42,1.58,1.59,6.75,1.14,13.53,1.91,20.37,2.21,16.66.73,33.07-.83,49.24-4.94,1.01-.26,1.1-.62.82-1.54-4.44-14.36-8.26-28.88-10.76-43.73-.51-3-1.07-6-.99-9.09.35.45.59.93.79,1.42,1.75,4.2,3.45,8.42,5.24,12.61,5.19,12.17,11.01,24,18.41,35.02.54.81.96,1.04,1.92.69,20.84-7.54,39.73-18.38,56.33-33.13.63-.56.99-.89.26-1.77-10.93-13.02-20.67-26.9-29.69-41.29-3.01-4.8-5.94-9.66-8.15-14.9.07-.06.13-.13.2-.19.48.51.99,1,1.45,1.54,3.68,4.32,7.45,8.56,11.28,12.74,10.66,11.63,21.93,22.62,34.07,32.7.67.56,1.11,1.09,2.04.09,14.61-15.69,26.03-33.4,34.1-53.28.44-1.08.28-1.65-.64-2.39-13.38-10.68-26.97-21.07-41.32-30.44-1.6-1.04-3.25-2.04-4.62-3.4.05-.05.09-.1.14-.15Zm-162.45,136.11c-.22-4.49.26-8.83.22-13.19,0-.91-.3-1.32-1.2-1.59-1.84-.54-3.65-1.19-5.44-1.9-33.16-13.1-59.27-34.67-77.95-65.1-.63-1.03-1.07-1.01-1.96-.46-3.14,1.94-6.29,3.87-9.49,5.72-.83.48-.85.8-.39,1.59,4.55,7.87,9.77,15.27,15.69,22.16,19.94,23.17,44.33,39.94,73.04,50.41,2.41.88,4.83,1.74,7.47,2.36Zm3.93-38.28c.09-1.05-.8-1.12-1.47-1.38-21.7-8.42-39.98-21.57-54.79-39.54-4-4.85-7.75-9.88-11.18-15.14-.33-.51-.49-1.24-1.45-.63-3.13,1.97-6.28,3.88-9.47,5.74-1.19.69-1.42,1.25-.63,2.54,7.12,11.61,15.75,21.95,25.69,31.23,14.01,13.07,29.88,23.15,48,29.53,2.99,1.05,3,1.03,3.5-2,.03-.2.09-.4.12-.59.56-3.24,1.11-6.48,1.67-9.75ZM257.78,43.78c.24.55-.03,1-.15,1.46-2.09,7.61-3.96,15.27-5.77,22.95-.23.97,0,1.47.83,1.94,2.07,1.17,4.11,2.39,6.11,3.68.8.52,1.15.41,1.62-.4,6.16-10.53,12.34-21.04,18.55-31.54.42-.71.29-1.02-.38-1.39-1.63-.91-3.27-1.83-4.83-2.86-.9-.59-1.3-.44-1.84.47-3.44,5.9-6.94,11.77-10.44,17.63-.25.42-.3,1.11-1.01,1.12-.06-.07-.13-.12-.12-.15,2.32-7.44,3.86-15.07,5.63-22.65.17-.72.06-1.2-.69-1.59-2.33-1.22-4.62-2.51-6.9-3.83-.65-.38-.92-.23-1.28.37-6.16,10.47-12.34,20.92-18.54,31.37-.43.72-.28,1.01.38,1.4,1.53.89,3.06,1.8,4.5,2.83,1.03.74,1.54.57,2.16-.52,3.6-6.22,7.26-12.4,10.92-18.59.35-.59.6-1.27,1.24-1.71Zm-161.19,12.71c.67-1.71.86-3.17.46-4.7-.89-3.38-3.04-5.8-5.97-7.51-2.95-1.72-6.04-1.48-8.73.48-4,2.92-7.86,6.05-11.62,9.28-.7.6-.72.96-.14,1.67,3.63,4.42,7.2,8.89,10.81,13.33,3.99,4.91,8.02,9.79,11.97,14.73.8.99,1.31.97,2.25.18,2.34-1.93,4.82-3.69,7.19-5.59,2.06-1.65,3.83-3.59,5.28-5.83,1.58-2.45,1.74-4.99.77-7.68-.53-1.49-1.18-2.94-2.18-4.14-2.53-3.04-5.3-5.71-10.09-4.22Zm53.34-17.75c-.15-.25-.3-.51-.44-.76-3.7-6.4-7.64-12.65-11.88-18.71-.35-.5-.53-1.19-1.49-.91-2.57.76-5.17,1.42-7.76,2.1-.61.16-.82.47-.64,1.1.3,1.02.56,2.05.81,3.08,2.66,10.8,5.68,21.51,8.53,32.26.25.93.52,1.25,1.52.9,1.67-.58,3.37-1.09,5.09-1.48,1.05-.23,1.25-.64.97-1.64-1.09-3.89-2.12-7.81-3.17-11.71-1.08-4.04-2.15-8.09-3.26-12.25.69.29.8.82,1.05,1.23,4.24,6.95,8.49,13.91,12.7,20.88.54.89,1.03,1.14,2.06.82,2.22-.69,4.48-1.25,6.73-1.83.67-.17,1.03-.29.81-1.19-2.95-11.87-6.22-23.67-9.36-35.49-.23-.86-.64-.98-1.42-.75-1.74.52-3.49,1.03-5.26,1.47-.93.23-1.13.59-.86,1.56,1.44,5.16,2.82,10.34,4.16,15.53.49,1.89,1.17,3.75,1.1,5.78Zm28.24-19.9c.14,0,.28,0,.42,0,0,2.03-.04,4.05.02,6.08.03.86-.08,1.31-1.1,1.29-1.26-.03-2.53.08-3.79.24-1.01.13-1.4-.1-1.45-1.22-.19-3.99-.55-7.98-.75-11.97-.05-1.09-.27-1.53-1.46-1.4-1.96.2-3.94.33-5.91.33-1.32,0-1.56.52-1.49,1.72.35,5.81.62,11.63.92,17.44.31,6.12.63,12.24.91,18.36.04.86.32,1.13,1.17,1.08,2.27-.15,4.55-.25,6.83-.32.8-.02,1.05-.33,1-1.11-.25-4.3-.44-8.6-.72-12.89-.13-2.02-.19-2.01,1.76-2.07.96-.03,1.94.03,2.88-.11,1.47-.23,1.91.31,1.95,1.77.12,4.3.43,8.6.6,12.9.04.94.29,1.19,1.24,1.11,2.07-.17,4.15-.27,6.22-.27,1.36,0,1.73-.46,1.64-1.84-.47-7.28-.82-14.56-1.22-21.84-.26-4.65-.53-9.3-.82-13.95-.03-.45.18-1.05-.71-1.01-2.33.12-4.65.2-6.98.23-1.02.01-1.22.47-1.19,1.41.07,2.02.02,4.05.02,6.07ZM27.24,207.06c-3.87.39-7.46.99-11.04,1.64-1.3.24-2.07.58-1.46,2.1.26.64.25,1.39.37,2.09,2.81,15.88,7.81,31.03,14.93,45.5.42.85.73,1.12,1.67.63,3.22-1.69,6.47-3.33,9.74-4.91,1.04-.5,1.22-1,.72-2.07-3.43-7.33-6.43-14.83-8.86-22.55-2.12-6.76-3.81-13.62-4.88-20.63-.12-.76.14-2.06-1.19-1.78ZM207.99,48.05c0,1.21.05,2.13-.01,3.04-.06.86.3,1.14,1.11,1.23,2.06.24,4.1.58,6.16.85,1.91.25,1.91.23,1.83-1.65-.01-.3-.02-.61-.04-.91-.8-11.87-1.61-23.73-2.37-35.6-.06-.88-.45-1.09-1.17-1.19-2.81-.38-5.62-.73-8.41-1.22-1.05-.19-1.39.16-1.72,1.06-1.52,4.07-3.12,8.11-4.68,12.16-2.87,7.45-5.74,14.9-8.63,22.34-.35.91-.34,1.33.8,1.44,1.55.16,3.09.52,4.63.8q2.99.55,4.01-2.26c.15-.43.33-.85.49-1.27q1.18-3.21,4.64-2.57c1.08.2,2.54.04,3.15.68.71.74.14,2.22.23,3.06ZM26.03,136.2c-4.07-.29-7.04,1.74-8.88,5.61-1.48,3.1-1.76,6.34-1.52,9.76.23,3.26,3.17,6.85,6.81,7.7,6.5,1.51,13.02,2.94,19.56,4.26,5.45,1.11,9.66-.77,11.86-5.07,1.1-2.14,1.78-4.41,1.96-6.81.26-3.46-.22-6.69-3.16-9.05-2.76-2.22-6.07-2.87-9.46-3.32-.83-.11-.87.46-.98,1.02-.37,1.99-.69,3.99-1.13,5.96-.21.95.08,1.21.97,1.37,1.44.25,2.9.42,4.26,1.05,1.97.92,2.63,2.24,2.03,4.13-.58,1.81-1.6,2.33-3.83,1.88-1.79-.35-3.56-.74-5.35-1.11-4.61-.94-9.21-1.88-13.82-2.82-1.28-.26-2.36-.86-2.53-2.26-.17-1.43.26-2.72,1.6-3.52.82-.49,1.71-.58,2.64-.4.94.18,1.89.35,2.82.57.53.13.89.07,1.01-.54.42-2.19.83-4.37,1.26-6.55.14-.72-.07-1.09-.86-1.27-1.64-.37-3.27-.65-5.27-.61ZM231.27,44.95c-.1-.05-.2-.09-.29-.14.06-.55.1-1.1.19-1.65,1.26-7.53,2.5-15.07,3.48-22.64.12-.89-.05-1.38-.99-1.65-1.89-.54-3.76-1.19-5.63-1.79-1.98-.63-1.94-.62-2.13,1.4-.33,3.48-.72,6.94-1.08,10.42-.89,8.61-1.76,17.21-2.67,25.82-.08.75.09,1.07.83,1.3,2.65.83,5.29,1.7,7.91,2.63.9.32,1.36.11,1.81-.71,1.17-2.13,2.42-4.21,3.64-6.31,4.92-8.49,9.83-16.98,14.79-25.45.61-1.04.56-1.49-.7-1.82-1.9-.51-3.79-1.1-5.61-1.85-1.36-.56-1.9-.15-2.51,1.07-2.78,5.56-5.65,11.07-8.51,16.6-.83,1.6-1.69,3.18-2.53,4.77ZM51.03,203.35c-3.7.56-7.1,1.1-10.51,1.59-1.9.27-1.92.23-1.61,2.1.87,5.14,1.92,10.24,3.3,15.26,2.39,8.76,5.61,17.19,9.76,25.27.43.84.72,1.23,1.76.67,3.29-1.78,6.63-3.46,9.98-5.13.99-.49,1.14-1.01.63-2-5.85-11.49-9.59-23.67-11.83-36.34-.19-1.08-.4-1.95-1.49-1.42ZM113.43,43.41c-.46,0-.55-.4-.7-.68-.88-1.65-1.69-3.34-2.61-4.96-.52-.92-.35-1.36.6-1.83,2.85-1.42,5.64-2.96,8.48-4.41.73-.37.96-.71.51-1.48-.78-1.36-1.51-2.75-2.18-4.16-.38-.81-.72-.98-1.58-.53-5.52,2.86-11.07,5.67-16.64,8.44-.85.42-.91.8-.5,1.61,5.47,10.83,10.92,21.67,16.34,32.53.33.66.56.9,1.33.51,5.84-3.02,11.7-6,17.57-8.95.73-.37.8-.73.43-1.4-.78-1.42-1.53-2.85-2.22-4.32-.37-.78-.76-.84-1.51-.47-2.98,1.49-6,2.92-8.99,4.39-.8.4-1.29.41-1.73-.56-.96-2.12-2.05-4.18-3.16-6.22-.41-.75-.34-1.09.45-1.47,2.82-1.37,5.59-2.83,8.41-4.2.77-.38.92-.74.48-1.5-.82-1.39-1.59-2.82-2.29-4.28-.43-.89-.87-.83-1.64-.43-2.65,1.36-5.34,2.65-8.02,3.97-.27.13-.54.27-.82.41ZM31.97,191.18c0,.22,0,.44,0,.66,5.87,0,11.75-.03,17.62.02,1.05,0,1.56-.1,1.52-1.35-.07-2.07,0-4.15.14-6.23.07-1.15-.2-1.56-1.45-1.57-4.51-.04-9.01-.26-13.52-.32-1.26-.02-1.75-.32-1.69-1.72.13-2.88,0-5.77.06-8.66.01-.85-.23-1.14-1.1-1.12-1.57.04-3.14.02-4.71-.08-.96-.06-1.31.19-1.32,1.22-.01,3.04-.15,6.08-.22,9.11-.01.59.02,1.09-.85,1.05-1.77-.1-3.54-.13-5.31-.15-.9-.01-1.17-.39-1.15-1.31.06-3.29,0-6.59.04-9.88.01-.91-.2-1.24-1.16-1.24-1.62,0-3.24-.08-4.85-.25-1.09-.11-1.35.26-1.34,1.32.04,6.28.05,12.56-.05,18.84-.02,1.43.48,1.67,1.71,1.66,5.87-.04,11.75-.02,17.62-.02Zm13.12-22.39c-.52.21-1.54-.64-1.65.75-.19,2.42-.4,4.83-.63,7.25-.07.68.12,1.02.86,1.08,2.26.2,4.53.42,6.79.68.71.08,1.02-.15,1.09-.85.22-2.42.45-4.83.71-7.24.08-.74-.22-.97-.91-1.03-2.06-.18-4.12-.42-6.25-.64Zm12.47-27.05c.49.05.62-.27.75-.62.79-2.24,1.58-4.48,2.4-6.71.23-.63.01-.92-.58-1.12-2.11-.71-4.21-1.43-6.31-2.17-.65-.23-1.01-.1-1.25.59-.79,2.24-1.63,4.46-2.43,6.7-.12.34-.43.74.23.96,2.4.78,4.8,1.59,7.2,2.38Z"/>
    <path class="cls-1" d="m259.82,254.08c2.21,5.24,5.14,10.1,8.15,14.9,9.02,14.39,18.77,28.27,29.69,41.29.74.88.38,1.2-.26,1.77-16.6,14.75-35.49,25.59-56.33,33.13-.96.35-1.38.12-1.92-.69-7.4-11.01-13.22-22.85-18.41-35.02-1.78-4.19-3.49-8.41-5.24-12.61-.2-.49-.44-.97-.79-1.42-.08,3.09.49,6.09.99,9.09,2.5,14.84,6.31,29.36,10.76,43.73.28.91.19,1.28-.82,1.54-16.17,4.1-32.59,5.67-49.24,4.94-6.84-.3-13.62-1.07-20.37-2.21-1.02-.17-1.44-.56-1.58-1.59-1.49-10.86-2.42-21.75-2.16-32.72.18-7.71.95-15.37,1.69-23.03.55-5.79,1.82-11.51,1.56-17.37,0-.1,0-.2,0-.3,0-3.57-1.48-4.55-4.65-2.97-3.67,1.83-7.29,3.73-10.72,6-3.38,2.23-6.78,4.43-10.67,5.73-4.64,1.56-7.89.48-10.63-3.59-2.26-3.36-3.54-7.16-4.69-10.99-1.96-6.48-4.01-12.95-4.89-19.71-.33-2.52-.36-5.05-.17-7.58.15-2.08,2.04-3.8,4.13-3.9,1.77-.08,3.4.42,4.96,1.2,4.14,2.06,7.93,4.68,11.67,7.37,3.62,2.6,7.27,5.17,11.58,6.54.87.28,1.74.53,2.63.71,1.85.36,3.71-.58,4.48-2.3,1.77-3.94,2.28-8.1.79-12.13-1.44-3.91-4.45-7.08-10.73-5.77-4.35.91-8.61,2.33-13.05,2.78-6.69.66-13.24.24-19.47-2.65-2.67-1.24-4.69-3.02-5.96-5.76-2.06-4.43-2.97-9.12-3.51-13.91-.33-2.92-.6-5.83-.08-8.78.28-1.62.95-2.75,2.41-3.58,2.33-1.33,4.55-2.83,6.82-4.26,5.11-3.21,6.82-7.77,5.29-13.65-.87.36-1.24,1.23-1.78,1.9-2.95,3.64-6.81,5.23-11.43,5.29-1.49.02-2.5-.6-3.23-1.84-.52-.89-.94-1.82-1.03-2.83-.31-3.71-.08-7.38.89-10.99.56-2.08,1.81-3.65,3.57-4.93,11.74-8.56,24.73-14.78,38.02-20.46,10.42-4.45,20.8-9.03,31.67-12.25,3.07-.91,5.13-2.1,5.93-5.48.65-2.76,3.11-4.4,5.4-5.94,5.98-4.02,12.36-7.31,18.98-10.14,2.51-1.07,5.07-2.02,7.6-3.05.84-.34,1.69-.64,1.98-1.69,2.7-9.78,9-16.45,17.75-21.3,8.63-4.79,17.78-7.66,27.53-8.92,14.64-1.91,29.3-1.87,43.98-.67,9.55.78,18.99,2.23,28.3,4.54.8.2,1.32.55,1.77,1.24,13.64,20.67,22.33,43.25,26.26,67.68.04.24,0,.49,0,.83-18.75-5.66-37.7-9.88-57.08-12.27,2.7.94,5.4,1.86,8.09,2.83,17.19,6.14,33.66,13.86,49.63,22.69.7.39,1.01.81,1.07,1.62.49,7.14.52,14.28.11,21.42-.77,13.29-2.97,26.33-6.86,39.09-.48,1.57-.94,1.51-2.19.88-13.84-6.93-27.7-13.81-42.11-19.52-2.44-.97-4.86-2.01-7.4-2.71-.12-.2-.37-.27-.45-.12-.12.22.17.21.31.27,1.37,1.36,3.02,2.36,4.62,3.4,14.35,9.36,27.94,19.76,41.32,30.44.92.73,1.08,1.31.64,2.39-8.07,19.87-19.49,37.59-34.1,53.28-.93,1-1.37.47-2.04-.09-12.14-10.08-23.41-21.07-34.07-32.7-3.83-4.18-7.6-8.42-11.28-12.74-.46-.54-.96-1.02-1.45-1.54-.08-.08-.16-.17-.24-.25-.17.17-.08.31.05.44Zm-76.27-109.3c-1.76.03-3.14,1.08-3.53,2.71-.2.83-.29,1.7-.33,2.55-.21,4.38-.75,5.13-4.83,6.58-.72.26-1.43.51-1.9,1.18-.28.4-.47.89-.25,1.28.33.58.84.08,1.18-.06,1.54-.63,2.98-1.56,4.56-2,3.41-.95,6.9-1.53,10.42-1.93,3.27-.37,6.53-.72,9.8-1.09.49-.06,1.16,0,1.32-.54.15-.53-.46-.85-.81-1.18-2.48-2.36-5.29-4.22-8.45-5.55-2.34-.98-4.78-1.62-7.18-1.95Zm111.88-.05c.09-.03.18-.06.27-.09-.09-.04-.18-.1-.27-.1-.09,0-.19.05-.28.08.09.04.18.07.27.11Z"/>
    <path class="cls-2" d="m134.08,347.4c-2.65-.62-5.07-1.48-7.47-2.36-28.72-10.47-53.1-27.24-73.04-50.41-5.93-6.89-11.14-14.29-15.69-22.16-.46-.79-.44-1.11.39-1.59,3.2-1.85,6.35-3.77,9.49-5.72.89-.55,1.33-.57,1.96.46,18.68,30.44,44.79,52,77.95,65.1,1.79.71,3.6,1.36,5.44,1.9.9.27,1.19.68,1.2,1.59.03,4.36-.45,8.7-.22,13.19Z"/>
    <path class="cls-1" d="m48.66,107.6c-3.33-4.27-6.54-8.63-9.71-13.02-.67-.92-.72-1.61-.13-2.56,1.3-2.09,2.51-4.24,3.75-6.36.66.26.82.78,1.1,1.18,2.94,4.31,5.89,8.61,8.77,12.96.75,1.14,1.59,1.71,3.02,1.9,6.62.87,13.23,1.91,19.84,2.88.15.02.3,0,.5,0-.12-1.51-.8-2.41-2.29-2.9-3.75-1.21-6.73-3.67-9.58-6.28-3.15-2.87-6.26-5.77-9.36-8.68-4.54-4.26-5.13-9.8-1.6-14.91,1.7-2.45,3.76-4.55,6.41-5.93,1.06-.55,1.15-1.09.65-1.96-.61-1.06-.48-1.6.83-2,2.38-.74,2.38-.85,3.28,1.51.37.96.89,1.56,1.9,1.94,3.42,1.3,6.26,3.53,8.88,6.01,3.49,3.31,7.28,6.32,10.47,9.94,3.94,4.48,4.13,8.74.79,13.69-1.55,2.29-3.39,4.32-5.79,5.72-1.03.6-1.21,1.21-.68,2.15.58,1.02.34,1.74-.84,1.9-3.39.46-4.31,3.36-5.76,5.73-1.36,2.24-1.35,2.23-3.95,1.8-3.89-.64-7.78-1.27-12.05-1.96,1.52,1.99,2.21,4.14,4.35,5.25,1.79.93,3.47,2.08,5.23,3.09.67.39.98.7.47,1.5-1.24,1.97-2.42,3.98-3.57,6-.39.69-.71.77-1.41.37-10.43-6.13-20.86-12.25-31.32-18.34-.82-.48-.88-.87-.39-1.65,1.12-1.8,2.2-3.64,3.2-5.51.49-.91.9-1.06,1.84-.5,4.28,2.5,8.61,4.91,12.93,7.35.13.01.26.03.38.05-.05-.11-.11-.23-.16-.34Zm23.04-26.38c-.06-.06-.11-.13-.17-.19,0,.05-.02.09-.03.14l.22.02c-.25.6.14,1.08.33,1.57,1.12,2.92,2.28,5.83,3.43,8.74.59,1.5,1.52,2.1,2.68,1.77,1.18-.34,1.99-1.82,1.67-3.2-.36-1.57-1.21-2.89-2.32-4.02-1.77-1.81-3.75-3.37-5.81-4.83Zm-2.98,5.74c-.06-.57-.04-.83-.12-1.05-1.45-3.62-2.91-7.22-4.36-10.84-.21-.52-.59-.8-1.09-.97-1.27-.41-2.45-.27-3.3.81-.81,1.04-.96,2.17-.16,3.37,2.31,3.43,5.69,5.72,9.03,8.67Z"/>
    <path class="cls-2" d="m138.01,309.11c-.56,3.27-1.11,6.51-1.67,9.75-.03.2-.09.39-.12.59-.5,3.03-.51,3.05-3.5,2-18.13-6.39-33.99-16.46-48-29.53-9.94-9.28-18.58-19.62-25.69-31.23-.79-1.29-.56-1.85.63-2.54,3.19-1.86,6.35-3.77,9.47-5.74.96-.6,1.12.12,1.45.63,3.43,5.27,7.18,10.29,11.18,15.14,14.81,17.97,33.09,31.12,54.79,39.54.68.26,1.56.33,1.47,1.38Z"/>
    <path class="cls-1" d="m257.78,43.78c-.64.44-.89,1.12-1.24,1.71-3.66,6.19-7.32,12.37-10.92,18.59-.63,1.09-1.13,1.25-2.16.52-1.44-1.03-2.97-1.93-4.5-2.83-.66-.39-.81-.68-.38-1.4,6.2-10.44,12.38-20.9,18.54-31.37.36-.61.62-.75,1.28-.37,2.28,1.32,4.57,2.61,6.9,3.83.75.39.86.87.69,1.59-1.76,7.58-3.3,15.21-5.63,22.65,0,.03.06.08.12.15.72-.01.76-.7,1.01-1.12,3.5-5.87,7-11.73,10.44-17.63.53-.91.94-1.06,1.84-.47,1.56,1.03,3.2,1.95,4.83,2.86.67.37.8.69.38,1.39-6.21,10.5-12.39,21.01-18.55,31.54-.47.81-.82.92-1.62.4-2-1.29-4.04-2.51-6.11-3.68-.84-.48-1.06-.97-.83-1.94,1.81-7.68,3.68-15.34,5.77-22.95.13-.46.39-.91.15-1.46Z"/>
    <path class="cls-1" d="m96.59,56.48c4.79-1.48,7.56,1.19,10.09,4.22,1,1.2,1.65,2.66,2.18,4.14.96,2.69.81,5.23-.77,7.68-1.44,2.24-3.22,4.17-5.28,5.83-2.37,1.9-4.85,3.66-7.19,5.59-.95.78-1.46.81-2.25-.18-3.95-4.94-7.98-9.82-11.97-14.73-3.61-4.44-7.17-8.91-10.81-13.33-.59-.71-.56-1.07.14-1.67,3.76-3.24,7.62-6.36,11.62-9.28,2.69-1.96,5.77-2.2,8.73-.48,2.93,1.71,5.08,4.13,5.97,7.51.4,1.52.2,2.99-.46,4.7Zm4.03,12.9c.01-2.01-2.22-5.09-4.15-5.69-.69-.21-1.38-.18-2.07.07-1.12.4-2.01,1.13-2.92,1.85-.49.38-.42.67-.06,1.1,1.82,2.22,3.62,4.47,5.43,6.7.17.21.28.52.7.38,1.07-.37,3.07-3.2,3.08-4.41Zm-14.91-17.71c-1.7.06-2.66.87-3.67,1.65-.72.56-.79,1-.17,1.7,1.11,1.24,2.12,2.57,3.18,3.86q1.58,1.94,3.39.28c1.02-.93,1.88-1.97,1.23-3.42-.85-1.93-2.04-3.58-3.96-4.06Z"/>
    <path class="cls-1" d="m149.92,38.73c.07-2.03-.61-3.88-1.1-5.78-1.34-5.19-2.72-10.37-4.16-15.53-.27-.97-.07-1.33.86-1.56,1.76-.44,3.51-.94,5.26-1.47.77-.23,1.19-.11,1.42.75,3.14,11.82,6.41,23.62,9.36,35.49.22.89-.13,1.01-.81,1.19-2.25.57-4.51,1.13-6.73,1.83-1.03.32-1.53.07-2.06-.82-4.2-6.98-8.45-13.93-12.7-20.88-.25-.41-.36-.95-1.05-1.23,1.11,4.16,2.18,8.21,3.26,12.25,1.04,3.91,2.07,7.82,3.17,11.71.28.99.08,1.4-.97,1.64-1.72.38-3.42.9-5.09,1.48-1,.35-1.27.03-1.52-.9-2.85-10.75-5.87-21.46-8.53-32.26-.25-1.03-.51-2.06-.81-3.08-.18-.63.03-.94.64-1.1,2.59-.68,5.19-1.34,7.76-2.1.95-.28,1.14.41,1.49.91,4.23,6.06,8.18,12.31,11.88,18.71.15.25.3.51.44.76Z"/>
    <path class="cls-1" d="m178.16,18.83c0-2.02.05-4.05-.02-6.07-.03-.93.17-1.39,1.19-1.41,2.33-.03,4.66-.11,6.98-.23.89-.05.68.56.71,1.01.28,4.65.56,9.3.82,13.95.4,7.28.75,14.56,1.22,21.84.09,1.39-.28,1.84-1.64,1.84-2.07,0-4.15.09-6.22.27-.95.08-1.2-.17-1.24-1.11-.17-4.3-.48-8.6-.6-12.9-.04-1.46-.48-2-1.95-1.77-.94.15-1.92.09-2.88.11-1.95.06-1.88.05-1.76,2.07.28,4.29.47,8.59.72,12.89.05.78-.21,1.09-1,1.11-2.28.07-4.55.17-6.83.32-.85.06-1.13-.21-1.17-1.08-.27-6.12-.6-12.24-.91-18.36-.3-5.82-.57-11.63-.92-17.44-.07-1.21.17-1.73,1.49-1.72,1.97,0,3.95-.12,5.91-.33,1.19-.12,1.4.32,1.46,1.4.19,3.99.55,7.98.75,11.97.05,1.12.44,1.35,1.45,1.22,1.25-.16,2.53-.26,3.79-.24,1.03.02,1.13-.43,1.1-1.29-.06-2.02-.02-4.05-.02-6.08-.14,0-.28,0-.42,0Z"/>
    <path class="cls-2" d="m27.24,207.06c1.32-.28,1.07,1.02,1.19,1.78,1.08,7.01,2.76,13.87,4.88,20.63,2.42,7.73,5.43,15.22,8.86,22.55.5,1.08.32,1.57-.72,2.07-3.27,1.59-6.52,3.22-9.74,4.91-.93.49-1.25.22-1.67-.63-7.12-14.46-12.12-29.62-14.93-45.5-.12-.7-.12-1.44-.37-2.09-.61-1.53.16-1.87,1.46-2.1,3.58-.65,7.17-1.24,11.04-1.64Z"/>
    <path class="cls-1" d="m207.99,48.05c-.09-.85.49-2.32-.23-3.06-.62-.64-2.07-.48-3.15-.68q-3.46-.64-4.64,2.57c-.16.43-.33.85-.49,1.27q-1.02,2.82-4.01,2.26c-1.54-.28-3.07-.65-4.63-.8-1.15-.12-1.16-.54-.8-1.44,2.89-7.44,5.76-14.89,8.63-22.34,1.56-4.05,3.16-8.09,4.68-12.16.34-.9.67-1.25,1.72-1.06,2.79.5,5.6.84,8.41,1.22.72.1,1.12.3,1.17,1.19.76,11.87,1.57,23.73,2.37,35.6.02.3.03.61.04.91.08,1.88.07,1.9-1.83,1.65-2.06-.27-4.1-.61-6.16-.85-.81-.1-1.17-.38-1.11-1.23.07-.91.01-1.82.01-3.04Zm0-26.34c-1.68,3.79-2.77,7.75-3.87,11.71-.32,1.14-1.26,2.55-.65,3.4.49.69,2.13.55,3.26.78.1.02.2.03.3.06.7.18.98-.02.98-.81-.03-5.05-.01-10.1-.01-15.14Z"/>
    <path class="cls-1" d="m26.03,136.2c1.99-.04,3.63.24,5.27.61.79.18,1,.54.86,1.27-.43,2.18-.84,4.37-1.26,6.55-.12.61-.48.66-1.01.54-.93-.22-1.88-.39-2.82-.57-.93-.18-1.82-.09-2.64.4-1.34.79-1.77,2.09-1.6,3.52.17,1.4,1.25,2,2.53,2.26,4.61.94,9.21,1.88,13.82,2.82,1.78.37,3.56.75,5.35,1.11,2.23.44,3.25-.07,3.83-1.88.6-1.89-.05-3.21-2.03-4.13-1.35-.63-2.82-.8-4.26-1.05-.89-.15-1.18-.42-.97-1.37.44-1.97.76-3.97,1.13-5.96.1-.56.14-1.13.98-1.02,3.39.45,6.69,1.1,9.46,3.32,2.94,2.36,3.42,5.59,3.16,9.05-.18,2.39-.86,4.67-1.96,6.81-2.21,4.3-6.41,6.17-11.86,5.07-6.54-1.33-13.06-2.75-19.56-4.26-3.64-.85-6.58-4.43-6.81-7.7-.24-3.42.05-6.66,1.52-9.76,1.84-3.87,4.81-5.9,8.88-5.61Z"/>
    <path class="cls-1" d="m231.27,44.95c.85-1.59,1.71-3.17,2.53-4.77,2.85-5.52,5.73-11.04,8.51-16.6.61-1.22,1.15-1.63,2.51-1.07,1.81.75,3.71,1.35,5.61,1.85,1.25.33,1.31.78.7,1.82-4.95,8.47-9.86,16.96-14.79,25.45-1.22,2.1-2.47,4.18-3.64,6.31-.45.81-.91,1.03-1.81.71-2.62-.93-5.26-1.81-7.91-2.63-.74-.23-.91-.55-.83-1.3.91-8.6,1.78-17.21,2.67-25.82.36-3.47.74-6.94,1.08-10.42.19-2.02.16-2.03,2.13-1.4,1.88.6,3.74,1.25,5.63,1.79.94.27,1.1.75.99,1.65-.98,7.57-2.22,15.11-3.48,22.64-.09.54-.13,1.1-.19,1.65.1.05.2.09.29.14Z"/>
    <path class="cls-2" d="m51.03,203.35c1.09-.53,1.3.34,1.49,1.42,2.23,12.67,5.98,24.85,11.83,36.34.51,1,.36,1.51-.63,2-3.35,1.67-6.69,3.34-9.98,5.13-1.04.56-1.33.17-1.76-.67-4.15-8.08-7.37-16.51-9.76-25.27-1.37-5.03-2.43-10.13-3.3-15.26-.32-1.87-.3-1.83,1.61-2.1,3.41-.48,6.8-1.02,10.51-1.59Z"/>
    <path class="cls-1" d="m113.43,43.41c.28-.14.55-.27.82-.41,2.68-1.32,5.37-2.61,8.02-3.97.77-.4,1.22-.46,1.64.43.7,1.46,1.47,2.88,2.29,4.28.45.76.3,1.12-.48,1.5-2.82,1.37-5.59,2.83-8.41,4.2-.79.38-.86.72-.45,1.47,1.11,2.04,2.19,4.11,3.16,6.22.44.98.93.96,1.73.56,2.99-1.48,6.01-2.9,8.99-4.39.74-.37,1.14-.31,1.51.47.69,1.46,1.44,2.9,2.22,4.32.37.68.31,1.03-.43,1.4-5.87,2.96-11.73,5.93-17.57,8.95-.77.4-1,.15-1.33-.51-5.43-10.85-10.87-21.7-16.34-32.53-.41-.81-.35-1.18.5-1.61,5.56-2.78,11.11-5.59,16.64-8.44.86-.45,1.2-.27,1.58.53.67,1.42,1.4,2.81,2.18,4.16.45.78.22,1.11-.51,1.48-2.84,1.45-5.63,2.99-8.48,4.41-.94.47-1.12.91-.6,1.83.92,1.63,1.74,3.31,2.61,4.96.15.28.24.69.7.68Z"/>
    <path class="cls-1" d="m31.97,191.18c-5.87,0-11.75-.02-17.62.02-1.24,0-1.74-.23-1.71-1.66.11-6.28.09-12.56.05-18.84,0-1.06.25-1.43,1.34-1.32,1.61.16,3.23.25,4.85.25.95,0,1.17.33,1.16,1.24-.05,3.29.02,6.59-.04,9.88-.02.91.25,1.29,1.15,1.31,1.77.03,3.54.06,5.31.15.87.05.83-.45.85-1.05.07-3.04.21-6.08.22-9.11,0-1.03.35-1.28,1.32-1.22,1.57.1,3.14.12,4.71.08.86-.02,1.11.27,1.1,1.12-.05,2.89.07,5.78-.06,8.66-.06,1.39.43,1.7,1.69,1.72,4.51.07,9.01.28,13.52.32,1.25.01,1.52.42,1.45,1.57-.13,2.07-.21,4.15-.14,6.23.04,1.24-.47,1.35-1.52,1.35-5.87-.05-11.75-.02-17.62-.02,0-.22,0-.44,0-.66Z"/>
    <path class="cls-1" d="m45.09,168.79c2.13.22,4.19.46,6.25.64.69.06.99.29.91,1.03-.26,2.41-.49,4.83-.71,7.24-.06.71-.38.93-1.09.85-2.26-.26-4.52-.49-6.79-.68-.74-.06-.92-.4-.86-1.08.23-2.41.44-4.83.63-7.25.11-1.39,1.13-.54,1.65-.75Z"/>
    <path class="cls-1" d="m57.55,141.74c-2.4-.8-4.79-1.6-7.2-2.38-.66-.21-.36-.62-.23-.96.8-2.24,1.65-4.46,2.43-6.7.24-.69.6-.82,1.25-.59,2.1.74,4.2,1.46,6.31,2.17.59.2.8.49.58,1.12-.82,2.23-1.6,4.47-2.4,6.71-.13.35-.26.68-.75.62Z"/>
    <path class="cls-4" d="m183.56,144.78c2.41.32,4.84.96,7.18,1.95,3.15,1.33,5.97,3.19,8.45,5.55.36.34.96.65.81,1.18-.15.55-.83.49-1.32.54-3.27.37-6.53.71-9.8,1.09-3.52.4-7.02.98-10.42,1.93-1.58.44-3.03,1.37-4.56,2-.34.14-.86.64-1.18.06-.22-.39-.03-.89.25-1.28.47-.66,1.18-.92,1.9-1.18,4.09-1.45,4.62-2.2,4.83-6.58.04-.86.14-1.72.33-2.55.39-1.63,1.77-2.68,3.53-2.71Z"/>
    <path class="cls-4" d="m295.43,144.73c-.09-.04-.18-.08-.27-.11.09-.03.19-.09.28-.08.09,0,.18.07.27.1-.09.03-.18.06-.28.09Z"/>
    <path class="cls-4" d="m296.38,211.44c-.14-.06-.43-.05-.31-.27.08-.15.34-.08.45.12-.05.05-.09.1-.14.15Z"/>
    <path class="cls-4" d="m259.82,254.08c-.12-.14-.22-.28-.05-.44.08.08.16.17.24.25-.06.07-.13.13-.2.19Z"/>
    <path class="cls-4" d="m68.72,86.95c-3.34-2.95-6.73-5.24-9.03-8.67-.8-1.2-.65-2.33.16-3.37.85-1.08,2.03-1.22,3.3-.81.5.16.88.44,1.09.97,1.45,3.62,2.91,7.22,4.36,10.84.09.22.06.47.12,1.05Z"/>
    <path class="cls-4" d="m71.7,81.21c2.06,1.46,4.04,3.02,5.81,4.83,1.11,1.14,1.96,2.45,2.32,4.02.31,1.38-.49,2.86-1.67,3.2-1.16.33-2.08-.27-2.68-1.77-1.15-2.91-2.31-5.82-3.43-8.74-.19-.49-.59-.97-.33-1.57l-.02.03Z"/>
    <path class="cls-4" d="m71.72,81.18l-.22-.02s.02-.09.03-.14c.06.06.11.13.17.19,0,0,.02-.03.02-.03Z"/>
    <path class="cls-4" d="m48.66,107.6c.05.11.11.23.16.34-.13-.02-.26-.03-.38-.05.07-.1.15-.2.22-.3Z"/>
    <path class="cls-4" d="m100.62,69.38c0,1.21-2.01,4.04-3.08,4.41-.42.14-.53-.17-.7-.38-1.81-2.23-3.61-4.48-5.43-6.7-.35-.43-.42-.72.06-1.1.91-.72,1.8-1.45,2.92-1.85.7-.25,1.39-.28,2.07-.07,1.94.6,4.16,3.68,4.15,5.69Z"/>
    <path class="cls-4" d="m85.71,51.67c1.92.48,3.11,2.14,3.96,4.06.64,1.45-.21,2.49-1.23,3.42q-1.81,1.66-3.39-.28c-1.05-1.29-2.07-2.61-3.18-3.86-.63-.71-.56-1.14.17-1.7,1.01-.78,1.97-1.59,3.67-1.65Z"/>
    <path class="cls-4" d="m207.98,21.71c0,5.05-.01,10.1.01,15.14,0,.78-.28.99-.98.81-.1-.03-.2-.04-.3-.06-1.13-.23-2.77-.09-3.26-.78-.61-.85.33-2.26.65-3.4,1.1-3.96,2.19-7.93,3.87-11.71Z"/>
  </g>
</svg>