<?xml version="1.0" encoding="UTF-8"?>
<svg xmlns="http://www.w3.org/2000/svg" viewBox="0 0 1920 1080">
  <defs>
    <style>
      .cls-1, .cls-2, .cls-3, .cls-4, .cls-5, .cls-6, .cls-7, .cls-8, .cls-9, .cls-10, .cls-11, .cls-12, .cls-13, .cls-14, .cls-15, .cls-16, .cls-17, .cls-18, .cls-19 {
        stroke-width: 0px;
      }

      .cls-1, .cls-20 {
        fill: none;
      }

      .cls-21 {
        letter-spacing: -.01em;
      }

      .cls-22, .cls-23, .cls-24, .cls-20 {
        stroke-miterlimit: 10;
        stroke-width: .5px;
      }

      .cls-22, .cls-23, .cls-25, .cls-18 {
        fill: #fff;
      }

      .cls-22, .cls-24, .cls-20 {
        stroke: #000;
      }

      .cls-23 {
        stroke: #0000f9;
      }

      .cls-26 {
        letter-spacing: -.02em;
      }

      .cls-27 {
        letter-spacing: 0em;
      }

      .cls-25 {
        font-family: Modak, Modak;
        font-size: 137.47px;
      }

      .cls-3 {
        fill: #f7e4bd;
      }

      .cls-4 {
        fill: #6d6d6d;
      }

      .cls-5 {
        fill: #6eae2a;
      }

      .cls-6 {
        fill: #262424;
      }

      .cls-7 {
        fill: #3e3e3e;
      }

      .cls-8 {
        fill: #375195;
      }

      .cls-9 {
        fill: #375197;
      }

      .cls-10 {
        fill: #42210b;
      }

      .cls-11 {
        fill: #e27e81;
      }

      .cls-12 {
        fill: #da0000;
      }

      .cls-13 {
        fill: #b0151b;
      }

      .cls-14 {
        fill: #d00000;
      }

      .cls-15 {
        fill: #b7b7b7;
      }

      .cls-16 {
        fill: #bd2328;
      }

      .cls-17 {
        fill: #7fc2fe;
      }

      .cls-19 {
        fill: #fcfcfc;
      }

      .cls-28 {
        letter-spacing: 0em;
      }
    </style>
  </defs>
  <g id="Layer_1" data-name="Layer 1">
    <path class="cls-5" d="m-2-1.71c640-2.86,1280-5.73,1920-8.59.67,369.43,1.33,738.87,2,1108.3-640.67-6.44-1281.33-12.89-1922-19.33V-1.71Z"/>
    <path class="cls-18" d="m0,73.62v28.3c5.03.17,47.6.85,76-33.92C99.34,39.41,96.91,6.71,96.26,0h-28.3c.74,2.76,7.62,30.16-10.96,53-13.54,16.64-35.45,24.52-57,20.62Z"/>
    <path class="cls-18" d="m76.93,1073.85l28.3-.56c.07-5.03-.09-47.61-35.43-75.31-29.05-22.77-61.7-19.68-68.39-18.91l.56,28.3c2.75-.8,30.01-8.22,53.21,9.91,16.91,13.21,25.22,34.95,21.75,56.58Z"/>
    <path class="cls-18" d="m1920,1002.98l-.17-28.3c-5.03-.14-47.6-.57-75.8,34.37-23.18,28.72-20.55,61.41-19.87,68.12,9.43-.06,18.87-.11,28.3-.17-.76-2.76-7.8-30.12,10.65-53.06,13.44-16.72,35.3-24.73,56.88-20.96Z"/>
    <path class="cls-18" d="m1840.81,3.38l-28.29.96c0,5.03.77,47.6,36.49,74.8,29.37,22.36,61.97,18.81,68.65,17.94-.32-9.43-.64-18.86-.96-28.29-2.74.84-29.89,8.64-53.34-9.15-17.09-12.97-25.72-34.59-22.55-56.26Z"/>
    <path class="cls-18" d="m1.41,850.98h432.05c8.02,1.39,16.03-1.71,20.54-7.98,5.31-7.39,3.32-15.77,3-17-.12-188.65-.24-377.29-.36-565.94-.24-2.15-1.08-6.8-4.64-11.06-6.43-7.68-16.21-7.5-17.55-7.45H-2l.15,30.19c132.62.09,265.23.18,397.85.26,2.22-.54,9.69-2.04,17,2,8.28,4.58,13.02,14.43,12,25v482c.46,1.68,3.04,11.78-3,21-5.56,8.48-16.2,12.83-27,11-131.2.08-262.4.16-393.59.25v37.74Z"/>
    <path class="cls-18" d="m1919.64,243.99l-432.05-1.9c-8.02-1.43-16.04,1.64-20.58,7.89-5.35,7.37-3.38,15.75-3.07,16.99-.71,188.65-1.42,377.29-2.13,565.94.23,2.15,1.05,6.81,4.59,11.08,6.39,7.71,16.18,7.57,17.52,7.53,145.48.64,290.96,1.28,436.45,1.92l-.02-30.19c-132.61-.67-265.23-1.34-397.84-2.02-2.22.53-9.7,2-16.99-2.07-8.26-4.62-12.96-14.49-11.89-25.05.71-160.67,1.41-321.33,2.12-482-.45-1.69-2.99-11.79,3.09-20.99,5.6-8.46,16.25-12.76,27.05-10.88,131.2.5,262.39.99,393.59,1.49l.17-37.74Z"/>
    <path class="cls-18" d="m3.31,756.09h215.63c4,.96,8-1.17,10.25-5.48,2.65-5.07,1.65-10.82,1.5-11.66-.06-129.42-.12-258.83-.18-388.25-.12-1.48-.54-4.67-2.32-7.59-3.21-5.27-8.09-5.14-8.76-5.11H1.61l.08,20.71c66.19.06,132.37.12,198.56.18,1.11-.37,4.83-1.4,8.48,1.37,4.13,3.14,6.5,9.9,5.99,17.15v330.66c.23,1.15,1.52,8.08-1.5,14.41-2.77,5.82-8.08,8.8-13.48,7.55-65.48.06-130.95.11-196.43.17v25.89Z"/>
    <path class="cls-18" d="m1921.67,335.43l-215.62-1.96c-4-.99-8.01,1.1-10.3,5.38-2.7,5.04-1.75,10.8-1.6,11.65-1.12,129.41-2.23,258.82-3.35,388.23.11,1.48.5,4.67,2.25,7.61,3.16,5.3,8.04,5.22,8.71,5.19,72.6.66,145.21,1.32,217.81,1.98l.11-20.71c-66.18-.66-132.36-1.32-198.55-1.99-1.11.36-4.85,1.36-8.47-1.45-4.11-3.18-6.41-9.96-5.83-17.2,1-110.22,2-220.43,3.01-330.65-.22-1.16-1.44-8.1,1.63-14.39,2.83-5.79,8.16-8.73,13.54-7.42,65.48.54,130.95,1.08,196.43,1.62l.24-25.89Z"/>
    <circle class="cls-18" cx="332.5" cy="537.5" r="22.5"/>
    <circle class="cls-18" cx="1599.5" cy="537.5" r="22.5"/>
    <rect class="cls-18" x="955" y="3" width="31" height="1077"/>
  </g>
  <g id="Layer_3" data-name="Layer 3">
    <rect class="cls-18" x="-2" y="-1" width="15" height="1077"/>
    <rect class="cls-18" x="1905" y="3" width="15" height="1077"/>
    <rect class="cls-18" x="953.5" y="-953.5" width="15" height="1922" transform="translate(968.5 -953.5) rotate(90)"/>
    <rect class="cls-18" x="951.5" y="111.5" width="15" height="1922" transform="translate(2031.5 113.5) rotate(90)"/>
  </g>
  <g id="Layer_2" data-name="Layer 2">
    <path class="cls-18" d="m976,335v-5c117.06,4.93,210.66,100.9,213,216,2.41,118.05-91.93,219.36-212,225-2.96-.72-6.79-1.98-7-4-.64-6.21,34.06-9.93,72-27,37.11-16.69,60.44-38.56,68-46,9.33-9.18,26.38-26.25,40-54,4.25-8.67,17.88-38.16,19-79,1-36.46-8.48-63.48-13-76-1.72-4.76-9.3-25.21-25-49-5.15-7.81-16.96-24.74-36-43-17.65-16.93-30.74-29.49-52-38-5.22-2.09-16.48-5.39-39-12-11.77-3.45-21.49-6.19-28-8Z"/>
    <path class="cls-18" d="m959,765.78v5c-117.06-4.93-210.66-100.9-213-216-2.41-118.05,91.93-219.36,212-225,2.96.72,6.79,1.98,7,4,.64,6.21-34.06,9.93-72,27-37.11,16.69-60.44,38.56-68,46-9.33,9.18-26.38,26.25-40,54-4.25,8.67-17.88,38.16-19,79-1,36.46,8.48,63.48,13,76,1.72,4.76,9.3,25.21,25,49,5.15,7.81,16.96,24.74,36,43,17.65,16.93,30.74,29.49,52,38,5.22,2.09,16.48,5.39,39,12,11.77,3.45,21.49,6.19,28,8Z"/>
    <path class="cls-18" d="m1487.33,719.84v4.13c-52.93-4.07-95.25-83.28-96.31-178.27-1.09-97.43,41.57-181.04,95.86-185.7,1.34.6,3.07,1.64,3.17,3.3.29,5.13-15.4,8.2-32.56,22.28-16.78,13.78-27.33,31.82-30.75,37.96-4.22,7.58-11.93,21.67-18.09,44.57-1.92,7.15-8.09,31.49-8.59,65.2-.45,30.09,3.83,52.39,5.88,62.72.78,3.93,4.2,20.8,11.3,40.44,2.33,6.45,7.67,20.42,16.28,35.49,7.98,13.98,13.9,24.34,23.51,31.36,2.36,1.72,7.45,4.45,17.63,9.9,5.32,2.85,9.72,5.11,12.66,6.6Z"/>
    <path class="cls-18" d="m430,369.61v-4.13c52.93,4.07,95.25,83.28,96.31,178.27,1.09,97.43-41.57,181.04-95.86,185.7-1.34-.6-3.07-1.64-3.17-3.3-.29-5.13,15.4-8.2,32.56-22.28,16.78-13.78,27.33-31.82,30.75-37.96,4.22-7.58,11.93-21.67,18.09-44.57,1.92-7.15,8.09-31.49,8.59-65.2.45-30.09-3.83-52.39-5.88-62.72-.78-3.93-4.2-20.8-11.3-40.44-2.33-6.45-7.67-20.42-16.28-35.49-7.98-13.98-13.9-24.34-23.51-31.36-2.36-1.72-7.45-4.45-17.63-9.9-5.32-2.85-9.72-5.11-12.66-6.6Z"/>
  </g>
  <g id="Layer_4" data-name="Layer 4">
    <g>
      <path class="cls-3" d="m122.72,730.93c-.98-.2-13.87-3.08-18.79-15.45-3.69-9.29-4.04-24.5,5.88-27.53l2.61-.8"/>
      <path class="cls-3" d="m158.78,691.08c-5.48,3.02-17.25-4.29-21.08-14.36-4.3-11.32,3.01-22.03,3.84-23.21,2.15.72,15.08,5.24,19.4,17.74,2.33,6.74,2.64,17.18-2.16,19.82Z"/>
      <ellipse class="cls-11" cx="277.15" cy="641.18" rx="171.58" ry="170.21"/>
      <path class="cls-8" d="m378.32,777.89l2.13,46.96c3.86.6,9.91,1.06,17.01-.48,5.24-1.13,12.11-2.62,14.36-6.15,6.76-10.66-27.12-42.28-28.71-43.75"/>
      <path class="cls-8" d="m215.63,876.33c-.42,5.01-.48,12.18,1.37,20.51,2.01,9.07,5.49,16.01,8.2,20.51,3.5,3.21,8.93,7.47,16.41,10.94,7.56,3.5,14.4,4.88,19.14,5.47-.97,9.3-1.38,20.93,0,34.18,1.55,14.88,4.9,27.37,8.2,36.91.49.75,4.12,6.11,10.94,6.84,5.49.58,10.94-2.07,14.14-6.84,2.15-10.01,4-21.47,5-34.18,1.21-15.36.93-29.19,0-41.02.94-.95,5.3-5.18,12.3-5.47,6.67-.27,11.21,3.21,12.3,4.1-.36,8.97,0,20.73,2.73,34.18,2.76,13.58,7.06,24.65,10.94,32.81.71.64,6.08,5.3,13.67,4.1,6.71-1.06,10.29-5.93,10.94-6.84,1.77-9.93,3.15-22.46,2.73-36.91-.41-14.28-2.47-26.58-4.77-36.32,4.27-3.59,10.74-9.97,15.71-19.74,6.7-13.16,7.06-25.36,6.84-31.36"/>
      <path class="cls-18" d="m378.32,779.94l2.13,46.12,1.97,42.58c-13.83,7.98-42.1,21.88-80.66,24.09-40.51,2.32-71.49-9.44-86.13-16.11-1.4-25.96-2.8-51.92-4.2-77.88,16.99,5.17,46.67,11.86,83.5,8.06,38.93-4.02,67.78-17.9,83.4-26.86Z"/>
      <path class="cls-20" d="m276.93,591.54s12.52-7.79,12.52-37.87-.22-60.33-6.26-73.91c-6.04-13.59-8.78-21.2-8.78-21.2"/>
      <path class="cls-10" d="m432.33,513.35c12.4,22.73,37.64,76.3,34.86,148.34-2.96,76.64-35.95,130.55-50.59,151.76l-8.2-203.71-38.28,1.37-4.1-36.91-21.87,38.28-91.79,7.56,44.57-56.31"/>
      <g>
        <path class="cls-8" d="m240.24,835.32c.43-2.34,1.5-5.82,4.44-8.03,2.91-2.18,6.21-2.03,13.33-1.54,7.23.49,13.29.98,17.77,1.37.82.58,3.05,2.31,4.1,5.47,1.42,4.28-.39,7.92-.75,8.6-2.3.97-6.35,2.35-11.55,2.34-5.18,0-9.21-1.37-11.5-2.34.5.65,1.76,2.44,1.93,5.08.18,2.77-.94,4.78-1.37,5.47.9-.49,2.85-1.38,5.47-1.37,2.58,0,4.5.88,5.4,1.37.59,1.35,1.42,3.74,1.44,6.84.01,3.08-.8,5.48-1.37,6.84-1.16.57-3.62,1.58-6.84,1.37-2.25-.15-4-.84-5.05-1.37.82,1.53,2.4,4.96,2.32,9.57-.09,4.68-1.84,8.08-2.73,9.57-.57.39-2.03,1.3-4.1,1.37-2.36.08-4.04-.99-4.59-1.37-2.02-10.17-3.75-21.13-4.98-32.81-.6-5.63-1.04-11.1-1.37-16.41Z"/>
        <path class="cls-8" d="m305.86,829.85c.4.27,2.22,1.59,2.73,4.1.6,2.96-1.12,5.17-1.37,5.47-1.94-.04-4.89.14-8.2,1.37-5.08,1.88-8.18,5.15-9.57,6.84-1.01,1.81-2.54,5.16-2.73,9.57-.31,6.97,2.92,12,4.1,13.67,1.89.56,4.19,1.08,6.84,1.37,3.18.34,5.98.24,8.2,0,.4.15,3.32,1.31,4.1,4.1.84,2.98-1.08,6.68-4.87,8.2-2.57.46-6.65.88-11.54,0-4.96-.89-8.69-2.75-10.94-4.1-1.8-2.47-7.15-10.46-6.84-21.87.35-12.87,7.66-21.2,9.57-23.24,1.36-1.35,4.56-4.14,9.57-5.47,4.97-1.31,9.09-.49,10.94,0Z"/>
        <path class="cls-8" d="m316.8,828.48c.42,7.04,1.25,14.84,2.73,23.24,1.82,10.29,4.27,19.45,6.84,27.34.12.21,1.42,2.47,4.1,2.73,2.26.22,3.82-1.14,4.07-1.37.71-2.79,1.38-6.52,1.4-10.94.02-4.61-.67-8.48-1.4-11.34,1.45,2.26,4.04,5.65,8.24,8.6,3.07,2.16,6.01,3.39,8.2,4.1,1.49,1.53,3.65,2.06,5.47,1.37,1.84-.7,2.59-2.38,2.73-2.73-1.23-2.89-3.31-6.9-6.84-10.94-4.43-5.07-9.2-7.99-12.3-9.57,2.55-2.97,5.56-7.05,8.2-12.3,2.09-4.16,3.43-8.03,4.31-11.26-.63-2.04-2.32-3.53-4.31-3.78-2.25-.28-3.86,1.14-4.1,1.37-2.18,2.6-4.55,5.78-6.84,9.57-2.39,3.95-4.16,7.69-5.47,10.94-1.42-2.63-2.88-5.83-4.1-9.57-.76-2.35-1.32-4.57-1.72-6.59-.83-2.05-2.95-3.28-5.11-2.98-2.11.29-3.8,1.97-4.1,4.1Z"/>
      </g>
      <path class="cls-3" d="m412.41,818.28c-1.46-5.79-4.44-14.67-10.84-23.98-6.63-9.64-14.15-15.71-19.14-19.14,5.3,3.74,12.68,9.86,19.14,19.14,7.99,11.48,11.07,22.77,13.67,36.91,3.02,16.39,6.11,40.47,5.47,71.09-.15.48-2.19,6.51-8.2,8.2-4.99,1.4-10.57-.77-13.67-5.47-2.92-6.63-5.72-13.93-8.2-21.87-6.93-22.18-9.21-42.43-9.57-58.79,3.47.69,9.35,1.4,16.41,0,6.92-1.37,12.01-4.18,14.94-6.1Z"/>
      <path class="cls-3" d="m208.79,797.03c-6.01,6.04-14.41,15.95-20.51,30.08-6.31,14.61-7.21,26.85-8.2,42.38-.84,13.03-.89,31.37,2.73,53.32-.22,6.81,4.63,12.66,10.94,13.67,6.93,1.11,13.91-3.91,15.04-11.36.76-7.4,1.66-15.01,2.73-22.82,1.23-8.97,2.61-17.64,4.1-25.98"/>
      <path class="cls-12" d="m203.96,697.68c-.42-.11-.95-.22-2-.45-9.62-2.06-16.25-3.39-20.51,0-.16.13-.74.6-1.37,1.37-4.28,5.24-3.25,14.97,1.37,20.51,4.54,5.45,11.4,5.46,21.87,5.47,5.79,0,14.31.01,17.77-5.47,1.18-1.87,1.34-3.69,1.37-4.1.51-7.46-9.2-14.88-18.51-17.32Z"/>
      <path class="cls-12" d="m345.51,699.41c.42-.11.94-.22,1.99-.45,9.59-2.06,16.19-3.39,20.43,0,.16.13.74.6,1.36,1.37,4.26,5.24,3.24,14.97-1.36,20.51-4.53,5.45-11.36,5.46-21.79,5.47-5.77,0-14.25.01-17.71-5.47-1.18-1.87-1.33-3.69-1.36-4.1-.51-7.46,9.16-14.88,18.44-17.32Z"/>
      <path class="cls-1" d="m324.04,946.27c3.39,1.39,11.37,4.11,21.47,2.52,8.99-1.42,15.22-5.55,18.12-7.77"/>
      <path class="cls-1" d="m298.08,980.47c-1.4,2.16-3.7,5.16-7.21,8-3.59,2.9-7.09,4.52-9.52,5.43-2.68-.79-6.71-2.33-10.88-5.43-3.75-2.79-6.23-5.82-7.75-8l-2.65-29.63c2.52,1.8,9.11,6,18.56,6.39,10.35.43,17.77-3.96,20.3-5.62"/>
      <path class="cls-20" d="m328.32,970.77c2.31,2.05,5.74,4.64,10.36,6.73,3.4,1.54,6.52,2.39,9.04,2.89,2.34-.74,6.23-2.29,10.1-5.62,3.66-3.15,5.74-6.55,6.84-8.69"/>
      <path class="cls-3" d="m260.06,950.84c2.54,1.92,8.94,6.22,18.23,6.96,10.7.85,18.54-3.54,21.15-5.16.39,4.22.57,9.14.27,14.6-.3,5.55-1.04,10.48-1.91,14.68-3.12,7.93-10.2,13.21-17.66,13.19-10.86-.03-16.57-11.25-17.35-12.84-1.95-3.99-2.23-8.12-2.73-16.41-.38-6.23-.22-11.41,0-15.04Z"/>
      <path class="cls-3" d="m363.34,941.27c-2.78,2.17-8.75,6.23-17.46,7.72-10.37,1.77-18.57-1.14-21.83-2.5.17,4.08.63,8.79,1.64,13.93.76,3.85,1.71,7.33,2.7,10.42,4.34,6.84,12.29,10.51,20.26,9.41,7.87-1.08,14.4-6.6,16.68-14.07.29-3.59.39-7.84,0-12.59-.38-4.7-1.15-8.84-2-12.3Z"/>
      <circle class="cls-24" cx="330.47" cy="695.86" r="20.51"/>
      <circle class="cls-24" cx="223.83" cy="695.86" r="20.51"/>
      <circle class="cls-22" cx="217.68" cy="688.34" r="6.15"/>
      <circle class="cls-22" cx="322.95" cy="688.34" r="6.15"/>
      <circle class="cls-22" cx="229.99" cy="702.02" r="10.25"/>
      <circle class="cls-22" cx="335.26" cy="702.02" r="10.25"/>
      <path class="cls-20" d="m205.58,689.05c-3.51.81-7.35.12-10.36-1.86s-5.17-5.22-5.83-8.76"/>
      <path class="cls-20" d="m207.87,683.37c-.55.41-1.3.41-1.98.33-4.11-.49-7.84-3.41-9.32-7.27"/>
      <path class="cls-20" d="m212.23,680.61c-3.48-.98-6.81-3.33-8.27-5.83"/>
      <path class="cls-20" d="m340.73,682.44c4.27.81,8.92.12,12.58-1.86,3.66-1.98,6.28-5.22,7.08-8.76"/>
      <path class="cls-20" d="m337.99,677.95c.67.41,1.59.41,2.42.33,5.03-.49,9.6-3.41,11.41-7.27"/>
      <path class="cls-20" d="m334.74,677.73c4-.49,7.67-3.29,9.12-6.95"/>
      <path class="cls-8" d="m211.53,794.3c-5.57,4.44-15.54,13.67-21.87,28.71-3.83,9.09-5.08,17.35-5.47,23.24,2.73,1.19,8.1,3.11,15.04,2.73,7.76-.42,13.36-3.47,15.91-5.08-1.2-16.54-2.4-33.07-3.61-49.61Z"/>
      <path class="cls-10" d="m161.33,692.45l9.19,151.07c-12.31-21.02-25.48-47.06-36.91-77.93-10.7-28.89-17.48-55.49-21.85-78.28"/>
      <path class="cls-8" d="m116.51,581.7l-86.82,54s21.87,19.14,38.28,27.34c16.41,8.2,56.05,35.55,73.83,32.81,17.77-2.73,8.2,2.73,31.44-9.57,23.24-12.3,45.12-32.81,45.12-32.81l28.71-27.34,29.86-34.59"/>
      <path class="cls-23" d="m116.51,581.7s76.56,32.81,140.82,13.67c0,0,73.83-12.3,120.31-36.91,46.48-24.61,54.69-45.12,54.69-45.12,0,0-45.12-57.42-73.83-66.99,0,0-49.22-10.94-98.44-4.1-49.22,6.84-83.4,39.65-83.4,39.65,0,0-57.42,64.26-60.16,99.8Z"/>
      <path class="cls-8" d="m276.93,591.27s35.01-43.33-11.09-149.74c0,0,52.33-5.42,92.66,4.81,40.33,10.24,73.83,66.87,73.83,66.87-3.7,5.15-7.79,10.22-12.3,15.17-44.04,48.25-106.43,59.84-143.09,62.89Z"/>
      <g>
        <path class="cls-19" d="m187.69,515.17c-1.04-.6-2.08-1.19-3.11-1.8-.23-.13-.32-.1-.44.12-.24.46-.5.91-.77,1.35-.12.19-.1.29.09.4,2.51,1.49,5.02,2.99,7.52,4.49.17.1.24.08.34-.09.28-.5.56-.99.86-1.47.12-.2.05-.27-.11-.37-.42-.25-.83-.53-1.26-.76-.51-.27-.68-.8-1.04-1.29,1.03.17,1.96.32,2.9.48.62.11.62.11.95-.44.35-.58.57-1.29,1.38-1.4.28-.04.34-.21.2-.46-.13-.23-.08-.38.16-.53.58-.34,1.02-.84,1.39-1.4.8-1.21.76-2.25-.19-3.35-.76-.89-1.68-1.62-2.51-2.43-.63-.61-1.31-1.15-2.13-1.47-.24-.09-.37-.24-.46-.47-.22-.58-.22-.55-.79-.37-.31.1-.35.23-.2.49.12.21.1.35-.16.48-.64.34-1.13.85-1.54,1.45-.85,1.25-.71,2.61.38,3.65.75.71,1.49,1.42,2.25,2.13.69.64,1.4,1.24,2.3,1.54.36.12.52.34.55.71-.05,0-.09,0-.12,0-1.59-.24-3.17-.49-4.77-.7-.34-.05-.54-.19-.72-.46-.69-1.07-1.4-2.12-2.11-3.17-.07-.1-.11-.23-.26-.29-.3.52-.59,1.05-.9,1.56-.14.23-.13.4.03.63.76,1.08,1.53,2.14,2.33,3.19-.02.02-.04.05-.05.07Zm50.83,35.76c.12.13.24.24.35.38.88,1.06,1.79,2.1,2.71,3.12,2.56,2.85,5.27,5.54,8.19,8.01.16.14.27.27.49.02,3.51-3.84,6.25-8.18,8.19-13.05.11-.26.07-.41-.15-.58-3.21-2.62-6.48-5.16-9.93-7.46-.38-.26-.78-.5-1.11-.83.01-.01.02-.03.03-.04.61.17,1.19.43,1.78.66,3.47,1.4,6.81,3.09,10.15,4.79.28.14.38.15.48-.2.93-3.12,1.47-6.32,1.66-9.57.1-1.76.09-3.52-.02-5.28-.01-.2-.09-.3-.26-.4-4.1-2.31-8.34-4.31-12.78-5.86-.36-.13-.72-.26-1.08-.38,4.65.59,9.21,1.62,13.71,3,0-.09,0-.15,0-.21-.94-5.98-3.03-11.51-6.31-16.58-.11-.17-.23-.25-.43-.3-2.24-.57-4.5-.92-6.8-1.11-3.53-.29-7.05-.3-10.57.16-2.34.31-4.54,1.01-6.61,2.19-2.1,1.19-3.62,2.82-4.26,5.22-.07.26-.27.33-.48.41-.61.25-1.22.48-1.83.75-1.59.69-3.12,1.5-4.56,2.48-.55.38-1.14.78-1.3,1.46-.19.83-.69,1.12-1.42,1.34-2.61.79-5.11,1.91-7.61,3-3.19,1.39-6.31,2.91-9.13,5.01-.42.31-.72.7-.86,1.21-.23.88-.29,1.78-.21,2.69.02.25.12.48.25.69.17.31.42.46.78.45,1.11-.01,2.04-.4,2.75-1.3.13-.16.22-.38.43-.47.37,1.44-.04,2.56-1.27,3.34-.55.35-1.08.72-1.64,1.04-.36.2-.51.48-.58.88-.13.72-.06,1.43.02,2.15.13,1.17.35,2.32.84,3.41.31.67.79,1.1,1.43,1.41,1.5.71,3.07.81,4.68.65,1.07-.11,2.09-.46,3.14-.68,1.51-.32,2.23.46,2.58,1.41.36.99.24,2.01-.19,2.97-.19.42-.63.65-1.08.56-.21-.04-.42-.11-.63-.17-1.04-.34-1.91-.97-2.78-1.6-.9-.66-1.81-1.3-2.8-1.8-.37-.19-.77-.31-1.19-.29-.5.02-.95.44-.99.95-.05.62-.04,1.24.04,1.86.21,1.65.71,3.24,1.18,4.83.28.94.58,1.87,1.13,2.69.66.99,1.44,1.26,2.55.88.93-.32,1.75-.86,2.56-1.4.82-.56,1.69-1.02,2.58-1.47.76-.39,1.12-.15,1.12.73,0,.02,0,.05,0,.07.06,1.44-.24,2.84-.37,4.25-.18,1.88-.36,3.75-.4,5.64-.06,2.69.16,5.35.52,8.01.03.25.14.35.38.39,1.62.28,3.25.47,4.89.54,4,.18,7.95-.2,11.83-1.21.24-.06.26-.15.2-.38-1.07-3.52-1.98-7.07-2.58-10.71-.12-.73-.26-1.47-.24-2.22.08.11.14.23.19.35.42,1.03.83,2.06,1.26,3.09,1.25,2.98,2.65,5.88,4.42,8.58.13.2.23.25.46.17,5.01-1.85,9.55-4.5,13.53-8.11.15-.14.24-.22.06-.43-2.63-3.19-4.97-6.59-7.13-10.11-.72-1.18-1.43-2.36-1.96-3.65.02-.02.03-.03.05-.05Zm-30.26,22.91c-.05-1.1.06-2.17.05-3.23,0-.22-.07-.32-.29-.39-.44-.13-.88-.29-1.31-.47-7.97-3.21-14.24-8.49-18.73-15.94-.15-.25-.26-.25-.47-.11-.75.48-1.51.95-2.28,1.4-.2.12-.2.2-.09.39,1.1,1.94,2.36,3.76,3.79,5.46,4.78,5.65,10.61,9.75,17.49,12.3.59.22,1.18.43,1.83.6Zm.94-9.36c.03-.27-.18-.29-.34-.36-5.23-2.06-9.63-5.29-13.19-9.71-.95-1.18-1.85-2.4-2.66-3.68-.08-.12-.11-.32-.34-.17-.76.49-1.53.96-2.31,1.42-.28.17-.31.31-.13.6,4.11,6.62,9.59,11.6,16.78,14.54.45.18.9.36,1.37.49.1.03.27.14.31-.1.17-1.01.34-2.03.51-3.04Zm28.77-65.09c.05.22,0,.34-.03.46-.5,1.86-.95,3.74-1.39,5.62-.05.22,0,.34.19.45.34.19.67.4,1,.61q.73.44,1.15-.29c1.38-2.38,2.75-4.77,4.13-7.14.14-.25.11-.35-.12-.47-.37-.19-.73-.41-1.07-.64-.23-.16-.33-.12-.47.12-.83,1.45-1.67,2.88-2.51,4.32-.06.1-.08.26-.26.26.54-1.86.94-3.73,1.35-5.6.04-.19-.02-.29-.19-.38-.55-.3-1.09-.6-1.62-.92-.17-.1-.24-.06-.33.1-.31.56-.64,1.11-.96,1.67-1.14,1.96-2.27,3.93-3.42,5.89-.16.28-.12.39.14.53.35.19.69.42,1.02.65.21.15.31.12.44-.11.64-1.13,1.29-2.25,1.94-3.37.32-.55.64-1.1,1.01-1.73Zm-38.74,3.21c.19-.43.22-.79.13-1.16-.2-.82-.71-1.4-1.4-1.82-.74-.45-1.51-.38-2.19.14-.92.71-1.8,1.47-2.7,2.21-.19.16-.21.26-.04.46.92,1.14,1.82,2.29,2.74,3.44.92,1.15,1.85,2.3,2.76,3.46.15.19.25.19.43.04.59-.48,1.2-.93,1.78-1.42.54-.45,1.01-.96,1.36-1.59.17-.3.26-.61.24-.96-.05-.9-.45-1.63-1.08-2.25-.54-.53-1.15-.88-2.03-.55Zm10.03-6.29s.04-.02.07-.03c.06.09.11.18.17.28,1.02,1.7,2.04,3.41,3.05,5.12.14.23.26.3.52.21.52-.17,1.05-.3,1.58-.44.17-.04.26-.08.21-.32-.71-2.9-1.49-5.77-2.24-8.66-.06-.23-.16-.26-.36-.2-.41.13-.81.25-1.23.35-.24.06-.28.16-.22.41.43,1.6.84,3.21,1.26,4.81.03.13.1.25.03.39-.09-.03-.1-.11-.13-.17-.89-1.58-1.85-3.12-2.87-4.62-.12-.17-.21-.25-.44-.18-.56.18-1.12.33-1.69.46-.23.06-.28.14-.22.38.27,1,.5,2.02.77,3.02.48,1.85.98,3.71,1.46,5.56.05.21.12.28.34.2.41-.14.83-.27,1.26-.37.23-.06.29-.14.22-.38-.17-.58-.31-1.17-.47-1.76-.36-1.36-.71-2.72-1.07-4.09Zm6.05-.56c.11,2.17.18,3.66.24,5.14,0,.22.07.3.3.29.5-.04,1-.07,1.49-.07.3,0,.39-.09.37-.41-.08-1.08-.12-2.15-.19-3.23-.01-.23.04-.31.27-.31.29,0,.59.01.87-.03.34-.05.44.08.45.41.04,1.07.1,2.13.15,3.2,0,.17.02.28.24.26.5-.04,1-.03,1.49-.08.53-.04.47.07.44-.5-.09-1.72-.18-3.44-.28-5.16-.06-1.18-.13-2.35-.2-3.53,0-.12.05-.28-.19-.27-.53.03-1.07.05-1.6.05-.29,0-.36.12-.34.4.05.97.07,1.93.11,2.9,0,.22,0,.35-.28.34-.3-.01-.61.02-.91.06-.26.04-.32-.07-.33-.32-.05-.98-.14-1.95-.18-2.93-.01-.29-.1-.35-.37-.33-.47.04-.95.08-1.42.08-.29,0-.36.12-.34.4.09,1.44.15,2.87.19,3.62Zm-32.66,43.7c-1.03.12-1.94.26-2.84.44-.24.05-.29.13-.24.36.17.84.31,1.68.49,2.51.71,3.23,1.79,6.32,3.22,9.29.1.2.18.24.38.14.79-.42,1.57-.83,2.37-1.22.25-.12.26-.25.15-.48-.73-1.59-1.38-3.22-1.93-4.89-.61-1.86-1.08-3.75-1.38-5.69-.03-.18.04-.5-.23-.46Zm43.38-38.86s0,0-.01,0c0,.22,0,.45,0,.67-.01.18.05.27.24.29.52.06,1.04.13,1.55.22.33.06.43-.03.41-.39-.21-2.99-.4-5.98-.59-8.98-.01-.23-.12-.26-.29-.28-.67-.1-1.35-.18-2.02-.3-.23-.04-.32.02-.4.23-.42,1.15-.86,2.29-1.3,3.43-.64,1.69-1.27,3.37-1.91,5.06-.09.24-.05.32.2.35.39.04.76.15,1.15.2.85.1.62.24.91-.53.04-.1.08-.21.11-.31q.29-.81,1.13-.65c.26.05.63-.02.75.17.13.2.05.55.07.83Zm-43.73,21.51c-.98-.07-1.69.43-2.13,1.37-.36.76-.42,1.55-.37,2.39.06.8.76,1.68,1.64,1.89,1.56.37,3.13.72,4.7,1.04,1.31.27,2.32-.19,2.85-1.24.26-.52.42-1.08.47-1.67.08-1-.14-1.87-1.06-2.43-.6-.37-1.26-.5-1.94-.59-.17-.02-.24.05-.27.21-.09.51-.18,1.02-.28,1.53-.04.19.01.25.2.29.36.07.72.1,1.06.26.47.23.63.55.49,1.01-.14.44-.38.57-.92.46-.43-.09-.86-.18-1.28-.27-1.11-.23-2.21-.46-3.32-.69-.31-.06-.57-.21-.61-.55-.04-.35.06-.67.38-.86.2-.12.41-.14.63-.1.23.04.45.09.68.14.13.03.22.02.24-.13.1-.54.2-1.07.3-1.6.03-.18-.02-.27-.21-.31-.39-.09-.79-.16-1.26-.15Zm49.26-22.35c-.04-.15,0-.3.02-.44.3-1.84.6-3.69.83-5.55.03-.23-.03-.33-.25-.4-.48-.14-.96-.28-1.42-.46-.33-.13-.41-.03-.44.3-.1,1.11-.22,2.22-.33,3.33-.19,1.87-.37,3.75-.57,5.62-.02.19.04.26.21.31.63.2,1.25.41,1.87.64.25.09.36.02.49-.2.45-.81.91-1.61,1.37-2.41,1.01-1.77,2.01-3.54,3.02-5.3.18-.3.12-.4-.2-.48-.47-.12-.93-.29-1.38-.46-.24-.09-.35-.05-.47.19-.84,1.68-1.69,3.35-2.54,5.02-.05.1-.08.23-.2.3Zm-46.2,39.47c.03.2.06.39.09.59.56,3.35,1.56,6.56,3.09,9.6.12.24.22.25.44.13.76-.41,1.53-.81,2.3-1.2.28-.14.37-.26.2-.59-.6-1.16-1.08-2.38-1.5-3.62-.57-1.7-1.01-3.44-1.31-5.21-.04-.26-.09-.41-.42-.35-.89.16-1.78.27-2.67.39-.18.02-.23.11-.21.27Zm19.52-42.95c-.03-.06-.05-.1-.07-.14-.19-.36-.38-.72-.55-1.09-.09-.19-.17-.18-.33-.1-1.34.7-2.68,1.4-4.03,2.08-.18.09-.22.17-.12.37.33.64.64,1.28.95,1.92.99,2,1.97,4.01,2.96,6.01.06.13.07.32.32.19,1.41-.75,2.83-1.48,4.25-2.21.16-.08.19-.16.1-.31-.19-.35-.37-.7-.53-1.06-.09-.2-.18-.24-.38-.13-.71.37-1.44.71-2.16,1.08-.21.11-.31.06-.41-.16-.23-.51-.48-1-.74-1.49-.13-.23-.05-.31.14-.41.66-.33,1.3-.67,1.96-.99.19-.09.26-.18.13-.39-.2-.34-.38-.69-.55-1.05-.09-.2-.19-.2-.37-.11-.66.34-1.33.67-1.99,1.01-.17.09-.25.06-.34-.11-.19-.4-.39-.8-.61-1.19-.13-.24-.11-.35.14-.48.68-.34,1.34-.71,2-1.07.09-.05.22-.06.22-.2Zm-21.17,39.29c0,.05,0,.11,0,.16,1.41,0,2.82-.01,4.23,0,.31,0,.39-.09.38-.39-.01-.5,0-.99.03-1.49.02-.27-.05-.36-.33-.36-1.11-.01-2.21-.06-3.32-.09-.26,0-.36-.08-.35-.36.02-.72,0-1.44.01-2.16,0-.23-.06-.3-.29-.29-.36.01-.73.01-1.09-.02-.26-.02-.33.06-.33.32,0,.73-.04,1.46-.05,2.19,0,.2-.05.29-.26.27-.4-.03-.8-.03-1.2-.04-.24,0-.3-.11-.29-.34.01-.81,0-1.61,0-2.42,0-.21-.06-.28-.26-.28-.39,0-.78-.02-1.17-.06-.28-.03-.34.07-.34.34,0,1.53,0,3.05-.01,4.58,0,.32.07.43.39.42,1.41-.02,2.82,0,4.23,0Zm3.12-5.49c-.12.03-.32-.11-.34.14-.06.63-.11,1.26-.16,1.89-.01.16.08.19.2.2.54.05,1.09.11,1.63.17.16.02.25-.01.27-.2.05-.59.11-1.18.17-1.77.02-.17-.03-.25-.21-.26-.52-.05-1.04-.11-1.56-.16Zm3.83-8.51c0-.13-.09-.15-.16-.17-.5-.18-1.01-.35-1.51-.53-.19-.07-.26,0-.31.18-.18.53-.37,1.05-.57,1.57-.07.18-.03.26.15.32.51.16,1.02.32,1.53.5.2.07.25,0,.3-.18.16-.51.35-1,.52-1.51.02-.06.04-.12.06-.17Z"/>
        <path class="cls-8" d="m247.26,540.53c.33.33.73.58,1.11.83,3.45,2.29,6.71,4.84,9.93,7.46.22.18.26.32.15.58-1.94,4.87-4.68,9.21-8.19,13.05-.22.24-.33.11-.49-.02-2.92-2.47-5.62-5.16-8.19-8.01-.92-1.02-1.83-2.06-2.71-3.12-.11-.13-.23-.25-.35-.38-.02-.02-.04-.04-.06-.06-.04.04-.02.08.01.11.53,1.28,1.23,2.47,1.96,3.65,2.17,3.53,4.51,6.92,7.13,10.11.18.21.09.29-.06.43-3.99,3.61-8.53,6.27-13.53,8.11-.23.09-.33.03-.46-.17-1.78-2.7-3.18-5.6-4.42-8.58-.43-1.03-.84-2.06-1.26-3.09-.05-.12-.1-.24-.19-.35-.02.76.12,1.49.24,2.22.6,3.63,1.52,7.19,2.58,10.71.07.22.05.31-.2.38-3.89,1-7.83,1.39-11.83,1.21-1.64-.07-3.27-.26-4.89-.54-.24-.04-.35-.14-.38-.39-.36-2.66-.58-5.33-.52-8.01.04-1.89.23-3.76.4-5.64.13-1.42.44-2.82.37-4.25,0-.02,0-.05,0-.07,0-.87-.35-1.12-1.12-.73-.88.45-1.75.91-2.58,1.47-.81.55-1.63,1.08-2.56,1.4-1.11.38-1.9.12-2.55-.88-.54-.82-.85-1.75-1.13-2.69-.47-1.59-.96-3.17-1.18-4.83-.08-.62-.09-1.24-.04-1.86.04-.51.49-.93.99-.95.43-.02.82.1,1.19.29.99.5,1.9,1.15,2.8,1.8.87.64,1.75,1.27,2.78,1.6.21.07.42.13.63.17.44.09.89-.14,1.08-.56.43-.97.55-1.98.19-2.97-.35-.96-1.07-1.73-2.58-1.41-1.05.22-2.07.57-3.14.68-1.61.16-3.18.06-4.68-.65-.64-.3-1.13-.74-1.43-1.41-.5-1.09-.71-2.23-.84-3.41-.08-.72-.15-1.43-.02-2.15.07-.39.22-.67.58-.88.56-.32,1.09-.69,1.64-1.04,1.23-.79,1.64-1.9,1.27-3.34-.21.09-.3.3-.43.47-.71.89-1.64,1.28-2.75,1.3-.36,0-.6-.15-.78-.45-.12-.22-.23-.45-.25-.69-.08-.91-.02-1.81.21-2.69.13-.51.43-.89.86-1.21,2.82-2.1,5.94-3.62,9.13-5.01,2.5-1.09,5-2.21,7.61-3,.74-.22,1.23-.51,1.42-1.34.16-.68.75-1.08,1.3-1.46,1.44-.99,2.97-1.79,4.56-2.48.6-.26,1.22-.5,1.83-.75.2-.08.41-.16.48-.41.65-2.4,2.16-4.03,4.26-5.22,2.07-1.17,4.27-1.88,6.61-2.19,3.52-.47,7.04-.46,10.57-.16,2.29.19,4.56.55,6.8,1.11.19.05.32.14.43.3,3.28,5.06,5.36,10.59,6.31,16.58,0,.06,0,.12,0,.21-4.5-1.39-9.06-2.42-13.71-3,.36.13.72.26,1.08.38,4.44,1.55,8.68,3.55,12.78,5.86.17.09.24.2.26.4.12,1.76.12,3.52.02,5.28-.19,3.26-.72,6.45-1.66,9.57-.1.35-.21.34-.48.2-3.34-1.7-6.68-3.39-10.15-4.79-.59-.24-1.17-.49-1.78-.66-.03-.05-.09-.07-.11-.03-.03.05.04.05.08.07Zm-27.08-16.33c-.41-.02-.77.24-.87.65-.05.21-.08.44-.09.66-.05,1.05-.19,1.25-1.14,1.59-.18.07-.37.13-.48.31-.06.1-.1.22-.04.31.07.11.18,0,.26-.02.37-.16.72-.38,1.1-.49.81-.23,1.64-.37,2.47-.47.82-.1,1.64-.19,2.46-.28.1-.01.21-.01.26-.11.05-.1-.04-.16-.1-.22-1.07-1.06-2.34-1.7-3.82-1.92Zm26.92-.03s-.04-.03-.07-.03c-.02,0-.04.01-.07.02.02,0,.04.03.06.03.02,0,.04-.01.07-.02Z"/>
        <path class="cls-16" d="m208.27,573.83c-.65-.16-1.24-.38-1.83-.6-6.88-2.56-12.71-6.65-17.49-12.3-1.43-1.69-2.69-3.52-3.79-5.46-.11-.19-.1-.27.09-.39.77-.45,1.53-.92,2.28-1.4.21-.13.32-.14.47.11,4.49,7.45,10.76,12.74,18.73,15.94.43.17.86.33,1.31.47.22.06.29.17.29.39,0,1.07-.11,2.13-.05,3.23Z"/>
        <path class="cls-8" d="m187.75,515.1c-.8-1.05-1.57-2.11-2.33-3.19-.16-.23-.17-.39-.03-.63.31-.51.6-1.04.9-1.56.16.06.2.19.26.29.71,1.06,1.42,2.11,2.11,3.17.18.28.38.42.72.46,1.59.21,3.18.47,4.77.7.04,0,.07,0,.12,0-.03-.37-.19-.59-.55-.71-.9-.3-1.62-.9-2.3-1.54-.76-.7-1.5-1.41-2.25-2.13-1.09-1.04-1.23-2.4-.38-3.65.41-.6.9-1.11,1.54-1.45.25-.13.28-.27.16-.48-.15-.26-.12-.39.2-.49.57-.18.57-.21.79.37.09.24.21.38.46.47.82.32,1.5.86,2.13,1.47.84.81,1.75,1.55,2.51,2.43.95,1.1.99,2.14.19,3.35-.37.56-.81,1.06-1.39,1.4-.25.15-.29.3-.16.53.14.25.08.43-.2.46-.81.11-1.04.82-1.38,1.4-.33.55-.32.55-.95.44-.93-.16-1.87-.31-2.9-.48.36.49.53,1.01,1.04,1.29.43.23.83.51,1.26.76.16.09.23.17.11.37-.3.48-.58.97-.86,1.47-.09.17-.17.19-.34.09-2.5-1.5-5.01-3-7.52-4.49-.2-.12-.21-.21-.09-.4.27-.44.53-.89.77-1.35.12-.22.22-.26.44-.12,1.03.61,2.07,1.2,3.11,1.8.03,0,.06,0,.09.01-.01-.03-.03-.06-.04-.08Zm5.53-6.46s-.03-.03-.04-.05c0,.01,0,.02,0,.03.02,0,.03,0,.05,0-.06.15.03.26.08.39.27.72.55,1.43.82,2.14.14.37.36.51.64.43.28-.08.48-.45.4-.78-.09-.38-.29-.71-.56-.99-.43-.44-.9-.83-1.4-1.18Zm-.72,1.4c-.02-.14,0-.2-.03-.26-.35-.89-.7-1.77-1.05-2.65-.05-.13-.14-.2-.26-.24-.3-.1-.59-.07-.79.2-.19.25-.23.53-.04.82.55.84,1.37,1.4,2.17,2.12Z"/>
        <path class="cls-16" d="m209.21,564.47c-.17,1.01-.34,2.02-.51,3.04-.04.24-.21.13-.31.1-.47-.13-.92-.3-1.37-.49-7.19-2.93-12.67-7.91-16.78-14.54-.18-.29-.15-.43.13-.6.78-.46,1.55-.94,2.31-1.42.24-.15.27.05.34.17.82,1.28,1.71,2.5,2.66,3.68,3.56,4.41,7.96,7.64,13.19,9.71.16.06.38.09.34.36Z"/>
        <path class="cls-8" d="m237.98,499.39c-.36.63-.69,1.18-1.01,1.73-.65,1.12-1.3,2.24-1.94,3.37-.13.23-.23.26-.44.11-.33-.23-.67-.46-1.02-.65-.26-.14-.3-.25-.14-.53,1.15-1.96,2.28-3.92,3.42-5.89.32-.55.65-1.11.96-1.67.09-.16.16-.2.33-.1.53.32,1.08.63,1.62.92.17.09.23.19.19.38-.42,1.87-.82,3.74-1.35,5.6.18,0,.2-.16.26-.26.84-1.44,1.68-2.87,2.51-4.32.14-.24.24-.28.47-.12.34.24.7.45,1.07.64.24.13.27.23.12.47-1.39,2.38-2.76,4.76-4.13,7.14q-.42.73-1.15.29c-.33-.2-.66-.42-1-.61-.2-.11-.24-.23-.19-.45.43-1.88.88-3.76,1.39-5.62.03-.12.09-.23.03-.46Z"/>
        <path class="cls-8" d="m199.24,502.6c.88-.32,1.49.02,2.03.55.63.61,1.03,1.34,1.08,2.25.02.34-.07.66-.24.96-.35.62-.82,1.14-1.36,1.59-.59.48-1.2.93-1.78,1.42-.18.15-.29.14-.43-.04-.92-1.16-1.84-2.31-2.76-3.46-.91-1.14-1.81-2.3-2.74-3.44-.17-.2-.15-.31.04-.46.9-.73,1.78-1.5,2.7-2.21.68-.52,1.44-.59,2.19-.14.69.42,1.2,1.01,1.4,1.82.09.37.06.73-.13,1.16Zm.99,3.12c0-.48-.57-1.25-1.02-1.38-.14-.04-.29-.04-.43,0-.29.1-.53.29-.77.49-.1.09-.08.15,0,.24.44.55.88,1.11,1.33,1.67.04.05.09.14.17.06.29-.33.76-.53.72-1.09Zm-2.58-3.14c-.03-.22-.16-.43-.3-.63-.51-.69-1.04-.71-1.64-.09-.1.11-.13.18-.03.31.36.44.71.88,1.06,1.32.04.05.08.12.18.09.24-.07.73-.71.74-1Z"/>
        <path class="cls-8" d="m209.27,496.31c.36,1.36.71,2.72,1.07,4.09.15.59.3,1.17.47,1.76.07.24,0,.32-.22.38-.42.1-.85.23-1.26.37-.22.07-.29,0-.34-.2-.48-1.86-.98-3.71-1.46-5.56-.26-1.01-.5-2.02-.77-3.02-.06-.24-.02-.33.22-.38.57-.14,1.13-.28,1.69-.46.23-.07.32,0,.44.18,1.02,1.5,1.98,3.04,2.87,4.62.03.06.05.14.13.17.07-.14,0-.26-.03-.39-.42-1.6-.83-3.21-1.26-4.81-.07-.24-.02-.35.22-.41.41-.1.82-.22,1.23-.35.2-.06.3-.03.36.2.75,2.88,1.53,5.76,2.24,8.66.06.24-.03.27-.21.32-.53.14-1.06.27-1.58.44-.26.09-.39.02-.52-.21-1.01-1.71-2.03-3.41-3.05-5.12-.06-.09-.11-.18-.17-.28-.02.01-.04.02-.07.03Z"/>
        <path class="cls-8" d="m215.32,495.75c-.04-.75-.11-2.19-.19-3.62-.02-.28.05-.4.34-.4.47,0,.95-.04,1.42-.08.26-.02.35.03.37.33.04.98.13,1.95.18,2.93.01.25.07.35.33.32.3-.04.61-.07.91-.06.27,0,.29-.12.28-.34-.04-.97-.06-1.93-.11-2.9-.01-.28.05-.4.34-.4.54,0,1.07-.02,1.6-.05.24-.01.18.15.19.27.07,1.18.14,2.35.2,3.53.09,1.72.19,3.44.28,5.16.03.57.09.45-.44.5-.5.04-1,.04-1.49.08-.22.02-.23-.09-.24-.26-.05-1.07-.11-2.13-.15-3.2-.01-.33-.11-.46-.45-.41-.29.04-.58.04-.87.03-.23,0-.29.08-.27.31.07,1.08.11,2.15.19,3.23.02.31-.07.41-.37.41-.5,0-1,.03-1.49.07-.23.02-.29-.06-.3-.29-.06-1.49-.14-2.97-.24-5.14Z"/>
        <path class="cls-16" d="m182.66,539.45c.27-.05.2.27.23.46.29,1.94.77,3.83,1.38,5.69.55,1.67,1.2,3.3,1.93,4.89.11.24.1.36-.15.48-.8.39-1.59.8-2.37,1.22-.2.1-.28.07-.38-.14-1.43-2.97-2.52-6.06-3.22-9.29-.18-.83-.32-1.68-.49-2.51-.05-.23,0-.31.24-.36.91-.19,1.82-.33,2.84-.44Z"/>
        <path class="cls-8" d="m226.04,500.6c-.01-.28.06-.63-.07-.83-.12-.19-.49-.12-.75-.17q-.84-.16-1.13.65c-.04.1-.08.21-.11.31-.29.78-.06.63-.91.53-.39-.05-.76-.16-1.15-.2-.26-.03-.3-.11-.2-.35.64-1.68,1.28-3.37,1.91-5.06.43-1.14.87-2.28,1.3-3.43.08-.21.17-.27.4-.23.67.12,1.35.2,2.02.3.17.02.28.06.29.28.19,2.99.38,5.99.59,8.98.03.36-.07.45-.41.39-.51-.09-1.03-.16-1.55-.22-.19-.02-.25-.11-.24-.29.01-.22,0-.45,0-.67,0,0,0,0,.01,0Zm-.02-6.54c-.46,1.12-.76,2.27-1.08,3.42-.08.27-.04.38.26.38.2,0,.4.07.61.11.14.03.23.02.23-.17,0-1.25,0-2.5,0-3.75Z"/>
        <path class="cls-8" d="m182.31,522.1c.48,0,.87.06,1.26.15.19.04.24.14.21.31-.1.53-.2,1.07-.3,1.6-.03.15-.12.16-.24.13-.22-.05-.45-.09-.68-.14-.22-.04-.44-.02-.63.1-.32.2-.43.51-.38.86.04.34.3.49.61.55,1.11.23,2.21.46,3.32.69.43.09.86.19,1.28.27.54.11.78-.02.92-.46.14-.46-.01-.79-.49-1.01-.34-.16-.7-.2-1.06-.26-.19-.04-.24-.1-.2-.29.1-.51.19-1.02.28-1.53.03-.16.1-.23.27-.21.68.1,1.34.23,1.94.59.91.56,1.14,1.43,1.06,2.43-.05.59-.21,1.14-.47,1.67-.53,1.05-1.54,1.51-2.85,1.24-1.57-.32-3.14-.67-4.7-1.04-.88-.21-1.58-1.09-1.64-1.89-.06-.84.01-1.63.37-2.39.44-.95,1.16-1.44,2.13-1.37Z"/>
        <path class="cls-8" d="m231.57,499.75c.13-.07.15-.2.2-.3.85-1.67,1.71-3.34,2.54-5.02.12-.24.23-.28.47-.19.45.17.91.34,1.38.46.32.09.37.18.2.48-1.02,1.76-2.02,3.53-3.02,5.3-.46.8-.92,1.6-1.37,2.41-.12.22-.24.3-.49.2-.62-.23-1.24-.44-1.87-.64-.17-.05-.23-.12-.21-.31.2-1.87.38-3.75.57-5.62.11-1.11.23-2.22.33-3.33.03-.33.1-.43.44-.3.46.18.94.32,1.42.46.22.06.27.17.25.4-.24,1.86-.53,3.7-.83,5.55-.02.14-.07.28-.02.44Z"/>
        <path class="cls-16" d="m185.37,539.22c-.02-.16.03-.25.21-.27.89-.12,1.78-.23,2.67-.39.34-.06.38.09.42.35.3,1.77.74,3.51,1.31,5.21.42,1.24.9,2.46,1.5,3.62.17.33.08.45-.2.59-.77.39-1.54.79-2.3,1.2-.22.12-.32.11-.44-.13-1.53-3.03-2.52-6.24-3.09-9.6-.03-.2-.06-.39-.09-.59Z"/>
        <path class="cls-8" d="m204.89,496.28c0,.14-.14.15-.22.2-.66.36-1.33.73-2,1.07-.25.13-.28.24-.14.48.22.39.41.79.61,1.19.08.17.17.19.34.11.66-.35,1.33-.67,1.99-1.01.17-.09.27-.09.37.11.17.36.35.71.55,1.05.13.21.05.3-.13.39-.65.33-1.3.67-1.96.99-.19.1-.27.18-.14.41.27.48.51.98.74,1.49.1.22.2.26.41.16.72-.37,1.44-.71,2.16-1.08.2-.11.29-.07.38.13.16.36.35.71.53,1.06.08.16.05.23-.1.31-1.42.73-2.84,1.46-4.25,2.21-.25.13-.26-.07-.32-.19-.99-2-1.97-4.01-2.96-6.01-.32-.64-.63-1.29-.95-1.92-.1-.19-.06-.27.12-.37,1.35-.69,2.69-1.38,4.03-2.08.16-.08.25-.09.33.1.17.37.37.73.55,1.09.02.04.04.09.07.14Z"/>
        <path class="cls-8" d="m183.72,535.57c-1.41,0-2.82,0-4.23,0-.33,0-.4-.11-.39-.42.02-1.53.02-3.05.01-4.58,0-.27.05-.38.34-.34.39.04.78.06,1.17.06.21,0,.26.07.26.28-.01.81,0,1.61,0,2.42,0,.23.06.34.29.34.4,0,.8,0,1.2.04.22.01.26-.07.26-.27,0-.73.05-1.46.05-2.19,0-.26.08-.34.33-.32.36.03.73.03,1.09.02.22,0,.29.06.29.29-.01.72,0,1.44-.01,2.16,0,.29.09.36.35.36,1.11.02,2.21.07,3.32.09.28,0,.35.09.33.36-.03.49-.05.99-.03,1.49,0,.3-.07.39-.38.39-1.41-.02-2.82,0-4.23,0,0-.05,0-.11,0-.16Z"/>
        <path class="cls-8" d="m186.84,530.08c.52.06,1.04.12,1.56.16.18.02.23.09.21.26-.06.59-.12,1.18-.17,1.77-.02.18-.11.22-.27.2-.54-.06-1.09-.11-1.63-.17-.12-.01-.21-.04-.2-.2.06-.63.1-1.26.16-1.89.02-.25.22-.11.34-.14Z"/>
        <path class="cls-8" d="m190.66,521.57s-.04.11-.06.17c-.18.5-.36,1-.52,1.51-.06.17-.11.25-.3.18-.5-.18-1.02-.34-1.53-.5-.18-.05-.22-.13-.15-.32.2-.52.39-1.04.57-1.57.06-.17.13-.25.31-.18.5.18,1.01.35,1.51.53.07.03.17.04.16.17Z"/>
        <path class="cls-19" d="m220.18,524.21c1.48.22,2.75.86,3.82,1.92.06.06.15.12.1.22-.05.1-.16.1-.26.11-.82.09-1.64.18-2.46.28-.83.1-1.66.24-2.47.47-.38.11-.73.33-1.1.49-.08.03-.19.13-.26.02-.06-.09-.02-.21.04-.31.11-.18.3-.24.48-.31.95-.34,1.09-.54,1.14-1.59.01-.22.03-.45.09-.66.1-.41.47-.67.87-.64Z"/>
        <path class="cls-19" d="m247.1,524.17s-.05.02-.07.02c-.02,0-.04-.02-.06-.03.02,0,.05-.02.07-.02.02,0,.04.02.07.03Z"/>
        <path class="cls-19" d="m247.26,540.53s-.1-.01-.08-.07c.02-.04.08-.02.11.03-.01.01-.02.02-.03.04Z"/>
        <path class="cls-19" d="m238.48,550.97s-.05-.07-.01-.11c.02.02.04.04.06.06-.02.02-.03.03-.05.05Z"/>
        <path class="cls-19" d="m192.57,510.04c-.8-.72-1.62-1.28-2.17-2.12-.19-.29-.16-.57.04-.82.2-.27.49-.3.79-.2.12.04.21.11.26.24.35.89.7,1.77,1.05,2.65.02.05.01.12.03.26Z"/>
        <path class="cls-19" d="m193.28,508.64c.5.36.97.74,1.4,1.18.27.28.47.6.56.99.08.34-.12.7-.4.78-.28.08-.5-.07-.64-.43-.28-.71-.56-1.43-.82-2.14-.05-.12-.14-.24-.08-.39h0Z"/>
        <path class="cls-19" d="m193.29,508.63s-.03,0-.05,0c0-.01,0-.02,0-.03.01.02.03.03.04.05,0,0,0,0,0,0Z"/>
        <path class="cls-19" d="m187.75,515.1s.03.06.04.08c-.03,0-.06,0-.09-.01.02-.02.04-.05.05-.07Z"/>
        <path class="cls-19" d="m200.23,505.72c.04.56-.43.76-.72,1.09-.07.08-.13,0-.17-.06-.44-.56-.88-1.11-1.33-1.67-.07-.09-.1-.16,0-.24.23-.2.47-.39.77-.49.14-.05.29-.05.43,0,.45.13,1.01.89,1.02,1.38Z"/>
        <path class="cls-19" d="m197.65,502.58c0,.29-.5.93-.74,1-.1.03-.13-.04-.18-.09-.35-.44-.7-.88-1.06-1.32-.1-.13-.07-.2.03-.31.6-.62,1.13-.59,1.64.09.15.2.28.4.3.63Z"/>
        <path class="cls-19" d="m226.02,494.06c0,1.25,0,2.5,0,3.75,0,.19-.08.2-.23.17-.2-.04-.4-.11-.61-.11-.29,0-.33-.12-.26-.38.33-1.15.62-2.3,1.08-3.42Z"/>
      </g>
      <rect class="cls-6" x="244.79" y="737.69" width="66" height="6"/>
      <path class="cls-14" d="m342.79,628.44v6.44c1.14.04,10.83.19,17.3-7.72,5.31-6.51,4.76-13.95,4.61-15.48h-6.44c.17.63,1.73,6.87-2.5,12.06-3.08,3.79-8.07,5.58-12.97,4.69Z"/>
      <path class="cls-14" d="m375.04,611.69h-6.44c-.04,1.14-.19,10.83,7.72,17.3,6.51,5.31,13.95,4.76,15.48,4.61v-6.44c-.63.17-6.87,1.73-12.06-2.5-3.79-3.08-5.58-8.07-4.69-12.97Z"/>
      <path class="cls-14" d="m359.55,658.69h6.44c.04-1.14.19-10.83-7.72-17.3-6.51-5.31-13.95-4.76-15.48-4.61,0,2.15,0,4.29,0,6.44.63-.17,6.87-1.73,12.06,2.5,3.79,3.08,5.58,8.07,4.69,12.97Z"/>
      <path class="cls-14" d="m391.79,641.93v-6.44c-1.14-.04-10.83-.19-17.3,7.72-5.31,6.51-4.76,13.95-4.61,15.48h6.44c-.17-.63-1.73-6.87,2.5-12.06,3.08-3.79,8.07-5.58,12.97-4.69Z"/>
      <rect class="cls-2" x="328.55" y="651.33" width="4.11" height="36.26" transform="translate(846 129.24) rotate(69.94)"/>
      <rect class="cls-2" x="224.52" y="651.55" width="4.11" height="36.26" transform="translate(-473.77 573.15) rotate(-63.46)"/>
    </g>
    <g>
      <path class="cls-9" d="m1049.43,261.81c-6.6-5.74-9.25-12.95-9.22-21.68.15-46.93.13-93.86-.02-140.79-.01-3.9,1.19-6.41,4.44-8.23,10.51-5.88,21.29-9.34,33.82-9.22,8.55.08,16.85-.28,25.19,2.03,18.54,5.13,25.77,25.19,17.6,40.3-3.11,5.75-5.37,11.96-8.01,17.95-1.07,2.44-1.26,4.95,1.51,6.12,3.26,1.37,3.4-1.95,4.2-3.66,8.09-17.48,16.15-34.97,23.99-52.56,1.64-3.69,3.82-6.31,7.64-7.67,16.69-5.96,33.02-5.38,48.34,3.77,14.31,8.55,20.05,25.48,15,42.88-5.43,18.73-18.28,31.75-33.86,42.54-2.21,1.53-4.01.74-6.09-.21-3.83-1.75-7.83-3-12.15-2.28-2.15.35-3.89,1.48-4.16,3.69-.34,2.79,2.26,2.22,3.77,2.65,8.26,2.33,15.14,6.84,21.36,12.65,11.47,10.71,23.05,21.29,34.68,31.83,1.98,1.8,2.58,3.49,2.21,6.22-1.51,11.03-4.89,21.25-11.88,30.09-8.71,1.55-15.9,5.96-22.29,11.85-2.03.17-4.05.34-6.08.52-.03-6.39-3.61-9.33-9.54-11.02-8.81-2.52-16.87-.3-25.01,2.47-9.18-7.52-15.19-17.21-19.47-28.12-3.85-9.79-7.86-19.52-11.77-29.29-.67-1.69-1.1-3.67-3.61-2.87-1.99.64-2.76,2.26-2.47,4.23.26,1.75.72,3.49,1.22,5.19,3.32,11.25,9.05,21.53,13.19,32.44,1.98,5.23,2.57,10.66-.54,15.84-5.05-.9-8.05,1.72-10.15,5.88-2.84.97-5.68,1.94-8.51,2.91-1.04-.53-2.21-.9-3.12-1.6-11.27-8.7-23.97-10.6-37.69-8.21-4.3.75-8.04,3.38-12.52,3.38Z"/>
      <path class="cls-9" d="m896.12,258.25c-31.64-20.97-41.03-52.21-40.5-87.86.28-18.85,4.73-36.71,15.62-52.38,15.19-21.83,35.71-34.26,62.78-37.2,16.71-1.82,32.84-1.84,48.8,3.09,20,6.17,36.48,16.94,45.08,37.01,4.13,9.64,4.73,19.72,2.45,29.84-2.54,11.3-9.48,19.12-20.44,23.09-15.27,5.54-30.38,5.06-45.22-1.7-12.75-5.81-15.02-9.85-14.01-24.65.1-1.45,2.13-3.75-1.11-4.17-2.29-.3-3.71,1.23-4.4,3.29-.57,1.69-1.28,3.45-1.31,5.19-.28,16.69-1.25,33.41,1.39,50.01.34,2.14,1.07,4.23,1.81,6.28.56,1.54,1.58,2.91,3.48,2.74,2.31-.2,2.26-2.2,1.98-3.64-1.9-9.8,4.39-13.12,12-15.85,11.13-4,22.59-6.56,34.28-7.78,4.96-.52,10.04,1.09,15.13-.46,1.57-.48,2.47,1.78,3.33,3.04,9.38,13.66,13.35,29.12,15.12,45.32.29,2.66-1.2,4.53-2.57,6.47-6.07,8.65-14.39,14.77-23.13,20.4-3.89,2.07-8.83,2.07-11.82,5.95-2.79-.31-4.76,1.77-7.2,2.46-5.96-7.01-13.93-7.39-22.33-7.22-13.6.27-13.6.07-16.99,12.86-1.65-.06-3.29-.13-4.94-.19-7.71-7.35-16.13-13.29-27.16-14.67-6.79-.85-13.42.73-20.14.75Z"/>
      <path class="cls-9" d="m700.23,170.9c0-23.67.15-47.33-.11-71-.06-5.52,2.21-8.51,7.03-10.33,7.89-2.98,16.22-2.7,24.36-3.86,12.35-1.76,24.66-1.6,36.96-1.89,21.13-.5,42.27-.14,63.41-.14,4.59,0,9.18.15,13.76-.06,2.78-.13,4.38.75,5.45,3.39,4.91,12.18,7.52,24.72,5.93,37.86-2.12,17.64-10.7,25.31-28.47,25.48-15.35.15-30.71.04-46.07.05-1.59,0-3.22-.11-4.78.14-2.42.38-4.17,1.76-3.9,4.41.29,2.86,2.74,1.71,4.26,1.72,17.95.08,35.9.22,53.84-.06,4.34-.07,6.41,1.38,7.92,5.27,6.25,16.12,6.8,32.06-.49,48.03-1.84,4.04-4.24,5.81-9.06,5.73-20.14-.33-40.28-.16-60.42-.1-1.8,0-4.43-1.07-5.08,1.66-.71,3,2.44,3.63,4.11,4.2,3.34,1.14,7.03,1.35,10.51.12,3.2-1.14,4.91-.65,4.87,3.21-.1,9.94-.1,19.89.01,29.83.03,2.28-.95,3.65-2.6,4.98-16.45,13.3-51.29,15.3-69.31,4.13-8.19-5.08-12.16-12.24-12.16-21.77.02-23.67,0-47.33,0-71Z"/>
      <path class="cls-17" d="m896.12,258.25c6.72-.02,13.34-1.6,20.14-.75,11.03,1.38,19.45,7.32,27.16,14.67,2.16,6.31,5.64,12.02,6.51,18.95,4.1,32.79-19.38,48.33-46.39,45.38-36.16-3.95-41.41-44.5-26.58-64.56,4.97-6.72,12.5-9.52,19.16-13.7Zm11.81,38.75s.06,0,.1,0c0,2.97-.02,5.95,0,8.92,0,1.03.3,2.11,1.44,2.29,1.41.22,2.35-.75,2.43-2.03.36-6.12.93-12.26-.58-18.32-.25-1.02-.73-2.01-1.89-1.9-1.62.15-1.5,1.54-1.5,2.72,0,2.78,0,5.55,0,8.33Z"/>
      <path class="cls-17" d="m1049.43,261.81c4.47,0,8.22-2.63,12.52-3.38,13.72-2.38,26.42-.49,37.69,8.21.91.7,2.08,1.07,3.12,1.6.13,2.81,2.36,4.52,3.6,6.73,9.81,17.5-.31,35.67-20.74,37.08-7.71.53-15.37.32-22.87-2.21,6.37,4.89,13.65,6.06,21.19,5.22,5.51-.61,11.07-1.62,16.08-4.25,2.82-1.48,4.16-.9,5.33,2.09,3.75,9.51,1.33,16.82-7.98,20.08-15.73,5.5-31.62,6.17-46.96-1.56-23.06-11.62-26.62-48.06-6.49-64.38,1.95-1.58,4.64-2.49,5.5-5.24Zm26.9,25.91c-.27-1.88-1.64-2.03-3.05-2-1.65.04-3.4.49-3.51,2.33-.14,2.13,1.85,2.18,3.37,2.23,1.72.05,3.02-.66,3.2-2.56Z"/>
      <path class="cls-17" d="m1185.5,270.06c6.39-5.89,13.57-10.3,22.29-11.85,12.66-2.08,24.89-.32,37.02,3.59,4.83,1.56,5.9,5.04,6.08,9.04.21,4.81-.61,9.56-4.32,13.16-1.42,1.38-2.97.28-4.46-.23-5.3-1.83-10.72-3.06-16.38-2.76-1.68.09-3.67-.55-4.89,1.92,4.38.55,8.6,1.02,12.8,1.63,12.1,1.76,21.26,9.98,22.33,19.97,1.51,14.01-4.66,24.71-17.53,29.03-15.44,5.19-30.99,5.09-45.9-1.88-8.93-4.18-12.29-12.96-9.21-21.33,2.03-5.5,4.01-6.39,9.24-3.59,6.31,3.38,13.22,4.19,20.11,5.06,1.81.23,4.99.94,5.17-1.35.21-2.72-2.96-1.67-4.68-1.73-4.6-.16-9.1-.5-13.53-1.99-16.24-5.46-21.91-18.15-15.02-33.85.39-.9.58-1.88.87-2.82Z"/>
      <path class="cls-17" d="m794.07,286.91c0-10.33.12-20.66-.07-30.99-.07-3.44.99-5.54,4.16-7,8.44-3.89,17.12-5.26,26.1-2.56,8.45,2.54,12.44,7.8,12.61,16.68.2,10.72-.03,21.46.1,32.18.04,3.14-1.06,4.82-4.22,5.29-1.35.2-2.69.77-3.92,1.39-1.7.86-4.56,1.81-3.25,4.03,1.32,2.23,2.98-.64,4.39-1.25,10.67-4.65,21.91-3.11,32.99-3.2,1.91-.02,2.51,1.75,3.2,3.16,4.43,9,4.16,17.97-.23,26.9-1.18,2.4-2.97,3.31-5.73,3.29-16.93-.12-33.87.07-50.8-.14-9.65-.12-15.09-6.16-15.3-16.79-.2-10.33-.04-20.66-.05-30.99Z"/>
      <path class="cls-17" d="m948.35,272.36c3.39-12.79,3.39-12.59,16.99-12.86,8.4-.17,16.38.21,22.33,7.22,1.57,5.8,1.76,11.72,1.43,17.67-.28,5.14-.74,10.27-.92,15.41-.06,1.59-.97,4.27,1.46,4.47,2.66.22,2.67-2.57,2.67-4.46-.04-11.92,1.53-23.72,2.57-35.56,2.98-3.87,7.92-3.88,11.82-5.95,2.5,1.85,5.4.82,8.1,1.04,11.13.89,17.84,9.22,15.63,20.07-3.13,15.41-8.19,30.24-14.59,44.59-3.2,7.18-9.52,10.6-17.02,11.52-7.93.98-15.9.65-23.74-1.16-2.46-.57-4.21-1.83-5.24-4.31-2.66-6.41-6.2-12.54-8.18-19.15-3.9-13.05-10.87-25.02-13.31-38.55Z"/>
      <path class="cls-17" d="m1111.27,265.33c2.11-4.16,5.1-6.78,10.15-5.88,2.38.07,4.79-.04,7.15.25,8.22,1.03,9.67,3.49,6.58,10.83-.38.91-.8,1.83-.97,2.79-.17.95-.21,2.18,1.09,2.32.52.06,1.53-.7,1.67-1.25,1.26-5.03,5.78-7.95,7.94-12.38,8.14-2.78,16.2-4.99,25.01-2.47,5.93,1.69,9.51,4.63,9.54,11.02.07,4.96.11,9.86-.98,14.81-1.02,4.64-3.67,6.53-7.97,7.55-7.49,1.77-14.95,1.05-23.04.31,7.57,2.38,5.67,8.2,5.73,13.19.08,6.76-.13,13.53.09,20.29.11,3.29-1.02,5.25-4.11,6.32-8.29,2.87-16.63,3.92-25.15,1.01-6.28-2.14-9.05-5.79-9.12-12.38-.07-6.76,0-13.53-.02-20.29-.02-6.71.5-13.39-2.82-19.78-2.65-5.1-.04-10.85-.76-16.27Z"/>
    </g>
    <g>
      <g id="BsboDP.tif">
        <g>
          <path class="cls-2" d="m1706.48,287.08c2.91.95,5.98.79,8.97,1.19,30.26,4.05,56.97,15.96,80.02,35.99,27.14,23.57,43.98,53.2,50.62,88.37,12.28,65.01-15.11,124.7-65.8,158.47-19.52,13-41.02,21.07-64.5,23.6-14.77,1.59-29.58,1.81-44.29.16-13.1-1.47-25.63-5.6-37.68-10.95-31.34-13.93-56.15-35.32-73.4-65.1-10.27-17.73-16.65-36.84-19.16-57.23-.35-2.84-.14-5.78-1.19-8.52v-2.14c.36-1.72.36-3.43,0-5.15v-8.58c.47-1.47.1-2.99.22-4.48-.09-12.93,2.68-25.38,6.45-37.64,6.42-20.89,17.39-39.19,31.67-55.64,14.3-16.47,31.22-29.45,50.9-38.81,14.5-6.89,29.71-11.44,45.72-13.02,2.82-.28,5.69-.41,8.55-.3,1.77-.11,3.55.24,5.3-.22h17.58Z"/>
          <path class="cls-15" d="m1683.29,287.45c0-.12.01-.24.02-.36h5.58c-1.82.8-3.73.33-5.6.36Z"/>
          <path class="cls-7" d="m1540.07,445.77c.58,1.72.84,3.43,0,5.15v-5.15Z"/>
          <path class="cls-4" d="m1540.07,432.48c.12-.06.24-.08.37-.06.1,1.61.27,3.22-.37,4.78v-4.72Z"/>
          <path class="cls-2" d="m1680.96,393.18c8.84.99,19.09.76,29.34-.44,4.04-.47,8.15-.39,12.13.72,6.47,1.8,10.54,5.91,12.01,12.57,2.35,10.61,6.22,20.75,9.51,31.07,2.08,6.53,3.99,13.09,5.2,19.85.24,1.34-.12,2.07-1.04,2.92-11.95,11.11-25.08,20.77-37.87,30.84-2.97,2.34-5.94,4.7-8.87,7.09-3.15,2.58-6.51,2.95-10.19,1.27-2.37-1.08-4.5-2.52-6.36-4.3-8.55-8.22-18.16-14.95-28.38-20.9-4.89-2.85-9.4-6.24-13.08-10.61-.69-.82-1.33-1.68-1.97-2.53-2.76-3.68-3.54-7.25-1.7-11.98,5.09-13.08,9.21-26.52,14.29-39.62.3-.79.42-1.66.53-2.5,1.07-7.75,5.46-12.09,13.23-13.18,3.92-.55,7.84-.41,13.21-.27Z"/>
          <path class="cls-19" d="m1694.05,528.64c-.44,4.78-.57,9.56-.19,14.35.41,5.17-1.78,8.98-6.46,11.28-3.63,1.78-7.54,2.67-11.52,3.11-8.68.96-17.06,3.17-25.43,5.59-7.21,2.09-14.13,1.17-20.9-2.42-13.31-7.04-24.34-16.84-35.04-27.24-5.14-5-6.44-11.05-7.23-17.51-1.34-10.94.09-21.81.89-32.71.28-3.87,2.24-6.09,4.96-8.16,6.47-4.92,14.01-7.25,21.81-8.91,6.57-1.4,13.24-2.18,19.89-3.09,1.14-.16,2.02.09,2.96.78,14.61,10.63,29.4,21.01,43.64,32.13.28.22.55.48.86.63,8.77,4.29,11.46,12.01,11.74,21.02.11,3.71.02,7.43.02,11.14Z"/>
          <path class="cls-19" d="m1800.58,488.59c-.13,8.06-2.34,15.79-3.8,23.64-.73,3.94-1.12,7.9-1.38,11.89-.34,5.15-2.87,9.5-5.91,13.52-5,6.61-11.62,11.35-18.56,15.65-5.15,3.19-10.43,6.18-15.64,9.28-5.11,3.05-10.69,2.78-16.24,2.17-9.24-1.01-17.75-4.69-26.46-7.61-2.23-.75-4.42-1.72-6.71-2.17-4.57-.89-6.9-4.01-8.45-7.95-1.94-4.91-1.82-10.06-1.45-15.21.49-6.84,2.01-13.62,1.71-20.47-.16-3.54,1.11-5.85,3.34-8.22,6.99-7.46,15.35-13.22,23.56-19.15,6.84-4.94,13.48-10.09,19.42-16.13,5.64-5.74,12.65-6.26,20.1-4.7,6.79,1.43,13.17,4.22,19.86,5.98,2,.53,4.01,1.05,6.08,1.19,1.4.1,2.57.66,3.68,1.52,5.48,4.29,6.98,10.18,6.87,16.74Z"/>
          <path class="cls-19" d="m1697.93,389.57c-9.86.11-19.72.18-29.57.5-1.32.04-2.49-.21-3.69-.8-8.61-4.24-14.77-11.08-20.12-18.79-3.91-5.64-7.03-11.73-10.03-17.89-.51-1.05-.27-1.83.16-2.77,6.09-13.5,15.23-24.67,25.91-34.79,5.7-5.4,12.62-6.94,19.89-7.79,10.58-1.24,21.1.4,31.66.73,6.86.21,12.58,2.72,17.79,6.87,4.57,3.64,8.21,8.13,11.66,12.79,4.55,6.13,8.78,12.48,13.61,18.42,2.13,2.62,1.54,5.99.79,9.07-1.38,5.64-4.75,10.18-8.47,14.45-4.5,5.17-9.54,9.91-13.68,15.34-2.73,3.59-5.61,4.89-9.98,4.75-8.63-.28-17.29-.08-25.93-.08Z"/>
          <path class="cls-19" d="m1560.64,426.98c1.05-15.18,5.52-29.45,12.26-43.08,1.23-2.49,2.45-4.99,3.65-7.49,3.71-7.77,10.37-11.91,18.1-14.72,8.08-2.93,16.52-4.47,24.88-6.28,5.75-1.25,10.66,1.01,14.81,4.99,4.54,4.36,7.7,9.71,10.8,15.09,3.13,5.43,5.95,11.07,9.84,16.03.74.94.34,1.71.08,2.58-5.36,17.68-12.03,34.9-18.03,52.35-2.89,8.42-8.35,13.26-16.53,15.8-6.08,1.89-12.4,2.75-18.51,4.47-2.06.58-4.11,1.21-6.09,1.99-2.12.84-4.09.79-6.2-.11-5.13-2.19-8.79-6.01-12.01-10.37-3.78-5.13-6.66-10.79-9.71-16.36-2.09-3.81-4.13-7.67-6.76-11.15-.91-1.2-.51-2.44-.58-3.75Z"/>
          <path class="cls-19" d="m1769.21,357.29c5.21.03,9.9,1.95,14.54,4.01,6.97,3.1,13.44,7.35,20.77,9.54,3.39,1.01,5.34,2.91,7.06,5.77,7.84,13.07,13.08,27.08,15.26,42.16.53,3.67-.79,7.2-1.88,10.67-2.53,8.03-6.85,15.18-11.17,22.32-3.4,5.61-6.97,11.12-9.92,16.99-.45.91-1.05,1.23-1.99,1.26-2.01.05-4.1.15-5.94-.56-7.71-2.96-15.86-4.16-23.8-6.19-1.38-.35-2.73-.82-4.12-1.15-9.5-2.28-15.37-8.35-18.71-17.36-2.71-7.32-4.36-14.91-6.36-22.42-1.19-4.48-2.43-8.97-4.53-13.12-4.18-8.25-3.28-16.09,1.39-23.8,2.64-4.36,5.91-8.23,9.18-12.11,3.13-3.71,6.23-7.44,9.2-11.29,2.7-3.51,6.65-4.74,11.01-4.72Z"/>
          <path class="cls-2" d="m1695.03,557.16c5.69,0,12.48,1.64,19.19,3.67,6.27,1.91,12.5,3.96,18.73,5.98,7.05,2.29,9.39,8.4,4.97,14.01-5.84,7.42-13.69,11.56-23.2,11.07-4.17-.21-8.22.25-12.33.31-13.93.18-27.83-.13-41.5-3.22-4.06-.92-7.76-2.78-11.25-5.07-2.49-1.63-4.17-3.84-5.28-6.54-1.79-4.35-.71-7.61,3.4-9.96,3.58-2.05,7.57-2.93,11.57-3.66,7.78-1.42,15.61-2.51,23.12-5.21,3.58-1.29,7.41-1.42,12.59-1.37Z"/>
          <path class="cls-2" d="m1843.53,465.36c-.09,3.29-.34,6.85-1.5,10.27-4.42,13.01-8.5,26.16-15.04,38.34-2.54,4.73-5.6,9.1-8.99,13.26-1.6,1.96-3.48,2.89-5.94,3.25-8.84,1.29-14.65-4.37-12.57-13.05,2.56-10.69,2.87-21.63,4.33-32.43,1.04-7.71,3.13-15.02,7.52-21.61,3.01-4.51,4.84-9.67,7.11-14.58,1.92-4.15,3.91-8.26,7.08-11.65,4.41-4.72,5.32-4.67,8.86.51,5.64,8.26,8.98,17.29,9.14,27.68Z"/>
          <path class="cls-2" d="m1579.02,348.81c-.11-1.48.53-3.35,1.78-5.13,5.13-7.32,11.52-13.39,18.47-18.95,11.81-9.46,24.9-16.84,38.36-23.59,4.3-2.16,8.95-3.29,13.82-3.36,1.16-.02,2.02.34,2.86,1.1,3.95,3.62,4.9,7.87,2.73,12.79-1.54,3.5-3.93,6.45-6.43,9.29-2.69,3.06-5.47,6.03-8.18,9.06-2.09,2.35-3.95,4.85-5.5,7.61-4.2,7.47-11.01,11.53-18.85,14.22-6.76,2.32-13.81,3.51-20.66,5.47-2.95.84-5.86,1.73-8.63,3.11-2.8,1.39-5.27.71-7.12-1.86-1.95-2.7-2.6-5.82-2.64-9.76Z"/>
          <path class="cls-2" d="m1812.83,354.66c0,2.38-.58,4.69-1.03,6.98-.54,2.73-3.1,4.23-5.47,3.41-9.51-3.26-19.05-6.43-28.47-9.92-7.82-2.9-15.17-6.82-20.83-13.11-2.88-3.21-4.96-7.11-7.85-10.39-3.78-4.28-7.73-8.43-10.72-13.34-.66-1.09-1.33-2.21-1.81-3.39-2.87-6.94.06-11.42,5.72-14.89.88-.54,1.66-.1,2.45.13,13.04,3.75,24.84,10.09,35.81,17.91,8.14,5.79,15.92,12.11,23.2,18.97,4.42,4.17,7.96,8.99,8.78,15.29.1.78.16,1.56.23,2.34Z"/>
          <path class="cls-2" d="m1585.43,491.9c-.81,9.46-1.64,18.92-2.39,28.38-.08,1.03-.68,1.3-1.38,1.63-5.42,2.55-10.43,1.75-14.96-2.03-5.08-4.25-8.36-9.82-10.31-15.98-3.32-10.53-7.23-20.87-10.09-31.55-2.35-8.78-3.45-17.65-1.08-26.64,2.13-8.08,10.89-10.81,17.09-5.3,3.02,2.68,5.21,6.04,7.35,9.42,3.58,5.66,6.75,11.56,10.59,17.07,3.06,4.39,4.18,9.65,4.77,14.94.37,3.34.57,6.69.39,10.06Z"/>
          <path class="cls-19" d="m1579.57,525.85c2.33.06,4.23,1.19,6.04,2.48,2.86,2.05,5.32,4.54,7.72,7.09,4.99,5.3,9.9,10.68,15.39,15.45,4.55,3.95,10.13,6.34,15.38,9.21,4.14,2.26,8.2,4.64,11.55,8.03,3,3.04,4.83,6.67,5.55,10.87.4,2.36-.2,2.86-2.48,2.16-17.11-5.26-31.72-14.73-44.86-26.67-7.31-6.64-13.92-13.93-20.12-21.62-.86-1.06-.97-1.82-.23-2.95,1.46-2.25,3.09-4.13,6.07-4.05Z"/>
          <path class="cls-19" d="m1543.55,429.96c.28-5.35,1.91-10.26,2.89-15.29,2.32-11.95,5.89-23.49,10.75-34.64,3.47-7.96,7.85-15.35,13.77-21.79,1.45-1.57,2.98-1.52,4.65-1.06,1.68.47,2.5,1.8,2.68,3.52.26,2.47-.29,4.84-1.06,7.15-1.52,4.56-3.45,8.99-6.34,12.79-5.51,7.24-7.83,15.58-9.37,24.3-1.27,7.23-2.23,14.56-5.23,21.36-1.85,4.19-4.02,8.19-8.12,10.76-1.31.82-2.05.49-2.84-.56-1.51-2-1.7-4.33-1.78-6.53Z"/>
          <path class="cls-19" d="m1742.92,579.91c-.1-3.2,1.28-5.79,3.45-8.02,2.78-2.86,6.23-4.74,9.75-6.5,3-1.5,6.07-2.83,9.06-4.35,6.97-3.55,13.36-7.91,18.93-13.44,3.8-3.77,7.48-7.68,12.03-10.6,4.39-2.82,8.92-3.64,13.73-1.01,1.37.75,1.75,1.27.55,2.72-15.88,19.24-35.49,33.31-58.61,42.58-1.78.72-3.51,1.58-5.31,2.24-2.76,1.01-3.34.6-3.57-2.33-.03-.43,0-.86,0-1.28Z"/>
          <path class="cls-19" d="m1844.49,443.75c-5.39-3.95-8.18-9.25-10.23-15.04-2.27-6.4-3.37-13.11-5.03-19.67-2.13-8.44-4.81-16.68-8.89-24.42-2.29-4.35-4.44-8.78-5.58-13.61-1.27-5.36.43-9,4.88-10.67,1.03-.39,1.59-.35,2.2.72,10.76,18.86,18.72,38.73,21.76,60.36,1.03,7.28,1.31,14.62.89,22.33Z"/>
          <path class="cls-19" d="m1724.05,305.62c-6.4-.04-12.15-1.37-17.87-2.48-6.77-1.32-13.33-.68-19.97.46-5.34.92-10.68,1.98-16.16,1.12-2.36-.37-4.54-1.16-6.65-2.26-.89-.46-1-.99-.69-1.88,1.23-3.57,3.74-5.82,7.19-7.12,3.25-1.23,6.64-1.58,10.08-1.69,5.01-.16,9.99.27,14.99.49,8.62.38,17.25.77,25.87,1.21,2.93.15,5.83.59,8.56,1.73,3.86,1.62,4.88,5.04,2.66,8.58-.44.7-1.06.88-1.74,1.08-2.22.64-4.49.81-6.27.76Z"/>
        </g>
      </g>
      <circle class="cls-2" cx="1608.01" cy="416.37" r="32.33"/>
      <circle class="cls-2" cx="1780.44" cy="416.37" r="32.33"/>
      <circle class="cls-18" cx="1595.16" cy="401.86" r="8.7"/>
      <circle class="cls-18" cx="1616.71" cy="424.25" r="17.82"/>
      <circle class="cls-18" cx="1785" cy="424.25" r="17.82"/>
      <circle class="cls-18" cx="1765.11" cy="403.52" r="8.7"/>
      <polygon class="cls-2" points="1716.35 434.02 1709.98 417.2 1710.81 417.2 1717.06 433.88 1716.35 434.02"/>
      <path class="cls-12" d="m1714.64,339.76v4.71c.84.03,7.93.14,12.65-5.65,3.89-4.76,3.48-10.21,3.37-11.32h-4.71c.12.46,1.27,5.02-1.83,8.82-2.25,2.77-5.9,4.08-9.49,3.43Z"/>
      <path class="cls-12" d="m1740.09,327.5h-4.71c-.03.84-.14,7.93,5.65,12.65,4.76,3.89,10.21,3.48,11.32,3.37v-4.71c-.46.12-5.02,1.27-8.82-1.83-2.77-2.25-4.08-5.9-3.43-9.49Z"/>
      <path class="cls-12" d="m1726.89,363.26h4.71c.03-.84.14-7.93-5.65-12.65-4.76-3.89-10.21-3.48-11.32-3.37v4.71c.46-.12,5.02-1.27,8.82,1.83,2.77,2.25,4.08,5.9,3.43,9.49Z"/>
      <path class="cls-12" d="m1752.35,351v-4.71c-.84-.03-7.93-.14-12.65,5.65-3.89,4.76-3.48,10.21-3.37,11.32h4.71c-.12-.46-1.27-5.02,1.83-8.82,2.25-2.77,5.9-4.08,9.49-3.43Z"/>
      <rect class="cls-18" x="1697.13" y="435.04" width="35.88" height="5.85" transform="translate(370.46 -713.26) rotate(26.24)"/>
      <rect class="cls-18" x="1667.57" y="435.07" width="35.88" height="5.85" transform="translate(3386.02 62.42) rotate(152.98)"/>
      <rect class="cls-2" x="1597.14" y="373.14" width="41.38" height="5.85" transform="translate(2754.22 1587.44) rotate(-146.26)"/>
      <rect class="cls-2" x="1747.9" y="376.21" width="41.49" height="5.85" transform="translate(35.56 897.07) rotate(-28.74)"/>
    </g>
  </g>
  <g id="Layer_5" data-name="Layer 5">
    <g id="youlost">
      <path class="cls-13" d="m565.81,582.07c-2.63-6.94-13.71-38.57,2.97-71.94,23.78-47.57,81.5-53.68,84.47-53.95,2.16-3.07,36.58-50.1,98.85-48.89,59.27,1.15,91.32,44.99,94.06,48.89,1.8-2.78,32.38-48.25,91.05-48.89,60.29-.66,92.13,46.66,93.57,48.89.81-1.59,18.02-33.88,55.6-37.09,27.97-2.39,55.31,12.36,68.22,37.09,5.13-4.59,36.18-31.49,82.75-28.66,37.78,2.3,61.99,22.71,68.57,28.66,21.41-6,44.2.11,57.23,15.17,16.08,18.57,14.74,47.76-4.96,67.09,20.12,14.23,28.58,38.8,21.13,61.05-7.76,23.19-31.22,39.08-57.51,38.78-9.44,24.8-32.16,42.94-59.31,47.21-37.55,5.9-63.9-17.82-66.5-20.23-15.24,25.13-44.41,38.54-71.89,33.72-30.31-5.31-44.72-30.38-46.56-33.72-23.91,24.01-58.81,33.93-90.03,25.29-31.52-8.72-46.83-32.9-50.32-38.78-4.42,3.73-42.78,35.06-93.46,25.29-31.56-6.09-50.8-24.82-57.51-32.03-23.89,22.17-57.8,30.75-88.06,21.92-32.36-9.44-47.24-34.9-50.32-40.46-18.33,16.47-46.05,18.14-64.7,5.06-15.6-10.95-22.58-30.63-17.35-49.45Z"/>
      <text class="cls-25" transform="translate(639.16 583.86) scale(1.03 1)"><tspan class="cls-21" x="0" y="0">Y</tspan><tspan x="83.84" y="0">OU </tspan><tspan class="cls-26" x="288.91" y="0">L</tspan><tspan class="cls-28" x="357.91" y="0">O</tspan><tspan class="cls-27" x="449" y="0">S</tspan><tspan class="cls-28" x="527.2" y="0">T</tspan><tspan x="608.89" y="0">!</tspan></text>
    </g>
  </g>
</svg>