<?xml version="1.0" encoding="UTF-8"?><svg xmlns="http://www.w3.org/2000/svg" width="460" height="580" viewBox="0 0 460 580"><defs><style>.cls-1,.cls-2,.cls-3,.cls-4,.cls-5,.cls-6,.cls-7,.cls-8,.cls-9,.cls-10,.cls-11,.cls-12{stroke-width:0px;}.cls-1,.cls-13{fill:none;}.cls-14,.cls-15,.cls-16,.cls-13{stroke-miterlimit:10;stroke-width:.5px;}.cls-14,.cls-15,.cls-9{fill:#fff;}.cls-14,.cls-16,.cls-13{stroke:#000;}.cls-15{stroke:blue;}.cls-3{fill:#491b02;}.cls-4{fill:#22509a;}.cls-5{fill:#221f1f;}.cls-6{fill:#de1e23;}.cls-7{fill:#fdfdfd;}.cls-8{fill:#ff7f83;}.cls-10{fill:#ffe6be;}.cls-11{fill:red;}.cls-12{fill:#f40000;}</style></defs><g id="Layer_1"><path class="cls-10" d="m97.4,295.2c-.98-.2-13.87-3.08-18.79-15.45-3.69-9.29-4.04-24.5,5.88-27.53l2.61-.8"/><path class="cls-10" d="m133.45,255.35c-5.48,3.02-17.25-4.29-21.08-14.36-4.3-11.32,3.01-22.03,3.84-23.21,2.15.72,15.08,5.24,19.4,17.74,2.33,6.74,2.64,17.18-2.16,19.82Z"/><ellipse class="cls-8" cx="251.82" cy="205.45" rx="171.58" ry="170.21"/><path class="cls-4" d="m352.99,342.17l2.13,46.96c3.86.6,9.91,1.06,17.01-.48,5.24-1.13,12.11-2.62,14.36-6.15,6.76-10.66-27.12-42.28-28.71-43.75"/><path class="cls-4" d="m190.3,440.6c-.42,5.01-.48,12.18,1.37,20.51,2.01,9.07,5.49,16.01,8.2,20.51,3.5,3.21,8.93,7.47,16.41,10.94,7.56,3.5,14.4,4.88,19.14,5.47-.97,9.3-1.38,20.93,0,34.18,1.55,14.88,4.9,27.37,8.2,36.91.49.75,4.12,6.11,10.94,6.84,5.49.58,10.94-2.07,14.14-6.84,2.15-10.01,4-21.47,5-34.18,1.21-15.36.93-29.19,0-41.02.94-.95,5.3-5.18,12.3-5.47,6.67-.27,11.21,3.21,12.3,4.1-.36,8.97,0,20.73,2.73,34.18,2.76,13.58,7.06,24.65,10.94,32.81.71.64,6.08,5.3,13.67,4.1,6.71-1.06,10.29-5.93,10.94-6.84,1.77-9.93,3.15-22.46,2.73-36.91-.41-14.28-2.47-26.58-4.77-36.32,4.27-3.59,10.74-9.97,15.71-19.74,6.7-13.16,7.06-25.36,6.84-31.36"/><path class="cls-9" d="m352.99,344.22l2.13,46.12,1.97,42.58c-13.83,7.98-42.1,21.88-80.66,24.09-40.51,2.32-71.49-9.44-86.13-16.11-1.4-25.96-2.8-51.92-4.2-77.88,16.99,5.17,46.67,11.86,83.5,8.06,38.93-4.02,67.78-17.9,83.4-26.86Z"/><path class="cls-13" d="m251.6,155.82s12.52-7.79,12.52-37.87-.22-60.33-6.26-73.91c-6.04-13.59-8.78-21.2-8.78-21.2"/><path class="cls-3" d="m407,77.62c12.4,22.73,37.64,76.3,34.86,148.34-2.96,76.64-35.95,130.55-50.59,151.76l-8.2-203.71-38.28,1.37-4.1-36.91-21.87,38.28-91.79,7.56,44.57-56.31"/><path class="cls-4" d="m214.91,399.59c.43-2.34,1.5-5.82,4.44-8.03,2.91-2.18,6.21-2.03,13.33-1.54,7.23.49,13.29.98,17.77,1.37.82.58,3.05,2.31,4.1,5.47,1.42,4.28-.39,7.92-.75,8.6-2.3.97-6.35,2.35-11.55,2.34-5.18,0-9.21-1.37-11.5-2.34.5.65,1.76,2.44,1.93,5.08.18,2.77-.94,4.78-1.37,5.47.9-.49,2.85-1.38,5.47-1.37,2.58,0,4.5.88,5.4,1.37.59,1.35,1.42,3.74,1.44,6.84.01,3.08-.8,5.48-1.37,6.84-1.16.57-3.62,1.58-6.84,1.37-2.25-.15-4-.84-5.05-1.37.82,1.53,2.4,4.96,2.32,9.57-.09,4.68-1.84,8.08-2.73,9.57-.57.39-2.03,1.3-4.1,1.37-2.36.08-4.04-.99-4.59-1.37-2.02-10.17-3.75-21.13-4.98-32.81-.6-5.63-1.04-11.1-1.37-16.41Z"/><path class="cls-4" d="m280.53,394.12c.4.27,2.22,1.59,2.73,4.1.6,2.96-1.12,5.17-1.37,5.47-1.94-.04-4.89.14-8.2,1.37-5.08,1.88-8.18,5.15-9.57,6.84-1.01,1.81-2.54,5.16-2.73,9.57-.31,6.97,2.92,12,4.1,13.67,1.89.56,4.19,1.08,6.84,1.37,3.18.34,5.98.24,8.2,0,.4.15,3.32,1.31,4.1,4.1.84,2.98-1.08,6.68-4.87,8.2-2.57.46-6.65.88-11.54,0-4.96-.89-8.69-2.75-10.94-4.1-1.8-2.47-7.15-10.46-6.84-21.87.35-12.87,7.66-21.2,9.57-23.24,1.36-1.35,4.56-4.14,9.57-5.47,4.97-1.31,9.09-.49,10.94,0Z"/><path class="cls-4" d="m291.47,392.75c.42,7.04,1.25,14.84,2.73,23.24,1.82,10.29,4.27,19.45,6.84,27.34.12.21,1.42,2.47,4.1,2.73,2.26.22,3.82-1.14,4.07-1.37.71-2.79,1.38-6.52,1.4-10.94.02-4.61-.67-8.48-1.4-11.34,1.45,2.26,4.04,5.65,8.24,8.6,3.07,2.16,6.01,3.39,8.2,4.1,1.49,1.53,3.65,2.06,5.47,1.37,1.84-.7,2.59-2.38,2.73-2.73-1.23-2.89-3.31-6.9-6.84-10.94-4.43-5.07-9.2-7.99-12.3-9.57,2.55-2.97,5.56-7.05,8.2-12.3,2.09-4.16,3.43-8.03,4.31-11.26-.63-2.04-2.32-3.53-4.31-3.78-2.25-.28-3.86,1.14-4.1,1.37-2.18,2.6-4.55,5.78-6.84,9.57-2.39,3.95-4.16,7.69-5.47,10.94-1.42-2.63-2.88-5.83-4.1-9.57-.76-2.35-1.32-4.57-1.72-6.59-.83-2.05-2.95-3.28-5.11-2.98-2.11.29-3.8,1.97-4.1,4.1Z"/><path class="cls-10" d="m442.07,211.16c.88.48,12.37,7,13.46,20.26.82,9.96-3.3,24.61-13.67,24.61h-2.73"/><path class="cls-10" d="m387.08,382.55c-1.46-5.79-4.44-14.67-10.84-23.98-6.63-9.64-14.15-15.71-19.14-19.14,5.3,3.74,12.68,9.86,19.14,19.14,7.99,11.48,11.07,22.77,13.67,36.91,3.02,16.39,6.11,40.47,5.47,71.09-.15.48-2.19,6.51-8.2,8.2-4.99,1.4-10.57-.77-13.67-5.47-2.92-6.63-5.72-13.93-8.2-21.87-6.93-22.18-9.21-42.43-9.57-58.79,3.47.69,9.35,1.4,16.41,0,6.92-1.37,12.01-4.18,14.94-6.1Z"/><path class="cls-10" d="m183.47,361.31c-6.01,6.04-14.41,15.95-20.51,30.08-6.31,14.61-7.21,26.85-8.2,42.38-.84,13.03-.89,31.37,2.73,53.32-.22,6.81,4.63,12.66,10.94,13.67,6.93,1.11,13.91-3.91,15.04-11.36.76-7.4,1.66-15.01,2.73-22.82,1.23-8.97,2.61-17.64,4.1-25.98"/><path class="cls-11" d="m178.63,261.95c-.42-.11-.95-.22-2-.45-9.62-2.06-16.25-3.39-20.51,0-.16.13-.74.6-1.37,1.37-4.28,5.24-3.25,14.97,1.37,20.51,4.54,5.45,11.4,5.46,21.87,5.47,5.79,0,14.31.01,17.77-5.47,1.18-1.87,1.34-3.69,1.37-4.1.51-7.46-9.2-14.88-18.51-17.32Z"/><path class="cls-11" d="m320.18,263.68c.42-.11.94-.22,1.99-.45,9.59-2.06,16.19-3.39,20.43,0,.16.13.74.6,1.36,1.37,4.26,5.24,3.24,14.97-1.36,20.51-4.53,5.45-11.36,5.46-21.79,5.47-5.77,0-14.25.01-17.71-5.47-1.18-1.87-1.33-3.69-1.36-4.1-.51-7.46,9.16-14.88,18.44-17.32Z"/><path class="cls-1" d="m298.71,510.54c3.39,1.39,11.37,4.11,21.47,2.52,8.99-1.42,15.22-5.55,18.12-7.77"/><path class="cls-1" d="m272.75,544.75c-1.4,2.16-3.7,5.16-7.21,8-3.59,2.9-7.09,4.52-9.52,5.43-2.68-.79-6.71-2.33-10.88-5.43-3.75-2.79-6.23-5.82-7.75-8l-2.65-29.63c2.52,1.8,9.11,6,18.56,6.39,10.35.43,17.77-3.96,20.3-5.62"/><path class="cls-13" d="m302.99,535.04c2.31,2.05,5.74,4.64,10.36,6.73,3.4,1.54,6.52,2.39,9.04,2.89,2.34-.74,6.23-2.29,10.1-5.62,3.66-3.15,5.74-6.55,6.84-8.69"/><path class="cls-10" d="m234.73,515.11c2.54,1.92,8.94,6.22,18.23,6.96,10.7.85,18.54-3.54,21.15-5.16.39,4.22.57,9.14.27,14.6-.3,5.55-1.04,10.48-1.91,14.68-3.12,7.93-10.2,13.21-17.66,13.19-10.86-.03-16.57-11.25-17.35-12.84-1.95-3.99-2.23-8.12-2.73-16.41-.38-6.23-.22-11.41,0-15.04Z"/><path class="cls-10" d="m338.01,505.54c-2.78,2.17-8.75,6.23-17.46,7.72-10.37,1.77-18.57-1.14-21.83-2.5.17,4.08.63,8.79,1.64,13.93.76,3.85,1.71,7.33,2.7,10.42,4.34,6.84,12.29,10.51,20.26,9.41,7.87-1.08,14.4-6.6,16.68-14.07.29-3.59.39-7.84,0-12.59-.38-4.7-1.15-8.84-2-12.3Z"/><circle class="cls-16" cx="305.14" cy="260.14" r="20.51"/><circle class="cls-16" cx="198.5" cy="260.14" r="20.51"/><circle class="cls-14" cx="192.35" cy="252.62" r="6.15"/><circle class="cls-14" cx="297.62" cy="252.62" r="6.15"/><circle class="cls-14" cx="204.66" cy="266.29" r="10.25"/><circle class="cls-14" cx="309.93" cy="266.29" r="10.25"/><path class="cls-13" d="m180.25,253.32c-3.51.81-7.35.12-10.36-1.86s-5.17-5.22-5.83-8.76"/><path class="cls-13" d="m182.54,247.64c-.55.41-1.3.41-1.98.33-4.11-.49-7.84-3.41-9.32-7.27"/><path class="cls-13" d="m186.9,244.89c-3.48-.98-6.81-3.33-8.27-5.83"/><path class="cls-13" d="m315.4,246.71c4.27.81,8.92.12,12.58-1.86,3.66-1.98,6.28-5.22,7.08-8.76"/><path class="cls-13" d="m312.66,242.22c.67.41,1.59.41,2.42.33,5.03-.49,9.6-3.41,11.41-7.27"/><path class="cls-13" d="m309.41,242c4-.49,7.67-3.29,9.12-6.95"/><path class="cls-4" d="m186.2,358.57c-5.57,4.44-15.54,13.67-21.87,28.71-3.83,9.09-5.08,17.35-5.47,23.24,2.73,1.19,8.1,3.11,15.04,2.73,7.76-.42,13.36-3.47,15.91-5.08-1.2-16.54-2.4-33.07-3.61-49.61Z"/><path class="cls-3" d="m136,256.73l9.19,151.07c-12.31-21.02-25.48-47.06-36.91-77.93-10.7-28.89-17.48-55.49-21.85-78.28"/><path class="cls-4" d="m91.18,145.98L4.37,199.98s21.87,19.14,38.28,27.34c16.41,8.2,56.05,35.55,73.83,32.81,17.77-2.73,8.2,2.73,31.44-9.57,23.24-12.3,45.12-32.81,45.12-32.81l28.71-27.34,29.86-34.59"/><path class="cls-15" d="m91.18,145.98s76.56,32.81,140.82,13.67c0,0,73.83-12.3,120.31-36.91,46.48-24.61,54.69-45.12,54.69-45.12,0,0-45.12-57.42-73.83-66.99,0,0-49.22-10.94-98.44-4.1-49.22,6.84-83.4,39.65-83.4,39.65,0,0-57.42,64.26-60.16,99.8Z"/><path class="cls-4" d="m251.6,155.55s35.01-43.33-11.09-149.74c0,0,52.33-5.42,92.66,4.81,40.33,10.24,73.83,66.87,73.83,66.87-3.7,5.15-7.79,10.22-12.3,15.17-44.04,48.25-106.43,59.84-143.09,62.89Z"/><path class="cls-7" d="m162.36,79.44c-1.04-.6-2.08-1.19-3.11-1.8-.23-.13-.32-.1-.44.12-.24.46-.5.91-.77,1.35-.12.19-.1.29.09.4,2.51,1.49,5.02,2.99,7.52,4.49.17.1.24.08.34-.09.28-.5.56-.99.86-1.47.12-.2.05-.27-.11-.37-.42-.25-.83-.53-1.26-.76-.51-.27-.68-.8-1.04-1.29,1.03.17,1.96.32,2.9.48.62.11.62.11.95-.44.35-.58.57-1.29,1.38-1.4.28-.04.34-.21.2-.46-.13-.23-.08-.38.16-.53.58-.34,1.02-.84,1.39-1.4.8-1.21.76-2.25-.19-3.35-.76-.89-1.68-1.62-2.51-2.43-.63-.61-1.31-1.15-2.13-1.47-.24-.09-.37-.24-.46-.47-.22-.58-.22-.55-.79-.37-.31.1-.35.23-.2.49.12.21.1.35-.16.48-.64.34-1.13.85-1.54,1.45-.85,1.25-.71,2.61.38,3.65.75.71,1.49,1.42,2.25,2.13.69.64,1.4,1.24,2.3,1.54.36.12.52.34.55.71-.05,0-.09,0-.12,0-1.59-.24-3.17-.49-4.77-.7-.34-.05-.54-.19-.72-.46-.69-1.07-1.4-2.12-2.11-3.17-.07-.1-.11-.23-.26-.29-.3.52-.59,1.05-.9,1.56-.14.23-.13.4.03.63.76,1.08,1.53,2.14,2.33,3.19-.02.02-.04.05-.05.07Zm50.83,35.76c.12.13.24.24.35.38.88,1.06,1.79,2.1,2.71,3.12,2.56,2.85,5.27,5.54,8.19,8.01.16.14.27.27.49.02,3.51-3.84,6.25-8.18,8.19-13.05.11-.26.07-.41-.15-.58-3.21-2.62-6.48-5.16-9.93-7.46-.38-.26-.78-.5-1.11-.83.01-.01.02-.03.03-.04.61.17,1.19.43,1.78.66,3.47,1.4,6.81,3.09,10.15,4.79.28.14.38.15.48-.2.93-3.12,1.47-6.32,1.66-9.57.1-1.76.09-3.52-.02-5.28-.01-.2-.09-.3-.26-.4-4.1-2.31-8.34-4.31-12.78-5.86-.36-.13-.72-.26-1.08-.38,4.65.59,9.21,1.62,13.71,3,0-.09,0-.15,0-.21-.94-5.98-3.03-11.51-6.31-16.58-.11-.17-.23-.25-.43-.3-2.24-.57-4.5-.92-6.8-1.11-3.53-.29-7.05-.3-10.57.16-2.34.31-4.54,1.01-6.61,2.19-2.1,1.19-3.62,2.82-4.26,5.22-.07.26-.27.33-.48.41-.61.25-1.22.48-1.83.75-1.59.69-3.12,1.5-4.56,2.48-.55.38-1.14.78-1.3,1.46-.19.83-.69,1.12-1.42,1.34-2.61.79-5.11,1.91-7.61,3-3.19,1.39-6.31,2.91-9.13,5.01-.42.31-.72.7-.86,1.21-.23.88-.29,1.78-.21,2.69.02.25.12.48.25.69.17.31.42.46.78.45,1.11-.01,2.04-.4,2.75-1.3.13-.16.22-.38.43-.47.37,1.44-.04,2.56-1.27,3.34-.55.35-1.08.72-1.64,1.04-.36.2-.51.48-.58.88-.13.72-.06,1.43.02,2.15.13,1.17.35,2.32.84,3.41.31.67.79,1.1,1.43,1.41,1.5.71,3.07.81,4.68.65,1.07-.11,2.09-.46,3.14-.68,1.51-.32,2.23.46,2.58,1.41.36.99.24,2.01-.19,2.97-.19.42-.63.65-1.08.56-.21-.04-.42-.11-.63-.17-1.04-.34-1.91-.97-2.78-1.6-.9-.66-1.81-1.3-2.8-1.8-.37-.19-.77-.31-1.19-.29-.5.02-.95.44-.99.95-.05.62-.04,1.24.04,1.86.21,1.65.71,3.24,1.18,4.83.28.94.58,1.87,1.13,2.69.66.99,1.44,1.26,2.55.88.93-.32,1.75-.86,2.56-1.4.82-.56,1.69-1.02,2.58-1.47.76-.39,1.12-.15,1.12.73,0,.02,0,.05,0,.07.06,1.44-.24,2.84-.37,4.25-.18,1.88-.36,3.75-.4,5.64-.06,2.69.16,5.35.52,8.01.03.25.14.35.38.39,1.62.28,3.25.47,4.89.54,4,.18,7.95-.2,11.83-1.21.24-.06.26-.15.2-.38-1.07-3.52-1.98-7.07-2.58-10.71-.12-.73-.26-1.47-.24-2.22.08.11.14.23.19.35.42,1.03.83,2.06,1.26,3.09,1.25,2.98,2.65,5.88,4.42,8.58.13.2.23.25.46.17,5.01-1.85,9.55-4.5,13.53-8.11.15-.14.24-.22.06-.43-2.63-3.19-4.97-6.59-7.13-10.11-.72-1.18-1.43-2.36-1.96-3.65.02-.02.03-.03.05-.05Zm-30.26,22.91c-.05-1.1.06-2.17.05-3.23,0-.22-.07-.32-.29-.39-.44-.13-.88-.29-1.31-.47-7.97-3.21-14.24-8.49-18.73-15.94-.15-.25-.26-.25-.47-.11-.75.48-1.51.95-2.28,1.4-.2.12-.2.2-.09.39,1.1,1.94,2.36,3.76,3.79,5.46,4.78,5.65,10.61,9.75,17.49,12.3.59.22,1.18.43,1.83.6Zm.94-9.36c.03-.27-.18-.29-.34-.36-5.23-2.06-9.63-5.29-13.19-9.71-.95-1.18-1.85-2.4-2.66-3.68-.08-.12-.11-.32-.34-.17-.76.49-1.53.96-2.31,1.42-.28.17-.31.31-.13.6,4.11,6.62,9.59,11.6,16.78,14.54.45.18.9.36,1.37.49.1.03.27.14.31-.1.17-1.01.34-2.03.51-3.04Zm28.77-65.09c.05.22,0,.34-.03.46-.5,1.86-.95,3.74-1.39,5.62-.05.22,0,.34.19.45.34.19.67.4,1,.61q.73.44,1.15-.29c1.38-2.38,2.75-4.77,4.13-7.14.14-.25.11-.35-.12-.47-.37-.19-.73-.41-1.07-.64-.23-.16-.33-.12-.47.12-.83,1.45-1.67,2.88-2.51,4.32-.06.1-.08.26-.26.26.54-1.86.94-3.73,1.35-5.6.04-.19-.02-.29-.19-.38-.55-.3-1.09-.6-1.62-.92-.17-.1-.24-.06-.33.1-.31.56-.64,1.11-.96,1.67-1.14,1.96-2.27,3.93-3.42,5.89-.16.28-.12.39.14.53.35.19.69.42,1.02.65.21.15.31.12.44-.11.64-1.13,1.29-2.25,1.94-3.37.32-.55.64-1.1,1.01-1.73Zm-38.74,3.21c.19-.43.22-.79.13-1.16-.2-.82-.71-1.4-1.4-1.82-.74-.45-1.51-.38-2.19.14-.92.71-1.8,1.47-2.7,2.21-.19.16-.21.26-.04.46.92,1.14,1.82,2.29,2.74,3.44.92,1.15,1.85,2.3,2.76,3.46.15.19.25.19.43.04.59-.48,1.2-.93,1.78-1.42.54-.45,1.01-.96,1.36-1.59.17-.3.26-.61.24-.96-.05-.9-.45-1.63-1.08-2.25-.54-.53-1.15-.88-2.03-.55Zm10.03-6.29s.04-.02.07-.03c.06.09.11.18.17.28,1.02,1.7,2.04,3.41,3.05,5.12.14.23.26.3.52.21.52-.17,1.05-.3,1.58-.44.17-.04.26-.08.21-.32-.71-2.9-1.49-5.77-2.24-8.66-.06-.23-.16-.26-.36-.2-.41.13-.81.25-1.23.35-.24.06-.28.16-.22.41.43,1.6.84,3.21,1.26,4.81.03.13.1.25.03.39-.09-.03-.1-.11-.13-.17-.89-1.58-1.85-3.12-2.87-4.62-.12-.17-.21-.25-.44-.18-.56.18-1.12.33-1.69.46-.23.06-.28.14-.22.38.27,1,.5,2.02.77,3.02.48,1.85.98,3.71,1.46,5.56.05.21.12.28.34.2.41-.14.83-.27,1.26-.37.23-.06.29-.14.22-.38-.17-.58-.31-1.17-.47-1.76-.36-1.36-.71-2.72-1.07-4.09Zm6.05-.56c.11,2.17.18,3.66.24,5.14,0,.22.07.3.3.29.5-.04,1-.07,1.49-.07.3,0,.39-.09.37-.41-.08-1.08-.12-2.15-.19-3.23-.01-.23.04-.31.27-.31.29,0,.59.01.87-.03.34-.05.44.08.45.41.04,1.07.1,2.13.15,3.2,0,.17.02.28.24.26.5-.04,1-.03,1.49-.08.53-.04.47.07.44-.5-.09-1.72-.18-3.44-.28-5.16-.06-1.18-.13-2.35-.2-3.53,0-.12.05-.28-.19-.27-.53.03-1.07.05-1.6.05-.29,0-.36.12-.34.4.05.97.07,1.93.11,2.9,0,.22,0,.35-.28.34-.3-.01-.61.02-.91.06-.26.04-.32-.07-.33-.32-.05-.98-.14-1.95-.18-2.93-.01-.29-.1-.35-.37-.33-.47.04-.95.08-1.42.08-.29,0-.36.12-.34.4.09,1.44.15,2.87.19,3.62Zm-32.66,43.7c-1.03.12-1.94.26-2.84.44-.24.05-.29.13-.24.36.17.84.31,1.68.49,2.51.71,3.23,1.79,6.32,3.22,9.29.1.2.18.24.38.14.79-.42,1.57-.83,2.37-1.22.25-.12.26-.25.15-.48-.73-1.59-1.38-3.22-1.93-4.89-.61-1.86-1.08-3.75-1.38-5.69-.03-.18.04-.5-.23-.46Zm43.38-38.86s0,0-.01,0c0,.22,0,.45,0,.67-.01.18.05.27.24.29.52.06,1.04.13,1.55.22.33.06.43-.03.41-.39-.21-2.99-.4-5.98-.59-8.98-.01-.23-.12-.26-.29-.28-.67-.1-1.35-.18-2.02-.3-.23-.04-.32.02-.4.23-.42,1.15-.86,2.29-1.3,3.43-.64,1.69-1.27,3.37-1.91,5.06-.09.24-.05.32.2.35.39.04.76.15,1.15.2.85.1.62.24.91-.53.04-.1.08-.21.11-.31q.29-.81,1.13-.65c.26.05.63-.02.75.17.13.2.05.55.07.83Zm-43.73,21.51c-.98-.07-1.69.43-2.13,1.37-.36.76-.42,1.55-.37,2.39.06.8.76,1.68,1.64,1.89,1.56.37,3.13.72,4.7,1.04,1.31.27,2.32-.19,2.85-1.24.26-.52.42-1.08.47-1.67.08-1-.14-1.87-1.06-2.43-.6-.37-1.26-.5-1.94-.59-.17-.02-.24.05-.27.21-.09.51-.18,1.02-.28,1.53-.04.19.01.25.2.29.36.07.72.1,1.06.26.47.23.63.55.49,1.01-.14.44-.38.57-.92.46-.43-.09-.86-.18-1.28-.27-1.11-.23-2.21-.46-3.32-.69-.31-.06-.57-.21-.61-.55-.04-.35.06-.67.38-.86.2-.12.41-.14.63-.1.23.04.45.09.68.14.13.03.22.02.24-.13.1-.54.2-1.07.3-1.6.03-.18-.02-.27-.21-.31-.39-.09-.79-.16-1.26-.15Zm49.26-22.35c-.04-.15,0-.3.02-.44.3-1.84.6-3.69.83-5.55.03-.23-.03-.33-.25-.4-.48-.14-.96-.28-1.42-.46-.33-.13-.41-.03-.44.3-.1,1.11-.22,2.22-.33,3.33-.19,1.87-.37,3.75-.57,5.62-.02.19.04.26.21.31.63.2,1.25.41,1.87.64.25.09.36.02.49-.2.45-.81.91-1.61,1.37-2.41,1.01-1.77,2.01-3.54,3.02-5.3.18-.3.12-.4-.2-.48-.47-.12-.93-.29-1.38-.46-.24-.09-.35-.05-.47.19-.84,1.68-1.69,3.35-2.54,5.02-.05.1-.08.23-.2.3Zm-46.2,39.47c.03.2.06.39.09.59.56,3.35,1.56,6.56,3.09,9.6.12.24.22.25.44.13.76-.41,1.53-.81,2.3-1.2.28-.14.37-.26.2-.59-.6-1.16-1.08-2.38-1.5-3.62-.57-1.7-1.01-3.44-1.31-5.21-.04-.26-.09-.41-.42-.35-.89.16-1.78.27-2.67.39-.18.02-.23.11-.21.27Zm19.52-42.95c-.03-.06-.05-.1-.07-.14-.19-.36-.38-.72-.55-1.09-.09-.19-.17-.18-.33-.1-1.34.7-2.68,1.4-4.03,2.08-.18.09-.22.17-.12.37.33.64.64,1.28.95,1.92.99,2,1.97,4.01,2.96,6.01.06.13.07.32.32.19,1.41-.75,2.83-1.48,4.25-2.21.16-.08.19-.16.1-.31-.19-.35-.37-.7-.53-1.06-.09-.2-.18-.24-.38-.13-.71.37-1.44.71-2.16,1.08-.21.11-.31.06-.41-.16-.23-.51-.48-1-.74-1.49-.13-.23-.05-.31.14-.41.66-.33,1.3-.67,1.96-.99.19-.09.26-.18.13-.39-.2-.34-.38-.69-.55-1.05-.09-.2-.19-.2-.37-.11-.66.34-1.33.67-1.99,1.01-.17.09-.25.06-.34-.11-.19-.4-.39-.8-.61-1.19-.13-.24-.11-.35.14-.48.68-.34,1.34-.71,2-1.07.09-.05.22-.06.22-.2Zm-21.17,39.29c0,.05,0,.11,0,.16,1.41,0,2.82-.01,4.23,0,.31,0,.39-.09.38-.39-.01-.5,0-.99.03-1.49.02-.27-.05-.36-.33-.36-1.11-.01-2.21-.06-3.32-.09-.26,0-.36-.08-.35-.36.02-.72,0-1.44.01-2.16,0-.23-.06-.3-.29-.29-.36.01-.73.01-1.09-.02-.26-.02-.33.06-.33.32,0,.73-.04,1.46-.05,2.19,0,.2-.05.29-.26.27-.4-.03-.8-.03-1.2-.04-.24,0-.3-.11-.29-.34.01-.81,0-1.61,0-2.42,0-.21-.06-.28-.26-.28-.39,0-.78-.02-1.17-.06-.28-.03-.34.07-.34.34,0,1.53,0,3.05-.01,4.58,0,.32.07.43.39.42,1.41-.02,2.82,0,4.23,0Zm3.12-5.49c-.12.03-.32-.11-.34.14-.06.63-.11,1.26-.16,1.89-.01.16.08.19.2.2.54.05,1.09.11,1.63.17.16.02.25-.01.27-.2.05-.59.11-1.18.17-1.77.02-.17-.03-.25-.21-.26-.52-.05-1.04-.11-1.56-.16Zm3.83-8.51c0-.13-.09-.15-.16-.17-.5-.18-1.01-.35-1.51-.53-.19-.07-.26,0-.31.18-.18.53-.37,1.05-.57,1.57-.07.18-.03.26.15.32.51.16,1.02.32,1.53.5.2.07.25,0,.3-.18.16-.51.35-1,.52-1.51.02-.06.04-.12.06-.17Z"/><path class="cls-4" d="m221.93,104.81c.33.33.73.58,1.11.83,3.45,2.29,6.71,4.84,9.93,7.46.22.18.26.32.15.58-1.94,4.87-4.68,9.21-8.19,13.05-.22.24-.33.11-.49-.02-2.92-2.47-5.62-5.16-8.19-8.01-.92-1.02-1.83-2.06-2.71-3.12-.11-.13-.23-.25-.35-.38-.02-.02-.04-.04-.06-.06-.04.04-.02.08.01.11.53,1.28,1.23,2.47,1.96,3.65,2.17,3.53,4.51,6.92,7.13,10.11.18.21.09.29-.06.43-3.99,3.61-8.53,6.27-13.53,8.11-.23.09-.33.03-.46-.17-1.78-2.7-3.18-5.6-4.42-8.58-.43-1.03-.84-2.06-1.26-3.09-.05-.12-.1-.24-.19-.35-.02.76.12,1.49.24,2.22.6,3.63,1.52,7.19,2.58,10.71.07.22.05.31-.2.38-3.89,1-7.83,1.39-11.83,1.21-1.64-.07-3.27-.26-4.89-.54-.24-.04-.35-.14-.38-.39-.36-2.66-.58-5.33-.52-8.01.04-1.89.23-3.76.4-5.64.13-1.42.44-2.82.37-4.25,0-.02,0-.05,0-.07,0-.87-.35-1.12-1.12-.73-.88.45-1.75.91-2.58,1.47-.81.55-1.63,1.08-2.56,1.4-1.11.38-1.9.12-2.55-.88-.54-.82-.85-1.75-1.13-2.69-.47-1.59-.96-3.17-1.18-4.83-.08-.62-.09-1.24-.04-1.86.04-.51.49-.93.99-.95.43-.02.82.1,1.19.29.99.5,1.9,1.15,2.8,1.8.87.64,1.75,1.27,2.78,1.6.21.07.42.13.63.17.44.09.89-.14,1.08-.56.43-.97.55-1.98.19-2.97-.35-.96-1.07-1.73-2.58-1.41-1.05.22-2.07.57-3.14.68-1.61.16-3.18.06-4.68-.65-.64-.3-1.13-.74-1.43-1.41-.5-1.09-.71-2.23-.84-3.41-.08-.72-.15-1.43-.02-2.15.07-.39.22-.67.58-.88.56-.32,1.09-.69,1.64-1.04,1.23-.79,1.64-1.9,1.27-3.34-.21.09-.3.3-.43.47-.71.89-1.64,1.28-2.75,1.3-.36,0-.6-.15-.78-.45-.12-.22-.23-.45-.25-.69-.08-.91-.02-1.81.21-2.69.13-.51.43-.89.86-1.21,2.82-2.1,5.94-3.62,9.13-5.01,2.5-1.09,5-2.21,7.61-3,.74-.22,1.23-.51,1.42-1.34.16-.68.75-1.08,1.3-1.46,1.44-.99,2.97-1.79,4.56-2.48.6-.26,1.22-.5,1.83-.75.2-.08.41-.16.48-.41.65-2.4,2.16-4.03,4.26-5.22,2.07-1.17,4.27-1.88,6.61-2.19,3.52-.47,7.04-.46,10.57-.16,2.29.19,4.56.55,6.8,1.11.19.05.32.14.43.3,3.28,5.06,5.36,10.59,6.31,16.58,0,.06,0,.12,0,.21-4.5-1.39-9.06-2.42-13.71-3,.36.13.72.26,1.08.38,4.44,1.55,8.68,3.55,12.78,5.86.17.09.24.2.26.4.12,1.76.12,3.52.02,5.28-.19,3.26-.72,6.45-1.66,9.57-.1.35-.21.34-.48.2-3.34-1.7-6.68-3.39-10.15-4.79-.59-.24-1.17-.49-1.78-.66-.03-.05-.09-.07-.11-.03-.03.05.04.05.08.07Zm-27.08-16.33c-.41-.02-.77.24-.87.65-.05.21-.08.44-.09.66-.05,1.05-.19,1.25-1.14,1.59-.18.07-.37.13-.48.31-.06.1-.1.22-.04.31.07.11.18,0,.26-.02.37-.16.72-.38,1.1-.49.81-.23,1.64-.37,2.47-.47.82-.1,1.64-.19,2.46-.28.1-.01.21-.01.26-.11.05-.1-.04-.16-.1-.22-1.07-1.06-2.34-1.7-3.82-1.92Zm26.92-.03s-.04-.03-.07-.03c-.02,0-.04.01-.07.02.02,0,.04.03.06.03.02,0,.04-.01.07-.02Z"/><path class="cls-6" d="m182.94,138.11c-.65-.16-1.24-.38-1.83-.6-6.88-2.56-12.71-6.65-17.49-12.3-1.43-1.69-2.69-3.52-3.79-5.46-.11-.19-.1-.27.09-.39.77-.45,1.53-.92,2.28-1.4.21-.13.32-.14.47.11,4.49,7.45,10.76,12.74,18.73,15.94.43.17.86.33,1.31.47.22.06.29.17.29.39,0,1.07-.11,2.13-.05,3.23Z"/><path class="cls-4" d="m162.42,79.37c-.8-1.05-1.57-2.11-2.33-3.19-.16-.23-.17-.39-.03-.63.31-.51.6-1.04.9-1.56.16.06.2.19.26.29.71,1.06,1.42,2.11,2.11,3.17.18.28.38.42.72.46,1.59.21,3.18.47,4.77.7.04,0,.07,0,.12,0-.03-.37-.19-.59-.55-.71-.9-.3-1.62-.9-2.3-1.54-.76-.7-1.5-1.41-2.25-2.13-1.09-1.04-1.23-2.4-.38-3.65.41-.6.9-1.11,1.54-1.45.25-.13.28-.27.16-.48-.15-.26-.12-.39.2-.49.57-.18.57-.21.79.37.09.24.21.38.46.47.82.32,1.5.86,2.13,1.47.84.81,1.75,1.55,2.51,2.43.95,1.1.99,2.14.19,3.35-.37.56-.81,1.06-1.39,1.4-.25.15-.29.3-.16.53.14.25.08.43-.2.46-.81.11-1.04.82-1.38,1.4-.33.55-.32.55-.95.44-.93-.16-1.87-.31-2.9-.48.36.49.53,1.01,1.04,1.29.43.23.83.51,1.26.76.16.09.23.17.11.37-.3.48-.58.97-.86,1.47-.09.17-.17.19-.34.09-2.5-1.5-5.01-3-7.52-4.49-.2-.12-.21-.21-.09-.4.27-.44.53-.89.77-1.35.12-.22.22-.26.44-.12,1.03.61,2.07,1.2,3.11,1.8.03,0,.06,0,.09.01-.01-.03-.03-.06-.04-.08Zm5.53-6.46s-.03-.03-.04-.05c0,.01,0,.02,0,.03.02,0,.03,0,.05,0-.06.15.03.26.08.39.27.72.55,1.43.82,2.14.14.37.36.51.64.43.28-.08.48-.45.4-.78-.09-.38-.29-.71-.56-.99-.43-.44-.9-.83-1.4-1.18Zm-.72,1.4c-.02-.14,0-.2-.03-.26-.35-.89-.7-1.77-1.05-2.65-.05-.13-.14-.2-.26-.24-.3-.1-.59-.07-.79.2-.19.25-.23.53-.04.82.55.84,1.37,1.4,2.17,2.12Z"/><path class="cls-6" d="m183.88,128.75c-.17,1.01-.34,2.02-.51,3.04-.04.24-.21.13-.31.1-.47-.13-.92-.3-1.37-.49-7.19-2.93-12.67-7.91-16.78-14.54-.18-.29-.15-.43.13-.6.78-.46,1.55-.94,2.31-1.42.24-.15.27.05.34.17.82,1.28,1.71,2.5,2.66,3.68,3.56,4.41,7.96,7.64,13.19,9.71.16.06.38.09.34.36Z"/><path class="cls-4" d="m212.65,63.66c-.36.63-.69,1.18-1.01,1.73-.65,1.12-1.3,2.24-1.94,3.37-.13.23-.23.26-.44.11-.33-.23-.67-.46-1.02-.65-.26-.14-.3-.25-.14-.53,1.15-1.96,2.28-3.92,3.42-5.89.32-.55.65-1.11.96-1.67.09-.16.16-.2.33-.1.53.32,1.08.63,1.62.92.17.09.23.19.19.38-.42,1.87-.82,3.74-1.35,5.6.18,0,.2-.16.26-.26.84-1.44,1.68-2.87,2.51-4.32.14-.24.24-.28.47-.12.34.24.7.45,1.07.64.24.13.27.23.12.47-1.39,2.38-2.76,4.76-4.13,7.14q-.42.73-1.15.29c-.33-.2-.66-.42-1-.61-.2-.11-.24-.23-.19-.45.43-1.88.88-3.76,1.39-5.62.03-.12.09-.23.03-.46Z"/><path class="cls-4" d="m173.91,66.87c.88-.32,1.49.02,2.03.55.63.61,1.03,1.34,1.08,2.25.02.34-.07.66-.24.96-.35.62-.82,1.14-1.36,1.59-.59.48-1.2.93-1.78,1.42-.18.15-.29.14-.43-.04-.92-1.16-1.84-2.31-2.76-3.46-.91-1.14-1.81-2.3-2.74-3.44-.17-.2-.15-.31.04-.46.9-.73,1.78-1.5,2.7-2.21.68-.52,1.44-.59,2.19-.14.69.42,1.2,1.01,1.4,1.82.09.37.06.73-.13,1.16Zm.99,3.12c0-.48-.57-1.25-1.02-1.38-.14-.04-.29-.04-.43,0-.29.1-.53.29-.77.49-.1.09-.08.15,0,.24.44.55.88,1.11,1.33,1.67.04.05.09.14.17.06.29-.33.76-.53.72-1.09Zm-2.58-3.14c-.03-.22-.16-.43-.3-.63-.51-.69-1.04-.71-1.64-.09-.1.11-.13.18-.03.31.36.44.71.88,1.06,1.32.04.05.08.12.18.09.24-.07.73-.71.74-1Z"/><path class="cls-4" d="m183.94,60.59c.36,1.36.71,2.72,1.07,4.09.15.59.3,1.17.47,1.76.07.24,0,.32-.22.38-.42.1-.85.23-1.26.37-.22.07-.29,0-.34-.2-.48-1.86-.98-3.71-1.46-5.56-.26-1.01-.5-2.02-.77-3.02-.06-.24-.02-.33.22-.38.57-.14,1.13-.28,1.69-.46.23-.07.32,0,.44.18,1.02,1.5,1.98,3.04,2.87,4.62.03.06.05.14.13.17.07-.14,0-.26-.03-.39-.42-1.6-.83-3.21-1.26-4.81-.07-.24-.02-.35.22-.41.41-.1.82-.22,1.23-.35.2-.06.3-.03.36.2.75,2.88,1.53,5.76,2.24,8.66.06.24-.03.27-.21.32-.53.14-1.06.27-1.58.44-.26.09-.39.02-.52-.21-1.01-1.71-2.03-3.41-3.05-5.12-.06-.09-.11-.18-.17-.28-.02.01-.04.02-.07.03Z"/><path class="cls-4" d="m190,60.02c-.04-.75-.11-2.19-.19-3.62-.02-.28.05-.4.34-.4.47,0,.95-.04,1.42-.08.26-.02.35.03.37.33.04.98.13,1.95.18,2.93.01.25.07.35.33.32.3-.04.61-.07.91-.06.27,0,.29-.12.28-.34-.04-.97-.06-1.93-.11-2.9-.01-.28.05-.4.34-.4.54,0,1.07-.02,1.6-.05.24-.01.18.15.19.27.07,1.18.14,2.35.2,3.53.09,1.72.19,3.44.28,5.16.03.57.09.45-.44.5-.5.04-1,.04-1.49.08-.22.02-.23-.09-.24-.26-.05-1.07-.11-2.13-.15-3.2-.01-.33-.11-.46-.45-.41-.29.04-.58.04-.87.03-.23,0-.29.08-.27.31.07,1.08.11,2.15.19,3.23.02.31-.07.41-.37.41-.5,0-1,.03-1.49.07-.23.02-.29-.06-.3-.29-.06-1.49-.14-2.97-.24-5.14Z"/><path class="cls-6" d="m157.33,103.72c.27-.05.2.27.23.46.29,1.94.77,3.83,1.38,5.69.55,1.67,1.2,3.3,1.93,4.89.11.24.1.36-.15.48-.8.39-1.59.8-2.37,1.22-.2.1-.28.07-.38-.14-1.43-2.97-2.52-6.06-3.22-9.29-.18-.83-.32-1.68-.49-2.51-.05-.23,0-.31.24-.36.91-.19,1.82-.33,2.84-.44Z"/><path class="cls-4" d="m200.71,64.87c-.01-.28.06-.63-.07-.83-.12-.19-.49-.12-.75-.17q-.84-.16-1.13.65c-.04.1-.08.21-.11.31-.29.78-.06.63-.91.53-.39-.05-.76-.16-1.15-.2-.26-.03-.3-.11-.2-.35.64-1.68,1.28-3.37,1.91-5.06.43-1.14.87-2.28,1.3-3.43.08-.21.17-.27.4-.23.67.12,1.35.2,2.02.3.17.02.28.06.29.28.19,2.99.38,5.99.59,8.98.03.36-.07.45-.41.39-.51-.09-1.03-.16-1.55-.22-.19-.02-.25-.11-.24-.29.01-.22,0-.45,0-.67,0,0,0,0,.01,0Zm-.02-6.54c-.46,1.12-.76,2.27-1.08,3.42-.08.27-.04.38.26.38.2,0,.4.07.61.11.14.03.23.02.23-.17,0-1.25,0-2.5,0-3.75Z"/><path class="cls-4" d="m156.98,86.38c.48,0,.87.06,1.26.15.19.04.24.14.21.31-.1.53-.2,1.07-.3,1.6-.03.15-.12.16-.24.13-.22-.05-.45-.09-.68-.14-.22-.04-.44-.02-.63.1-.32.2-.43.51-.38.86.04.34.3.49.61.55,1.11.23,2.21.46,3.32.69.43.09.86.19,1.28.27.54.11.78-.02.92-.46.14-.46-.01-.79-.49-1.01-.34-.16-.7-.2-1.06-.26-.19-.04-.24-.1-.2-.29.1-.51.19-1.02.28-1.53.03-.16.1-.23.27-.21.68.1,1.34.23,1.94.59.91.56,1.14,1.43,1.06,2.43-.05.59-.21,1.14-.47,1.67-.53,1.05-1.54,1.51-2.85,1.24-1.57-.32-3.14-.67-4.7-1.04-.88-.21-1.58-1.09-1.64-1.89-.06-.84.01-1.63.37-2.39.44-.95,1.16-1.44,2.13-1.37Z"/><path class="cls-4" d="m206.24,64.02c.13-.07.15-.2.2-.3.85-1.67,1.71-3.34,2.54-5.02.12-.24.23-.28.47-.19.45.17.91.34,1.38.46.32.09.37.18.2.48-1.02,1.76-2.02,3.53-3.02,5.3-.46.8-.92,1.6-1.37,2.41-.12.22-.24.3-.49.2-.62-.23-1.24-.44-1.87-.64-.17-.05-.23-.12-.21-.31.2-1.87.38-3.75.57-5.62.11-1.11.23-2.22.33-3.33.03-.33.1-.43.44-.3.46.18.94.32,1.42.46.22.06.27.17.25.4-.24,1.86-.53,3.7-.83,5.55-.02.14-.07.28-.02.44Z"/><path class="cls-6" d="m160.04,103.49c-.02-.16.03-.25.21-.27.89-.12,1.78-.23,2.67-.39.34-.06.38.09.42.35.3,1.77.74,3.51,1.31,5.21.42,1.24.9,2.46,1.5,3.62.17.33.08.45-.2.59-.77.39-1.54.79-2.3,1.2-.22.12-.32.11-.44-.13-1.53-3.03-2.52-6.24-3.09-9.6-.03-.2-.06-.39-.09-.59Z"/><path class="cls-4" d="m179.56,60.55c0,.14-.14.15-.22.2-.66.36-1.33.73-2,1.07-.25.13-.28.24-.14.48.22.39.41.79.61,1.19.08.17.17.19.34.11.66-.35,1.33-.67,1.99-1.01.17-.09.27-.09.37.11.17.36.35.71.55,1.05.13.21.05.3-.13.39-.65.33-1.3.67-1.96.99-.19.1-.27.18-.14.41.27.48.51.98.74,1.49.1.22.2.26.41.16.72-.37,1.44-.71,2.16-1.08.2-.11.29-.07.38.13.16.36.35.71.53,1.06.08.16.05.23-.1.31-1.42.73-2.84,1.46-4.25,2.21-.25.13-.26-.07-.32-.19-.99-2-1.97-4.01-2.96-6.01-.32-.64-.63-1.29-.95-1.92-.1-.19-.06-.27.12-.37,1.35-.69,2.69-1.38,4.03-2.08.16-.08.25-.09.33.1.17.37.37.73.55,1.09.02.04.04.09.07.14Z"/><path class="cls-4" d="m158.39,99.84c-1.41,0-2.82,0-4.23,0-.33,0-.4-.11-.39-.42.02-1.53.02-3.05.01-4.58,0-.27.05-.38.34-.34.39.04.78.06,1.17.06.21,0,.26.07.26.28-.01.81,0,1.61,0,2.42,0,.23.06.34.29.34.4,0,.8,0,1.2.04.22.01.26-.07.26-.27,0-.73.05-1.46.05-2.19,0-.26.08-.34.33-.32.36.03.73.03,1.09.02.22,0,.29.06.29.29-.01.72,0,1.44-.01,2.16,0,.29.09.36.35.36,1.11.02,2.21.07,3.32.09.28,0,.35.09.33.36-.03.49-.05.99-.03,1.49,0,.3-.07.39-.38.39-1.41-.02-2.82,0-4.23,0,0-.05,0-.11,0-.16Z"/><path class="cls-4" d="m161.51,94.35c.52.06,1.04.12,1.56.16.18.02.23.09.21.26-.06.59-.12,1.18-.17,1.77-.02.18-.11.22-.27.2-.54-.06-1.09-.11-1.63-.17-.12-.01-.21-.04-.2-.2.06-.63.1-1.26.16-1.89.02-.25.22-.11.34-.14Z"/><path class="cls-4" d="m165.33,85.84s-.04.11-.06.17c-.18.5-.36,1-.52,1.51-.06.17-.11.25-.3.18-.5-.18-1.02-.34-1.53-.5-.18-.05-.22-.13-.15-.32.2-.52.39-1.04.57-1.57.06-.17.13-.25.31-.18.5.18,1.01.35,1.51.53.07.03.17.04.16.17Z"/><path class="cls-7" d="m194.85,88.48c1.48.22,2.75.86,3.82,1.92.06.06.15.12.1.22-.05.1-.16.1-.26.11-.82.09-1.64.18-2.46.28-.83.1-1.66.24-2.47.47-.38.11-.73.33-1.1.49-.08.03-.19.13-.26.02-.06-.09-.02-.21.04-.31.11-.18.3-.24.48-.31.95-.34,1.09-.54,1.14-1.59.01-.22.03-.45.09-.66.1-.41.47-.67.87-.64Z"/><path class="cls-7" d="m221.77,88.45s-.05.02-.07.02c-.02,0-.04-.02-.06-.03.02,0,.05-.02.07-.02.02,0,.04.02.07.03Z"/><path class="cls-7" d="m221.93,104.81s-.1-.01-.08-.07c.02-.04.08-.02.11.03-.01.01-.02.02-.03.04Z"/><path class="cls-7" d="m213.15,115.25s-.05-.07-.01-.11c.02.02.04.04.06.06-.02.02-.03.03-.05.05Z"/><path class="cls-7" d="m167.24,74.32c-.8-.72-1.62-1.28-2.17-2.12-.19-.29-.16-.57.04-.82.2-.27.49-.3.79-.2.12.04.21.11.26.24.35.89.7,1.77,1.05,2.65.02.05.01.12.03.26Z"/><path class="cls-7" d="m167.95,72.91c.5.36.97.74,1.4,1.18.27.28.47.6.56.99.08.34-.12.7-.4.78-.28.08-.5-.07-.64-.43-.28-.71-.56-1.43-.82-2.14-.05-.12-.14-.24-.08-.39h0Z"/><path class="cls-7" d="m167.96,72.9s-.03,0-.05,0c0-.01,0-.02,0-.03.01.02.03.03.04.05,0,0,0,0,0,0Z"/><path class="cls-7" d="m162.42,79.37s.03.06.04.08c-.03,0-.06,0-.09-.01.02-.02.04-.05.05-.07Z"/><path class="cls-7" d="m174.9,69.99c.04.56-.43.76-.72,1.09-.07.08-.13,0-.17-.06-.44-.56-.88-1.11-1.33-1.67-.07-.09-.1-.16,0-.24.23-.2.47-.39.77-.49.14-.05.29-.05.43,0,.45.13,1.01.89,1.02,1.38Z"/><path class="cls-7" d="m172.32,66.85c0,.29-.5.93-.74,1-.1.03-.13-.04-.18-.09-.35-.44-.7-.88-1.06-1.32-.1-.13-.07-.2.03-.31.6-.62,1.13-.59,1.64.09.15.2.28.4.3.63Z"/><path class="cls-7" d="m200.69,58.33c0,1.25,0,2.5,0,3.75,0,.19-.08.2-.23.17-.2-.04-.4-.11-.61-.11-.29,0-.33-.12-.26-.38.33-1.15.62-2.3,1.08-3.42Z"/><ellipse class="cls-16" cx="244.99" cy="14.05" rx="16.41" ry="9.57" transform="translate(1.09 41.06) rotate(-9.6)"/><rect class="cls-5" x="219.46" y="301.96" width="66" height="6"/><path class="cls-12" d="m317.46,192.72v6.44c1.14.04,10.83.19,17.3-7.72,5.31-6.51,4.76-13.95,4.61-15.48h-6.44c.17.63,1.73,6.87-2.5,12.06-3.08,3.79-8.07,5.58-12.97,4.69Z"/><path class="cls-12" d="m349.71,175.96h-6.44c-.04,1.14-.19,10.83,7.72,17.3,6.51,5.31,13.95,4.76,15.48,4.61v-6.44c-.63.17-6.87,1.73-12.06-2.5-3.79-3.08-5.58-8.07-4.69-12.97Z"/><path class="cls-12" d="m334.22,222.96h6.44c.04-1.14.19-10.83-7.72-17.3-6.51-5.31-13.95-4.76-15.48-4.61v6.44c.63-.17,6.87-1.73,12.06,2.5,3.79,3.08,5.58,8.07,4.69,12.97Z"/><path class="cls-12" d="m366.46,206.2v-6.44c-1.14-.04-10.83-.19-17.3,7.72-5.31,6.51-4.76,13.95-4.61,15.48h6.44c-.17-.63-1.73-6.87,2.5-12.06,3.08-3.79,8.07-5.58,12.97-4.69Z"/></g><g id="sur"><rect class="cls-2" x="303.22" y="215.6" width="4.11" height="36.26" transform="translate(420.08 -133.2) rotate(69.94)"/><rect class="cls-2" x="199.19" y="215.82" width="4.11" height="36.26" transform="translate(-97.97 309.45) rotate(-63.46)"/></g></svg>