<?xml version="1.0" encoding="UTF-8"?><svg id="Layer_1" xmlns="http://www.w3.org/2000/svg" width="480" height="480" viewBox="0 0 480 480"><defs><style>.cls-1,.cls-2,.cls-3,.cls-4,.cls-5,.cls-6,.cls-7{stroke-width:0px;}.cls-2{fill:#6d6d6d;}.cls-3{fill:#3c3c3c;}.cls-4{fill:#b9b9b9;}.cls-5{fill:#fdfdfd;}.cls-6{fill:#fff;}.cls-7{fill:red;}</style></defs><g id="surfod"><g id="BsboDP.tif"><path class="cls-1" d="m258.37,2.45c4.48,1.46,9.19,1.22,13.79,1.83,46.54,6.23,87.62,24.55,123.08,55.35,41.74,36.25,67.64,81.82,77.85,135.92,18.88,99.99-23.24,191.79-101.2,243.72-30.02,20-63.09,32.41-99.2,36.29-22.72,2.44-45.49,2.79-68.11.25-20.14-2.26-39.41-8.61-57.95-16.84-48.21-21.42-86.36-54.32-112.89-100.12-15.8-27.27-25.6-56.67-29.47-88.01-.54-4.37-.22-8.89-1.84-13.11v-3.3c.56-2.64.56-5.28,0-7.92v-13.19c.73-2.27.15-4.6.34-6.89-.15-19.88,4.13-39.03,9.92-57.89,9.87-32.13,26.75-60.28,48.71-85.58,21.99-25.32,48.02-45.3,78.29-59.68,22.3-10.6,45.69-17.6,70.32-20.03,4.34-.43,8.75-.63,13.15-.46,2.72-.17,5.46.37,8.16-.34h27.04Z"/><path class="cls-4" d="m222.71,3c0-.19.02-.37.04-.56h8.58c-2.8,1.23-5.73.51-8.61.56Z"/><path class="cls-3" d="m2.43,246.51c.89,2.64,1.29,5.28,0,7.92v-7.92Z"/><path class="cls-2" d="m2.43,226.06c.18-.09.37-.12.56-.09.15,2.47.42,4.96-.56,7.34v-7.26Z"/><path class="cls-1" d="m219.12,165.63c13.59,1.52,29.35,1.17,45.13-.67,6.21-.72,12.54-.6,18.66,1.11,9.95,2.78,16.21,9.1,18.48,19.32,3.61,16.31,9.56,31.92,14.63,47.79,3.21,10.04,6.14,20.14,7.99,30.53.37,2.06-.18,3.18-1.6,4.5-18.38,17.09-38.57,31.94-58.25,47.43-4.57,3.6-9.13,7.22-13.64,10.91-4.84,3.96-10.02,4.53-15.67,1.95-3.64-1.66-6.92-3.88-9.77-6.62-13.14-12.64-27.93-22.99-43.65-32.15-7.52-4.38-14.46-9.6-20.12-16.33-1.06-1.26-2.05-2.58-3.03-3.89-4.25-5.66-5.44-11.14-2.61-18.42,7.83-20.11,14.16-40.79,21.97-60.93.47-1.21.64-2.55.82-3.85,1.65-11.92,8.39-18.59,20.34-20.27,6.03-.84,12.06-.63,20.31-.42Z"/><path class="cls-5" d="m239.25,373.96c-.68,7.36-.87,14.7-.28,22.07.63,7.96-2.73,13.82-9.94,17.35-5.59,2.74-11.59,4.11-17.71,4.79-13.36,1.47-26.25,4.87-39.12,8.59-11.08,3.21-21.72,1.8-32.15-3.72-20.47-10.83-37.44-25.9-53.89-41.9-7.9-7.68-9.9-16.99-11.12-26.93-2.06-16.83.14-33.54,1.37-50.31.44-5.95,3.45-9.37,7.63-12.55,9.95-7.57,21.55-11.15,33.54-13.7,10.1-2.15,20.36-3.35,30.59-4.76,1.75-.24,3.11.15,4.55,1.2,22.46,16.35,45.21,32.31,67.12,49.42.43.34.84.74,1.32.97,13.49,6.6,17.63,18.47,18.06,32.33.18,5.71.03,11.43.03,17.14Z"/><path class="cls-5" d="m403.1,312.36c-.2,12.4-3.6,24.29-5.85,36.36-1.13,6.05-1.72,12.14-2.12,18.29-.52,7.92-4.42,14.61-9.1,20.8-7.69,10.17-17.87,17.45-28.55,24.07-7.92,4.91-16.04,9.5-24.05,14.28-7.86,4.68-16.44,4.27-24.98,3.34-14.21-1.55-27.3-7.21-40.69-11.7-3.43-1.15-6.8-2.64-10.32-3.33-7.03-1.37-10.61-6.17-12.99-12.22-2.98-7.56-2.79-15.47-2.23-23.4.75-10.51,3.09-20.95,2.63-31.48-.24-5.44,1.71-8.99,5.13-12.64,10.76-11.47,23.6-20.33,36.24-29.46,10.52-7.59,20.73-15.52,29.87-24.8,8.68-8.83,19.46-9.63,30.91-7.22,10.44,2.2,20.25,6.49,30.54,9.19,3.08.81,6.16,1.61,9.35,1.83,2.16.15,3.96,1.01,5.66,2.34,8.43,6.59,10.73,15.66,10.56,25.75Z"/><path class="cls-5" d="m245.22,160.08c-15.16.17-30.33.28-45.48.76-2.03.06-3.83-.32-5.67-1.23-13.23-6.53-22.71-17.05-30.94-28.9-6.02-8.67-10.81-18.04-15.42-27.51-.78-1.61-.41-2.82.24-4.27,9.37-20.76,23.42-37.94,39.85-53.51,8.76-8.31,19.41-10.67,30.59-11.98,16.27-1.9,32.46.61,48.69,1.12,10.56.33,19.35,4.19,27.36,10.57,7.02,5.6,12.62,12.5,17.93,19.67,6.99,9.43,13.51,19.2,20.93,28.33,3.28,4.04,2.37,9.21,1.22,13.95-2.12,8.67-7.31,15.66-13.02,22.22-6.92,7.95-14.67,15.24-21.04,23.6-4.2,5.51-8.63,7.53-15.35,7.3-13.28-.44-26.58-.13-39.88-.13Z"/><path class="cls-5" d="m34.08,217.61c1.62-23.35,8.48-45.3,18.86-66.25,1.89-3.83,3.77-7.67,5.61-11.52,5.7-11.95,15.95-18.31,27.83-22.63,12.42-4.51,25.41-6.87,38.26-9.66,8.84-1.92,16.39,1.55,22.77,7.67,6.98,6.7,11.84,14.93,16.61,23.21,4.82,8.36,9.15,17.02,15.13,24.65,1.14,1.45.53,2.63.12,3.97-8.24,27.18-18.51,53.67-27.72,80.51-4.44,12.94-12.85,20.4-25.42,24.3-9.35,2.9-19.06,4.23-28.46,6.88-3.16.89-6.32,1.86-9.37,3.06-3.27,1.29-6.29,1.21-9.53-.17-7.88-3.36-13.52-9.24-18.47-15.94-5.82-7.88-10.24-16.6-14.93-25.16-3.22-5.87-6.35-11.8-10.39-17.14-1.4-1.85-.79-3.75-.9-5.77Z"/><path class="cls-5" d="m354.85,110.42c8.01.05,15.23,3,22.36,6.17,10.72,4.76,20.67,11.3,31.95,14.67,5.21,1.56,8.21,4.47,10.85,8.88,12.06,20.11,20.11,41.64,23.47,64.85.82,5.64-1.21,11.07-2.9,16.41-3.9,12.35-10.53,23.34-17.18,34.33-5.22,8.63-10.72,17.11-15.25,26.14-.7,1.39-1.61,1.9-3.06,1.93-3.09.08-6.3.24-9.14-.86-11.86-4.56-24.39-6.4-36.6-9.52-2.12-.54-4.2-1.26-6.34-1.77-14.61-3.5-23.64-12.84-28.78-26.71-4.17-11.26-6.71-22.94-9.78-34.48-1.84-6.9-3.73-13.8-6.97-20.18-6.43-12.68-5.04-24.75,2.14-36.6,4.06-6.71,9.09-12.65,14.12-18.62,4.81-5.71,9.59-11.44,14.15-17.37,4.15-5.4,10.23-7.29,16.94-7.26Z"/><path class="cls-1" d="m240.76,417.82c8.76-.01,19.2,2.52,29.51,5.65,9.64,2.93,19.22,6.09,28.81,9.2,10.85,3.52,14.44,12.92,7.65,21.54-8.98,11.41-21.05,17.78-35.69,17.03-6.41-.33-12.65.39-18.96.47-21.43.27-42.81-.2-63.83-4.95-6.25-1.41-11.93-4.27-17.3-7.79-3.83-2.51-6.41-5.9-8.12-10.06-2.75-6.69-1.09-11.71,5.22-15.32,5.51-3.15,11.64-4.51,17.79-5.63,11.97-2.18,24.01-3.86,35.56-8.02,5.5-1.98,11.4-2.18,19.37-2.11Z"/><path class="cls-1" d="m469.16,276.63c-.14,5.06-.52,10.54-2.31,15.79-6.79,20.02-13.08,40.24-23.14,58.97-3.9,7.27-8.61,13.99-13.82,20.4-2.46,3.02-5.35,4.45-9.14,5-13.59,1.98-22.53-6.73-19.33-20.07,3.94-16.45,4.42-33.26,6.65-49.88,1.59-11.85,4.81-23.1,11.57-33.23,4.64-6.94,7.44-14.87,10.94-22.43,2.95-6.38,6.02-12.71,10.89-17.91,6.79-7.25,8.18-7.18,13.63.79,8.68,12.7,13.82,26.6,14.06,42.57Z"/><path class="cls-1" d="m62.34,97.38c-.17-2.28.82-5.15,2.74-7.89,7.89-11.26,17.72-20.59,28.4-29.15,18.16-14.55,38.29-25.9,58.99-36.27,6.62-3.32,13.76-5.06,21.26-5.17,1.79-.03,3.11.52,4.39,1.7,6.07,5.56,7.53,12.1,4.2,19.67-2.37,5.39-6.04,9.92-9.88,14.29-4.13,4.7-8.42,9.27-12.58,13.94-3.22,3.61-6.07,7.46-8.46,11.71-6.45,11.48-16.94,17.73-28.99,21.86-10.39,3.57-21.24,5.4-31.78,8.41-4.53,1.3-9.02,2.67-13.27,4.78-4.31,2.14-8.1,1.1-10.96-2.86-3-4.16-3.99-8.95-4.06-15.01Z"/><path class="cls-1" d="m421.94,106.37c-.01,3.66-.89,7.21-1.59,10.74-.83,4.19-4.77,6.5-8.41,5.25-14.62-5.02-29.3-9.88-43.79-15.25-12.03-4.45-23.34-10.49-32.03-20.16-4.44-4.93-7.63-10.94-12.07-15.97-5.81-6.58-11.89-12.96-16.49-20.52-1.02-1.68-2.04-3.4-2.79-5.21-4.42-10.67.09-17.56,8.79-22.9,1.35-.83,2.55-.15,3.77.2,20.06,5.77,38.2,15.52,55.08,27.54,12.52,8.91,24.48,18.62,35.68,29.17,6.8,6.41,12.24,13.82,13.5,23.51.16,1.2.24,2.4.36,3.6Z"/><path class="cls-1" d="m72.2,317.44c-1.24,14.55-2.52,29.09-3.68,43.65-.13,1.59-1.04,2-2.13,2.51-8.34,3.93-16.04,2.69-23-3.13-7.81-6.53-12.86-15.1-15.85-24.58-5.11-16.19-11.12-32.1-15.52-48.52-3.62-13.51-5.31-27.14-1.66-40.97,3.28-12.43,16.74-16.63,26.29-8.15,4.65,4.13,8.02,9.29,11.31,14.49,5.51,8.7,10.38,17.78,16.29,26.26,4.71,6.76,6.44,14.84,7.34,22.98.57,5.13.88,10.29.61,15.47Z"/><path class="cls-5" d="m63.19,369.66c3.58.1,6.51,1.83,9.29,3.82,4.39,3.15,8.17,6.98,11.87,10.9,7.67,8.14,15.22,16.43,23.67,23.77,7,6.08,15.58,9.76,23.66,14.16,6.37,3.48,12.61,7.13,17.77,12.34,4.62,4.67,7.43,10.26,8.53,16.72.62,3.62-.31,4.4-3.82,3.32-26.31-8.1-48.79-22.66-69-41.02-11.24-10.21-21.41-21.43-30.95-33.24-1.32-1.63-1.49-2.8-.35-4.54,2.25-3.46,4.75-6.35,9.34-6.23Z"/><path class="cls-5" d="m7.79,222.18c.43-8.22,2.94-15.77,4.44-23.52,3.58-18.38,9.06-36.13,16.53-53.27,5.34-12.25,12.07-23.61,21.17-33.52,2.22-2.42,4.59-2.34,7.14-1.63,2.59.72,3.84,2.77,4.12,5.41.4,3.81-.44,7.44-1.63,11-2.34,7.01-5.3,13.83-9.76,19.68-8.48,11.13-12.05,23.96-14.41,37.37-1.96,11.12-3.43,22.39-8.04,32.85-2.85,6.45-6.18,12.59-12.49,16.55-2.02,1.26-3.15.75-4.37-.86-2.33-3.07-2.61-6.67-2.73-10.05Z"/><path class="cls-5" d="m314.41,452.8c-.15-4.93,1.97-8.91,5.3-12.33,4.28-4.4,9.58-7.29,14.99-9.99,4.61-2.3,9.34-4.36,13.93-6.7,10.72-5.46,20.54-12.17,29.12-20.68,5.84-5.8,11.51-11.81,18.51-16.31,6.76-4.34,13.71-5.61,21.11-1.55,2.1,1.15,2.68,1.95.84,4.18-24.43,29.58-54.58,51.23-90.14,65.49-2.74,1.1-5.4,2.43-8.17,3.45-4.24,1.56-5.13.93-5.49-3.59-.05-.65,0-1.32,0-1.98Z"/><path class="cls-5" d="m470.63,243.4c-8.29-6.07-12.58-14.23-15.73-23.13-3.49-9.85-5.18-20.16-7.74-30.26-3.28-12.98-7.39-25.65-13.67-37.56-3.52-6.68-6.83-13.5-8.59-20.93-1.96-8.24.67-13.85,7.5-16.41,1.59-.6,2.44-.54,3.38,1.1,16.54,29.01,28.79,59.57,33.47,92.84,1.58,11.2,2.02,22.48,1.37,34.34Z"/><path class="cls-5" d="m285.4,30.96c-9.85-.07-18.68-2.1-27.48-3.82-10.41-2.03-20.51-1.05-30.72.7-8.21,1.41-16.43,3.04-24.85,1.73-3.62-.56-6.98-1.78-10.22-3.47-1.37-.71-1.54-1.53-1.07-2.89,1.89-5.49,5.75-8.95,11.06-10.95,4.99-1.89,10.22-2.43,15.51-2.6,7.7-.25,15.37.42,23.05.76,13.26.59,26.53,1.19,39.79,1.86,4.51.23,8.97.91,13.17,2.66,5.94,2.48,7.51,7.75,4.1,13.2-.68,1.08-1.63,1.35-2.68,1.66-3.41.99-6.9,1.25-9.65,1.17Z"/></g><circle class="cls-1" cx="106.92" cy="201.29" r="49.73"/><circle class="cls-1" cx="372.13" cy="201.29" r="49.73"/><circle class="cls-6" cx="87.16" cy="178.97" r="13.39"/><circle class="cls-6" cx="120.31" cy="213.4" r="27.41"/><circle class="cls-6" cx="379.14" cy="213.4" r="27.41"/><circle class="cls-6" cx="348.54" cy="181.52" r="13.39"/><polygon class="cls-1" points="273.56 228.44 263.75 202.56 265.03 202.56 274.64 228.22 273.56 228.44"/><path class="cls-7" d="m270.92,83.46v7.25c1.29.04,12.19.22,19.46-8.69,5.98-7.32,5.35-15.7,5.19-17.41h-7.25c.19.71,1.95,7.72-2.81,13.57-3.47,4.26-9.08,6.28-14.6,5.28Z"/><path class="cls-7" d="m310.06,64.6h-7.25c-.04,1.29-.22,12.19,8.69,19.46,7.32,5.98,15.7,5.35,17.41,5.19v-7.25c-.71.19-7.72,1.95-13.57-2.81-4.26-3.47-6.28-9.08-5.28-14.6Z"/><path class="cls-7" d="m289.77,119.6h7.25c.04-1.29.22-12.19-8.69-19.46-7.32-5.98-15.7-5.35-17.41-5.19,0,2.42,0,4.83,0,7.25.71-.19,7.72-1.95,13.57,2.81,4.26,3.47,6.28,9.08,5.28,14.6Z"/><path class="cls-7" d="m328.92,100.75v-7.25c-1.29-.04-12.19-.22-19.46,8.69-5.98,7.32-5.35,15.7-5.19,17.41h7.25c-.19-.71-1.95-7.72,2.81-13.57,3.47-4.26,9.08-6.28,14.6-5.28Z"/><rect class="cls-6" x="243.99" y="230" width="55.19" height="9" transform="translate(131.69 -95.92) rotate(26.24)"/><rect class="cls-6" x="198.53" y="230.04" width="55.19" height="9" transform="translate(534.12 340.75) rotate(152.98)"/><rect class="cls-1" x="90.21" y="134.8" width="63.64" height="9" transform="translate(146.13 322.91) rotate(-146.26)"/><rect class="cls-1" x="322.08" y="139.52" width="63.81" height="9" transform="translate(-25.64 187.94) rotate(-28.74)"/></g></svg>