<?xml version="1.0" encoding="UTF-8"?>
<svg id="_øl" data-name="øl" xmlns="http://www.w3.org/2000/svg" viewBox="0 0 285 450">
  <defs>
    <style>
      .cls-1 {
        fill: #272525;
      }

      .cls-1, .cls-2, .cls-3, .cls-4 {
        stroke-width: 0px;
      }

      .cls-2 {
        fill: #cc9c53;
      }

      .cls-3 {
        fill: #e0f0fc;
      }

      .cls-4 {
        fill: #fffcdc;
      }
    </style>
  </defs>
  <path class="cls-3" d="m210.22,434.62c-24.21,5.86-55.88,11.01-93,10.61-33.52-.36-62.35-5.13-85-10.61-9.24-.68-15.88-9.29-15-18.04.77-7.6,7.07-13.97,15-14.45V90.76h178v313.51c7.59.33,13.65,6.76,14,14.44.37,8.2-5.88,15.55-14,15.92Z"/>
  <path class="cls-2" d="m46.22,105.76v279.48c.08,1.46.47,5.02,3,8.52,2.11,2.91,4.68,4.37,6,5,16.78,3.7,38.15,6.89,63,7,26.04.12,48.36-3.19,65.67-7,1.11-.13,5.9-.81,9.33-5,2.25-2.74,2.82-5.65,3-7V105.76H46.22Z"/>
  <path class="cls-1" d="m191.92,418.72c-17.44,4.73-41.85,9.49-71.25,9.53-29.82.05-54.57-4.77-72.15-9.53-.99,0-1.8-.78-1.8-1.73s.81-1.73,1.8-1.73c16.82,4.99,41.34,10.35,71.25,10.4,30.35.05,55.2-5.37,72.15-10.4.99,0,1.8.78,1.8,1.73s-.81,1.73-1.8,1.73Z"/>
  <path class="cls-4" d="m12.39,79.12C2.72,88.3.03,104.81,5.01,116.3c5.87,13.54,21.66,18.41,33.18,7.2.65,1.83,4.95,13.31,14.75,16.79,9.26,3.29,19.65-1.92,25.81-13.19,3.32,2.37,17.48,11.82,35.03,6,13.07-4.33,20.99-14.81,23.96-19.19,5.61,13.21,16.38,21.16,27.65,20.39,15.4-1.06,23.35-17.84,23.96-19.19,2.87,1.72,14.71,8.33,28.57,2.4,9.42-4.03,15.11-11.85,17.51-15.59.39-.61,4.75-7.69,2.77-16.79-1.83-8.41-7.59-11.62-8.3-11.99,5-12.14,3.5-27.15-3.69-37.18-7.28-10.16-18.86-13.08-28.57-7.2-1.07-1.97-10.16-18.16-26.73-19.19-15.71-.97-25.66,12.45-27.05,14.39-1.19-2.08-10.99-18.57-28.25-19.19-18.48-.66-29.27,17.46-30.27,19.19-2.81-2.6-16.13-14.31-34.25-10.79-15.55,3.02-24.95,15.37-27.65,19.19-8.46.28-15.89,7.54-18.43,17.99-2.58,10.6.4,22.27,7.37,28.78Z"/>
  <path class="cls-3" d="m210.22,161.26v14.93h52.92c.7.1,3.05.55,5.01,2.95,2.17,2.67,2.35,5.87,2.38,6.65v82.69c-.01.9-.15,3.33-1.59,5.64-2,3.2-4.99,3.71-5.56,3.8h-53.17v15.35h60.31c1.33-.48,6.37-2.49,9.52-8.7,2.2-4.32,2.39-8.54,2.38-10.45v-98.62c0-1.07-.13-5.69-3.17-9.65-3.1-4.03-7.04-4.51-7.91-4.59h-61.13Z"/>
</svg>